0
SECTION
2
HEADER
9
$ACADVER
1
AC1009
0
ENDSEC
0
SECTION
2
ENTITIES
0
POLYLINE
5
P
8
0
66
1
70
1
10
0.0
20
0.0
30
0.0
0
VERTEX
8
0
10
-110.0
20
-16.0
30
0.0
0
VERTEX
8
0
10
-108.1
20
-15.6
30
0.0
0
VERTEX
8
0
10
-106.45
20
-14.55
30
0.0
0
VERTEX
8
0
10
-105.4
20
-12.9
30
0.0
0
VERTEX
8
0
10
-105.0
20
-11.0
30
0.0
0
VERTEX
8
0
10
-105.4
20
-9.1
30
0.0
0
VERTEX
8
0
10
-106.45
20
-7.45
30
0.0
0
VERTEX
8
0
10
-108.1
20
-6.4
30
0.0
0
VERTEX
8
0
10
-110.0
20
-6.0
30
0.0
0
VERTEX
8
0
10
-111.9
20
-6.4
30
0.0
0
VERTEX
8
0
10
-113.55
20
-7.45
30
0.0
0
VERTEX
8
0
10
-114.6
20
-9.1
30
0.0
0
VERTEX
8
0
10
-115.0
20
-11.0
30
0.0
0
VERTEX
8
0
10
-114.6
20
-12.9
30
0.0
0
VERTEX
8
0
10
-113.55
20
-14.55
30
0.0
0
VERTEX
8
0
10
-111.9
20
-15.6
30
0.0
0
VERTEX
8
0
10
-110.0
20
-16.0
30
0.0
0
SEQEND
0
POLYLINE
5
P
8
0
66
1
70
1
10
0.0
20
0.0
30
0.0
0
VERTEX
8
0
10
110.0
20
-16.0
30
0.0
0
VERTEX
8
0
10
111.9
20
-15.6
30
0.0
0
VERTEX
8
0
10
113.55
20
-14.55
30
0.0
0
VERTEX
8
0
10
114.6
20
-12.9
30
0.0
0
VERTEX
8
0
10
115.0
20
-11.0
30
0.0
0
VERTEX
8
0
10
114.6
20
-9.1
30
0.0
0
VERTEX
8
0
10
113.55
20
-7.45
30
0.0
0
VERTEX
8
0
10
111.9
20
-6.4
30
0.0
0
VERTEX
8
0
10
110.0
20
-6.0
30
0.0
0
VERTEX
8
0
10
108.1
20
-6.4
30
0.0
0
VERTEX
8
0
10
106.45
20
-7.45
30
0.0
0
VERTEX
8
0
10
105.4
20
-9.1
30
0.0
0
VERTEX
8
0
10
105.0
20
-11.0
30
0.0
0
VERTEX
8
0
10
105.4
20
-12.9
30
0.0
0
VERTEX
8
0
10
106.45
20
-14.55
30
0.0
0
VERTEX
8
0
10
108.1
20
-15.6
30
0.0
0
VERTEX
8
0
10
110.0
20
-16.0
30
0.0
0
SEQEND
0
POLYLINE
5
P
8
0
66
1
70
1
10
0.0
20
0.0
30
0.0
0
VERTEX
8
0
10
24.5
20
-17.0
30
0.0
0
VERTEX
8
0
10
25.0
20
-16.5
30
0.0
0
VERTEX
8
0
10
25.0
20
-5.5
30
0.0
0
VERTEX
8
0
10
24.5
20
-5.0
30
0.0
0
VERTEX
8
0
10
-24.5
20
-5.0
30
0.0
0
VERTEX
8
0
10
-25.0
20
-5.5
30
0.0
0
VERTEX
8
0
10
-25.0
20
-16.5
30
0.0
0
VERTEX
8
0
10
-24.5
20
-17.0
30
0.0
0
SEQEND
0
POLYLINE
5
P
8
0
66
1
70
1
10
0.0
20
0.0
30
0.0
0
VERTEX
8
0
10
-156.0
20
-29.0
30
0.0
0
VERTEX
8
0
10
-156.0
20
29.0
30
0.0
0
VERTEX
8
0
10
156.0
20
29.0
30
0.0
0
VERTEX
8
0
10
156.0
20
-29.0
30
0.0
0
SEQEND
0
ENDSEC
0
EOF
