0
SECTION
2
HEADER
9
$ACADVER
1
AC1009
0
ENDSEC
0
SECTION
2
ENTITIES
0
POLYLINE
5
P
8
0
66
1
39
3
70
1
10
0.0
20
0.0
30
0.0
0
VERTEX
8
0
10
-368.9
20
-130.25
30
0.0
0
VERTEX
8
0
70
0
10
-368.623858
20
-130.25
30
0.0
0
VERTEX
8
0
70
0
10
-368.4
20
-130.026142
30
0.0
0
VERTEX
8
0
10
-368.4
20
-129.75
30
0.0
0
VERTEX
8
0
10
-368.4
20
-110.25
30
0.0
0
VERTEX
8
0
70
0
10
-368.4
20
-109.973858
30
0.0
0
VERTEX
8
0
70
0
10
-368.623858
20
-109.75
30
0.0
0
VERTEX
8
0
10
-368.9
20
-109.75
30
0.0
0
VERTEX
8
0
10
-371.1
20
-109.75
30
0.0
0
VERTEX
8
0
70
0
10
-371.376142
20
-109.75
30
0.0
0
VERTEX
8
0
70
0
10
-371.6
20
-109.973858
30
0.0
0
VERTEX
8
0
10
-371.6
20
-110.25
30
0.0
0
VERTEX
8
0
10
-371.6
20
-129.75
30
0.0
0
VERTEX
8
0
70
0
10
-371.6
20
-130.026142
30
0.0
0
VERTEX
8
0
70
0
10
-371.376142
20
-130.25
30
0.0
0
VERTEX
8
0
10
-371.1
20
-130.25
30
0.0
0
SEQEND
0
POLYLINE
5
P
8
0
66
1
39
3
70
1
10
0.0
20
0.0
30
0.0
0
VERTEX
8
0
10
-60.9
20
-130.25
30
0.0
0
VERTEX
8
0
70
0
10
-60.623858
20
-130.25
30
0.0
0
VERTEX
8
0
70
0
10
-60.4
20
-130.026142
30
0.0
0
VERTEX
8
0
10
-60.4
20
-129.75
30
0.0
0
VERTEX
8
0
10
-60.4
20
-110.25
30
0.0
0
VERTEX
8
0
70
0
10
-60.4
20
-109.973858
30
0.0
0
VERTEX
8
0
70
0
10
-60.623858
20
-109.75
30
0.0
0
VERTEX
8
0
10
-60.9
20
-109.75
30
0.0
0
VERTEX
8
0
10
-63.1
20
-109.75
30
0.0
0
VERTEX
8
0
70
0
10
-63.376142
20
-109.75
30
0.0
0
VERTEX
8
0
70
0
10
-63.6
20
-109.973858
30
0.0
0
VERTEX
8
0
10
-63.6
20
-110.25
30
0.0
0
VERTEX
8
0
10
-63.6
20
-129.75
30
0.0
0
VERTEX
8
0
70
0
10
-63.6
20
-130.026142
30
0.0
0
VERTEX
8
0
70
0
10
-63.376142
20
-130.25
30
0.0
0
VERTEX
8
0
10
-63.1
20
-130.25
30
0.0
0
SEQEND
0
POLYLINE
5
P
8
0
66
1
39
3
70
1
10
0.0
20
0.0
30
0.0
0
VERTEX
8
0
10
73.1
20
-130.25
30
0.0
0
VERTEX
8
0
70
0
10
73.376142
20
-130.25
30
0.0
0
VERTEX
8
0
70
0
10
73.6
20
-130.026142
30
0.0
0
VERTEX
8
0
10
73.6
20
-129.75
30
0.0
0
VERTEX
8
0
10
73.6
20
-110.25
30
0.0
0
VERTEX
8
0
70
0
10
73.6
20
-109.973858
30
0.0
0
VERTEX
8
0
70
0
10
73.376142
20
-109.75
30
0.0
0
VERTEX
8
0
10
73.1
20
-109.75
30
0.0
0
VERTEX
8
0
10
70.9
20
-109.75
30
0.0
0
VERTEX
8
0
70
0
10
70.623858
20
-109.75
30
0.0
0
VERTEX
8
0
70
0
10
70.4
20
-109.973858
30
0.0
0
VERTEX
8
0
10
70.4
20
-110.25
30
0.0
0
VERTEX
8
0
10
70.4
20
-129.75
30
0.0
0
VERTEX
8
0
70
0
10
70.4
20
-130.026142
30
0.0
0
VERTEX
8
0
70
0
10
70.623858
20
-130.25
30
0.0
0
VERTEX
8
0
10
70.9
20
-130.25
30
0.0
0
SEQEND
0
POLYLINE
5
P
8
0
66
1
39
3
70
1
10
0.0
20
0.0
30
0.0
0
VERTEX
8
0
10
326.1
20
-130.25
30
0.0
0
VERTEX
8
0
70
0
10
326.376142
20
-130.25
30
0.0
0
VERTEX
8
0
70
0
10
326.6
20
-130.026142
30
0.0
0
VERTEX
8
0
10
326.6
20
-129.75
30
0.0
0
VERTEX
8
0
10
326.6
20
-110.25
30
0.0
0
VERTEX
8
0
70
0
10
326.6
20
-109.973858
30
0.0
0
VERTEX
8
0
70
0
10
326.376142
20
-109.75
30
0.0
0
VERTEX
8
0
10
326.1
20
-109.75
30
0.0
0
VERTEX
8
0
10
323.9
20
-109.75
30
0.0
0
VERTEX
8
0
70
0
10
323.623858
20
-109.75
30
0.0
0
VERTEX
8
0
70
0
10
323.4
20
-109.973858
30
0.0
0
VERTEX
8
0
10
323.4
20
-110.25
30
0.0
0
VERTEX
8
0
10
323.4
20
-129.75
30
0.0
0
VERTEX
8
0
70
0
10
323.4
20
-130.026142
30
0.0
0
VERTEX
8
0
70
0
10
323.623858
20
-130.25
30
0.0
0
VERTEX
8
0
10
323.9
20
-130.25
30
0.0
0
SEQEND
0
POLYLINE
5
P
8
0
66
1
39
3
70
1
10
0.0
20
0.0
30
0.0
0
VERTEX
8
0
10
447.1
20
-130.25
30
0.0
0
VERTEX
8
0
70
0
10
447.376142
20
-130.25
30
0.0
0
VERTEX
8
0
70
0
10
447.6
20
-130.026142
30
0.0
0
VERTEX
8
0
10
447.6
20
-129.75
30
0.0
0
VERTEX
8
0
10
447.6
20
-110.25
30
0.0
0
VERTEX
8
0
70
0
10
447.6
20
-109.973858
30
0.0
0
VERTEX
8
0
70
0
10
447.376142
20
-109.75
30
0.0
0
VERTEX
8
0
10
447.1
20
-109.75
30
0.0
0
VERTEX
8
0
10
444.9
20
-109.75
30
0.0
0
VERTEX
8
0
70
0
10
444.623858
20
-109.75
30
0.0
0
VERTEX
8
0
70
0
10
444.4
20
-109.973858
30
0.0
0
VERTEX
8
0
10
444.4
20
-110.25
30
0.0
0
VERTEX
8
0
10
444.4
20
-129.75
30
0.0
0
VERTEX
8
0
70
0
10
444.4
20
-130.026142
30
0.0
0
VERTEX
8
0
70
0
10
444.623858
20
-130.25
30
0.0
0
VERTEX
8
0
10
444.9
20
-130.25
30
0.0
0
SEQEND
0
POLYLINE
5
P
8
0
66
1
39
3
70
1
10
0.0
20
0.0
30
0.0
0
VERTEX
8
0
10
394.0
20
-117.5
30
0.0
0
VERTEX
8
0
70
0
10
394.828427
20
-117.5
30
0.0
0
VERTEX
8
0
70
0
10
395.5
20
-116.828427
30
0.0
0
VERTEX
8
0
10
395.5
20
-116.0
30
0.0
0
VERTEX
8
0
10
395.5
20
-94.0
30
0.0
0
VERTEX
8
0
70
0
10
395.5
20
-93.171573
30
0.0
0
VERTEX
8
0
70
0
10
394.828427
20
-92.5
30
0.0
0
VERTEX
8
0
10
394.0
20
-92.5
30
0.0
0
VERTEX
8
0
10
376.0
20
-92.5
30
0.0
0
VERTEX
8
0
70
0
10
375.171573
20
-92.5
30
0.0
0
VERTEX
8
0
70
0
10
374.5
20
-93.171573
30
0.0
0
VERTEX
8
0
10
374.5
20
-94.0
30
0.0
0
VERTEX
8
0
10
374.5
20
-116.0
30
0.0
0
VERTEX
8
0
70
0
10
374.5
20
-116.828427
30
0.0
0
VERTEX
8
0
70
0
10
375.171573
20
-117.5
30
0.0
0
VERTEX
8
0
10
376.0
20
-117.5
30
0.0
0
SEQEND
0
POLYLINE
5
P
8
0
66
1
39
3
70
1
10
0.0
20
0.0
30
0.0
0
VERTEX
8
0
10
-460.5
20
-82.0
30
0.0
0
VERTEX
8
0
70
0
10
-460.223858
20
-82.0
30
0.0
0
VERTEX
8
0
70
0
10
-460.0
20
-81.776142
30
0.0
0
VERTEX
8
0
10
-460.0
20
-81.5
30
0.0
0
VERTEX
8
0
10
-460.0
20
-79.3
30
0.0
0
VERTEX
8
0
70
0
10
-460.0
20
-79.023858
30
0.0
0
VERTEX
8
0
70
0
10
-460.223858
20
-78.8
30
0.0
0
VERTEX
8
0
10
-460.5
20
-78.8
30
0.0
0
VERTEX
8
0
10
-479.5
20
-78.8
30
0.0
0
VERTEX
8
0
70
0
10
-479.776142
20
-78.8
30
0.0
0
VERTEX
8
0
70
0
10
-480.0
20
-79.023858
30
0.0
0
VERTEX
8
0
10
-480.0
20
-79.3
30
0.0
0
VERTEX
8
0
10
-480.0
20
-81.5
30
0.0
0
VERTEX
8
0
70
0
10
-480.0
20
-81.776142
30
0.0
0
VERTEX
8
0
70
0
10
-479.776142
20
-82.0
30
0.0
0
VERTEX
8
0
10
-479.5
20
-82.0
30
0.0
0
SEQEND
0
POLYLINE
5
P
8
0
66
1
39
3
70
1
10
0.0
20
0.0
30
0.0
0
VERTEX
8
0
10
-368.9
20
-50.25
30
0.0
0
VERTEX
8
0
70
0
10
-368.623858
20
-50.25
30
0.0
0
VERTEX
8
0
70
0
10
-368.4
20
-50.026142
30
0.0
0
VERTEX
8
0
10
-368.4
20
-49.75
30
0.0
0
VERTEX
8
0
10
-368.4
20
-30.25
30
0.0
0
VERTEX
8
0
70
0
10
-368.4
20
-29.973858
30
0.0
0
VERTEX
8
0
70
0
10
-368.623858
20
-29.75
30
0.0
0
VERTEX
8
0
10
-368.9
20
-29.75
30
0.0
0
VERTEX
8
0
10
-371.1
20
-29.75
30
0.0
0
VERTEX
8
0
70
0
10
-371.376142
20
-29.75
30
0.0
0
VERTEX
8
0
70
0
10
-371.6
20
-29.973858
30
0.0
0
VERTEX
8
0
10
-371.6
20
-30.25
30
0.0
0
VERTEX
8
0
10
-371.6
20
-49.75
30
0.0
0
VERTEX
8
0
70
0
10
-371.6
20
-50.026142
30
0.0
0
VERTEX
8
0
70
0
10
-371.376142
20
-50.25
30
0.0
0
VERTEX
8
0
10
-371.1
20
-50.25
30
0.0
0
SEQEND
0
POLYLINE
5
P
8
0
66
1
39
3
70
1
10
0.0
20
0.0
30
0.0
0
VERTEX
8
0
10
-368.9
20
29.75
30
0.0
0
VERTEX
8
0
70
0
10
-368.623858
20
29.75
30
0.0
0
VERTEX
8
0
70
0
10
-368.4
20
29.973858
30
0.0
0
VERTEX
8
0
10
-368.4
20
30.25
30
0.0
0
VERTEX
8
0
10
-368.4
20
49.75
30
0.0
0
VERTEX
8
0
70
0
10
-368.4
20
50.026142
30
0.0
0
VERTEX
8
0
70
0
10
-368.623858
20
50.25
30
0.0
0
VERTEX
8
0
10
-368.9
20
50.25
30
0.0
0
VERTEX
8
0
10
-371.1
20
50.25
30
0.0
0
VERTEX
8
0
70
0
10
-371.376142
20
50.25
30
0.0
0
VERTEX
8
0
70
0
10
-371.6
20
50.026142
30
0.0
0
VERTEX
8
0
10
-371.6
20
49.75
30
0.0
0
VERTEX
8
0
10
-371.6
20
30.25
30
0.0
0
VERTEX
8
0
70
0
10
-371.6
20
29.973858
30
0.0
0
VERTEX
8
0
70
0
10
-371.376142
20
29.75
30
0.0
0
VERTEX
8
0
10
-371.1
20
29.75
30
0.0
0
SEQEND
0
POLYLINE
5
P
8
0
66
1
39
3
70
1
10
0.0
20
0.0
30
0.0
0
VERTEX
8
0
10
-460.5
20
78.8
30
0.0
0
VERTEX
8
0
70
0
10
-460.223858
20
78.8
30
0.0
0
VERTEX
8
0
70
0
10
-460.0
20
79.023858
30
0.0
0
VERTEX
8
0
10
-460.0
20
79.3
30
0.0
0
VERTEX
8
0
10
-460.0
20
81.5
30
0.0
0
VERTEX
8
0
70
0
10
-460.0
20
81.776142
30
0.0
0
VERTEX
8
0
70
0
10
-460.223858
20
82.0
30
0.0
0
VERTEX
8
0
10
-460.5
20
82.0
30
0.0
0
VERTEX
8
0
10
-479.5
20
82.0
30
0.0
0
VERTEX
8
0
70
0
10
-479.776142
20
82.0
30
0.0
0
VERTEX
8
0
70
0
10
-480.0
20
81.776142
30
0.0
0
VERTEX
8
0
10
-480.0
20
81.5
30
0.0
0
VERTEX
8
0
10
-480.0
20
79.3
30
0.0
0
VERTEX
8
0
70
0
10
-480.0
20
79.023858
30
0.0
0
VERTEX
8
0
70
0
10
-479.776142
20
78.8
30
0.0
0
VERTEX
8
0
10
-479.5
20
78.8
30
0.0
0
SEQEND
0
POLYLINE
5
P
8
0
66
1
39
3
70
1
10
0.0
20
0.0
30
0.0
0
VERTEX
8
0
10
461.25
20
-82.0
30
0.0
0
VERTEX
8
0
70
0
10
461.388071
20
-82.0
30
0.0
0
VERTEX
8
0
70
0
10
461.5
20
-81.888071
30
0.0
0
VERTEX
8
0
10
461.5
20
-81.75
30
0.0
0
VERTEX
8
0
10
461.5
20
-79.05
30
0.0
0
VERTEX
8
0
70
0
10
461.5
20
-78.911929
30
0.0
0
VERTEX
8
0
70
0
10
461.388071
20
-78.8
30
0.0
0
VERTEX
8
0
10
461.25
20
-78.8
30
0.0
0
VERTEX
8
0
10
448.0
20
-78.8
30
0.0
0
VERTEX
8
0
10
448.0
20
78.8
30
0.0
0
VERTEX
8
0
10
461.25
20
78.8
30
0.0
0
VERTEX
8
0
70
0
10
461.388071
20
78.8
30
0.0
0
VERTEX
8
0
70
0
10
461.5
20
78.911929
30
0.0
0
VERTEX
8
0
10
461.5
20
79.05
30
0.0
0
VERTEX
8
0
10
461.5
20
81.75
30
0.0
0
VERTEX
8
0
70
0
10
461.5
20
81.888071
30
0.0
0
VERTEX
8
0
70
0
10
461.388071
20
82.0
30
0.0
0
VERTEX
8
0
10
461.25
20
82.0
30
0.0
0
VERTEX
8
0
10
446.75
20
82.0
30
0.0
0
VERTEX
8
0
70
0
10
446.75
20
82.0
30
0.0
0
VERTEX
8
0
70
0
10
446.75
20
82.0
30
0.0
0
VERTEX
8
0
10
446.75
20
82.0
30
0.0
0
VERTEX
8
0
10
-282.75
20
82.0
30
0.0
0
VERTEX
8
0
70
0
10
-282.75
20
82.0
30
0.0
0
VERTEX
8
0
70
0
10
-282.75
20
82.0
30
0.0
0
VERTEX
8
0
10
-282.75
20
82.0
30
0.0
0
VERTEX
8
0
10
-297.25
20
82.0
30
0.0
0
VERTEX
8
0
70
0
10
-297.388071
20
82.0
30
0.0
0
VERTEX
8
0
70
0
10
-297.5
20
81.888071
30
0.0
0
VERTEX
8
0
10
-297.5
20
81.75
30
0.0
0
VERTEX
8
0
10
-297.5
20
79.05
30
0.0
0
VERTEX
8
0
70
0
10
-297.5
20
78.911929
30
0.0
0
VERTEX
8
0
70
0
10
-297.388071
20
78.8
30
0.0
0
VERTEX
8
0
10
-297.25
20
78.8
30
0.0
0
VERTEX
8
0
10
-284.0
20
78.8
30
0.0
0
VERTEX
8
0
10
-284.0
20
-78.8
30
0.0
0
VERTEX
8
0
10
-297.25
20
-78.8
30
0.0
0
VERTEX
8
0
70
0
10
-297.388071
20
-78.8
30
0.0
0
VERTEX
8
0
70
0
10
-297.5
20
-78.911929
30
0.0
0
VERTEX
8
0
10
-297.5
20
-79.05
30
0.0
0
VERTEX
8
0
10
-297.5
20
-81.75
30
0.0
0
VERTEX
8
0
70
0
10
-297.5
20
-81.888071
30
0.0
0
VERTEX
8
0
70
0
10
-297.388071
20
-82.0
30
0.0
0
VERTEX
8
0
10
-297.25
20
-82.0
30
0.0
0
SEQEND
0
POLYLINE
5
P
8
0
66
1
39
3
70
1
10
0.0
20
0.0
30
0.0
0
VERTEX
8
0
10
394.0
20
92.5
30
0.0
0
VERTEX
8
0
70
0
10
394.828427
20
92.5
30
0.0
0
VERTEX
8
0
70
0
10
395.5
20
93.171573
30
0.0
0
VERTEX
8
0
10
395.5
20
94.0
30
0.0
0
VERTEX
8
0
10
395.5
20
116.0
30
0.0
0
VERTEX
8
0
70
0
10
395.5
20
116.828427
30
0.0
0
VERTEX
8
0
70
0
10
394.828427
20
117.5
30
0.0
0
VERTEX
8
0
10
394.0
20
117.5
30
0.0
0
VERTEX
8
0
10
376.0
20
117.5
30
0.0
0
VERTEX
8
0
70
0
10
375.171573
20
117.5
30
0.0
0
VERTEX
8
0
70
0
10
374.5
20
116.828427
30
0.0
0
VERTEX
8
0
10
374.5
20
116.0
30
0.0
0
VERTEX
8
0
10
374.5
20
94.0
30
0.0
0
VERTEX
8
0
70
0
10
374.5
20
93.171573
30
0.0
0
VERTEX
8
0
70
0
10
375.171573
20
92.5
30
0.0
0
VERTEX
8
0
10
376.0
20
92.5
30
0.0
0
SEQEND
0
POLYLINE
5
P
8
0
66
1
39
3
70
1
10
0.0
20
0.0
30
0.0
0
VERTEX
8
0
10
-368.9
20
109.75
30
0.0
0
VERTEX
8
0
70
0
10
-368.623858
20
109.75
30
0.0
0
VERTEX
8
0
70
0
10
-368.4
20
109.973858
30
0.0
0
VERTEX
8
0
10
-368.4
20
110.25
30
0.0
0
VERTEX
8
0
10
-368.4
20
129.75
30
0.0
0
VERTEX
8
0
70
0
10
-368.4
20
130.026142
30
0.0
0
VERTEX
8
0
70
0
10
-368.623858
20
130.25
30
0.0
0
VERTEX
8
0
10
-368.9
20
130.25
30
0.0
0
VERTEX
8
0
10
-371.1
20
130.25
30
0.0
0
VERTEX
8
0
70
0
10
-371.376142
20
130.25
30
0.0
0
VERTEX
8
0
70
0
10
-371.6
20
130.026142
30
0.0
0
VERTEX
8
0
10
-371.6
20
129.75
30
0.0
0
VERTEX
8
0
10
-371.6
20
110.25
30
0.0
0
VERTEX
8
0
70
0
10
-371.6
20
109.973858
30
0.0
0
VERTEX
8
0
70
0
10
-371.376142
20
109.75
30
0.0
0
VERTEX
8
0
10
-371.1
20
109.75
30
0.0
0
SEQEND
0
POLYLINE
5
P
8
0
66
1
39
3
70
1
10
0.0
20
0.0
30
0.0
0
VERTEX
8
0
10
-60.9
20
109.75
30
0.0
0
VERTEX
8
0
70
0
10
-60.623858
20
109.75
30
0.0
0
VERTEX
8
0
70
0
10
-60.4
20
109.973858
30
0.0
0
VERTEX
8
0
10
-60.4
20
110.25
30
0.0
0
VERTEX
8
0
10
-60.4
20
129.75
30
0.0
0
VERTEX
8
0
70
0
10
-60.4
20
130.026142
30
0.0
0
VERTEX
8
0
70
0
10
-60.623858
20
130.25
30
0.0
0
VERTEX
8
0
10
-60.9
20
130.25
30
0.0
0
VERTEX
8
0
10
-63.1
20
130.25
30
0.0
0
VERTEX
8
0
70
0
10
-63.376142
20
130.25
30
0.0
0
VERTEX
8
0
70
0
10
-63.6
20
130.026142
30
0.0
0
VERTEX
8
0
10
-63.6
20
129.75
30
0.0
0
VERTEX
8
0
10
-63.6
20
110.25
30
0.0
0
VERTEX
8
0
70
0
10
-63.6
20
109.973858
30
0.0
0
VERTEX
8
0
70
0
10
-63.376142
20
109.75
30
0.0
0
VERTEX
8
0
10
-63.1
20
109.75
30
0.0
0
SEQEND
0
POLYLINE
5
P
8
0
66
1
39
3
70
1
10
0.0
20
0.0
30
0.0
0
VERTEX
8
0
10
73.1
20
109.75
30
0.0
0
VERTEX
8
0
70
0
10
73.376142
20
109.75
30
0.0
0
VERTEX
8
0
70
0
10
73.6
20
109.973858
30
0.0
0
VERTEX
8
0
10
73.6
20
110.25
30
0.0
0
VERTEX
8
0
10
73.6
20
129.75
30
0.0
0
VERTEX
8
0
70
0
10
73.6
20
130.026142
30
0.0
0
VERTEX
8
0
70
0
10
73.376142
20
130.25
30
0.0
0
VERTEX
8
0
10
73.1
20
130.25
30
0.0
0
VERTEX
8
0
10
70.9
20
130.25
30
0.0
0
VERTEX
8
0
70
0
10
70.623858
20
130.25
30
0.0
0
VERTEX
8
0
70
0
10
70.4
20
130.026142
30
0.0
0
VERTEX
8
0
10
70.4
20
129.75
30
0.0
0
VERTEX
8
0
10
70.4
20
110.25
30
0.0
0
VERTEX
8
0
70
0
10
70.4
20
109.973858
30
0.0
0
VERTEX
8
0
70
0
10
70.623858
20
109.75
30
0.0
0
VERTEX
8
0
10
70.9
20
109.75
30
0.0
0
SEQEND
0
POLYLINE
5
P
8
0
66
1
39
3
70
1
10
0.0
20
0.0
30
0.0
0
VERTEX
8
0
10
326.1
20
109.75
30
0.0
0
VERTEX
8
0
70
0
10
326.376142
20
109.75
30
0.0
0
VERTEX
8
0
70
0
10
326.6
20
109.973858
30
0.0
0
VERTEX
8
0
10
326.6
20
110.25
30
0.0
0
VERTEX
8
0
10
326.6
20
129.75
30
0.0
0
VERTEX
8
0
70
0
10
326.6
20
130.026142
30
0.0
0
VERTEX
8
0
70
0
10
326.376142
20
130.25
30
0.0
0
VERTEX
8
0
10
326.1
20
130.25
30
0.0
0
VERTEX
8
0
10
323.9
20
130.25
30
0.0
0
VERTEX
8
0
70
0
10
323.623858
20
130.25
30
0.0
0
VERTEX
8
0
70
0
10
323.4
20
130.026142
30
0.0
0
VERTEX
8
0
10
323.4
20
129.75
30
0.0
0
VERTEX
8
0
10
323.4
20
110.25
30
0.0
0
VERTEX
8
0
70
0
10
323.4
20
109.973858
30
0.0
0
VERTEX
8
0
70
0
10
323.623858
20
109.75
30
0.0
0
VERTEX
8
0
10
323.9
20
109.75
30
0.0
0
SEQEND
0
POLYLINE
5
P
8
0
66
1
39
3
70
1
10
0.0
20
0.0
30
0.0
0
VERTEX
8
0
10
447.1
20
109.75
30
0.0
0
VERTEX
8
0
70
0
10
447.376142
20
109.75
30
0.0
0
VERTEX
8
0
70
0
10
447.6
20
109.973858
30
0.0
0
VERTEX
8
0
10
447.6
20
110.25
30
0.0
0
VERTEX
8
0
10
447.6
20
129.75
30
0.0
0
VERTEX
8
0
70
0
10
447.6
20
130.026142
30
0.0
0
VERTEX
8
0
70
0
10
447.376142
20
130.25
30
0.0
0
VERTEX
8
0
10
447.1
20
130.25
30
0.0
0
VERTEX
8
0
10
444.9
20
130.25
30
0.0
0
VERTEX
8
0
70
0
10
444.623858
20
130.25
30
0.0
0
VERTEX
8
0
70
0
10
444.4
20
130.026142
30
0.0
0
VERTEX
8
0
10
444.4
20
129.75
30
0.0
0
VERTEX
8
0
10
444.4
20
110.25
30
0.0
0
VERTEX
8
0
70
0
10
444.4
20
109.973858
30
0.0
0
VERTEX
8
0
70
0
10
444.623858
20
109.75
30
0.0
0
VERTEX
8
0
10
444.9
20
109.75
30
0.0
0
SEQEND
0
POLYLINE
5
P
8
0
66
1
39
3
70
1
10
0.0
20
0.0
30
0.0
0
VERTEX
8
0
10
-442.0
20
-193.0
30
0.0
0
VERTEX
8
0
70
0
10
-444.761424
20
-193.0
30
0.0
0
VERTEX
8
0
70
0
10
-447.0
20
-190.761424
30
0.0
0
VERTEX
8
0
10
-447.0
20
-188.0
30
0.0
0
VERTEX
8
0
10
-447.0
20
-168.0
30
0.0
0
VERTEX
8
0
10
-506.0
20
-168.0
30
0.0
0
VERTEX
8
0
70
0
10
-508.761424
20
-168.0
30
0.0
0
VERTEX
8
0
70
0
10
-511.0
20
-165.761424
30
0.0
0
VERTEX
8
0
10
-511.0
20
-163.0
30
0.0
0
VERTEX
8
0
10
-511.0
20
-125.0
30
0.0
0
VERTEX
8
0
10
-511.0
20
144.0
30
0.0
0
VERTEX
8
0
10
-511.0
20
163.0
30
0.0
0
VERTEX
8
0
70
0
10
-511.0
20
165.761424
30
0.0
0
VERTEX
8
0
70
0
10
-508.761424
20
168.0
30
0.0
0
VERTEX
8
0
10
-506.0
20
168.0
30
0.0
0
VERTEX
8
0
10
-447.0
20
168.0
30
0.0
0
VERTEX
8
0
10
-447.0
20
188.0
30
0.0
0
VERTEX
8
0
70
0
10
-447.0
20
190.761424
30
0.0
0
VERTEX
8
0
70
0
10
-444.761424
20
193.0
30
0.0
0
VERTEX
8
0
10
-442.0
20
193.0
30
0.0
0
VERTEX
8
0
10
-239.0
20
193.0
30
0.0
0
VERTEX
8
0
70
0
10
-236.238576
20
193.0
30
0.0
0
VERTEX
8
0
70
0
10
-234.0
20
190.761424
30
0.0
0
VERTEX
8
0
10
-234.0
20
188.0
30
0.0
0
VERTEX
8
0
10
-234.0
20
168.0
30
0.0
0
VERTEX
8
0
10
60.0
20
168.0
30
0.0
0
VERTEX
8
0
70
0
10
86.944413
20
168.0
30
0.0
0
VERTEX
8
0
70
0
10
108.910923
20
146.687066
30
0.0
0
VERTEX
8
0
10
109.960731
20
120.0
30
0.0
0
VERTEX
8
0
10
150.0
20
120.0
30
0.0
0
VERTEX
8
0
70
0
10
161.045695
20
120.0
30
0.0
0
VERTEX
8
0
70
0
10
170.0
20
128.954305
30
0.0
0
VERTEX
8
0
10
170.0
20
140.0
30
0.0
0
VERTEX
8
0
10
170.0
20
144.0
30
0.0
0
VERTEX
8
0
10
511.0
20
144.0
30
0.0
0
VERTEX
8
0
10
511.0
20
-144.0
30
0.0
0
VERTEX
8
0
10
170.0
20
-144.0
30
0.0
0
VERTEX
8
0
10
170.0
20
-140.0
30
0.0
0
VERTEX
8
0
70
0
10
170.0
20
-128.954305
30
0.0
0
VERTEX
8
0
70
0
10
161.045695
20
-120.0
30
0.0
0
VERTEX
8
0
10
150.0
20
-120.0
30
0.0
0
VERTEX
8
0
10
109.960731
20
-120.0
30
0.0
0
VERTEX
8
0
70
0
10
108.910923
20
-146.687066
30
0.0
0
VERTEX
8
0
70
0
10
86.944413
20
-168.0
30
0.0
0
VERTEX
8
0
10
60.0
20
-168.0
30
0.0
0
VERTEX
8
0
10
-234.0
20
-168.0
30
0.0
0
VERTEX
8
0
10
-234.0
20
-188.0
30
0.0
0
VERTEX
8
0
70
0
10
-234.0
20
-190.761424
30
0.0
0
VERTEX
8
0
70
0
10
-236.238576
20
-193.0
30
0.0
0
VERTEX
8
0
10
-239.0
20
-193.0
30
0.0
0
SEQEND
0
ENDSEC
0
EOF
