0
SECTION
2
HEADER
9
$ACADVER
1
AC1009
0
ENDSEC
0
SECTION
2
ENTITIES
0
POLYLINE
5
P
8
0
66
1
70
1
10
0.0
20
0.0
30
0.0
0
VERTEX
8
0
10
-118.9
20
-50.25
30
0.0
0
VERTEX
8
0
10
-118.4
20
-49.75
30
0.0
0
VERTEX
8
0
10
-118.4
20
-30.25
30
0.0
0
VERTEX
8
0
10
-118.9
20
-29.75
30
0.0
0
VERTEX
8
0
10
-121.1
20
-29.75
30
0.0
0
VERTEX
8
0
10
-121.6
20
-30.25
30
0.0
0
VERTEX
8
0
10
-121.6
20
-49.75
30
0.0
0
VERTEX
8
0
10
-121.1
20
-50.25
30
0.0
0
SEQEND
0
POLYLINE
5
P
8
0
66
1
70
1
10
0.0
20
0.0
30
0.0
0
VERTEX
8
0
10
134.1
20
-50.25
30
0.0
0
VERTEX
8
0
10
134.6
20
-49.75
30
0.0
0
VERTEX
8
0
10
134.6
20
-30.25
30
0.0
0
VERTEX
8
0
10
134.1
20
-29.75
30
0.0
0
VERTEX
8
0
10
131.9
20
-29.75
30
0.0
0
VERTEX
8
0
10
131.4
20
-30.25
30
0.0
0
VERTEX
8
0
10
131.4
20
-49.75
30
0.0
0
VERTEX
8
0
10
131.9
20
-50.25
30
0.0
0
SEQEND
0
POLYLINE
5
P
8
0
66
1
70
1
10
0.0
20
0.0
30
0.0
0
VERTEX
8
0
10
-118.9
20
29.75
30
0.0
0
VERTEX
8
0
10
-118.4
20
30.25
30
0.0
0
VERTEX
8
0
10
-118.4
20
49.75
30
0.0
0
VERTEX
8
0
10
-118.9
20
50.25
30
0.0
0
VERTEX
8
0
10
-121.1
20
50.25
30
0.0
0
VERTEX
8
0
10
-121.6
20
49.75
30
0.0
0
VERTEX
8
0
10
-121.6
20
30.25
30
0.0
0
VERTEX
8
0
10
-121.1
20
29.75
30
0.0
0
SEQEND
0
POLYLINE
5
P
8
0
66
1
70
1
10
0.0
20
0.0
30
0.0
0
VERTEX
8
0
10
134.1
20
29.75
30
0.0
0
VERTEX
8
0
10
134.6
20
30.25
30
0.0
0
VERTEX
8
0
10
134.6
20
49.75
30
0.0
0
VERTEX
8
0
10
134.1
20
50.25
30
0.0
0
VERTEX
8
0
10
131.9
20
50.25
30
0.0
0
VERTEX
8
0
10
131.4
20
49.75
30
0.0
0
VERTEX
8
0
10
131.4
20
30.25
30
0.0
0
VERTEX
8
0
10
131.9
20
29.75
30
0.0
0
SEQEND
0
POLYLINE
5
P
8
0
66
1
70
1
10
0.0
20
0.0
30
0.0
0
VERTEX
8
0
10
233.75
20
-60.0
30
0.0
0
VERTEX
8
0
10
236.125
20
-59.5
30
0.0
0
VERTEX
8
0
10
238.1875
20
-58.1875
30
0.0
0
VERTEX
8
0
10
239.5
20
-56.125
30
0.0
0
VERTEX
8
0
10
240.0
20
-53.75
30
0.0
0
VERTEX
8
0
10
240.0
20
53.75
30
0.0
0
VERTEX
8
0
10
239.5
20
56.125
30
0.0
0
VERTEX
8
0
10
238.1875
20
58.1875
30
0.0
0
VERTEX
8
0
10
236.125
20
59.5
30
0.0
0
VERTEX
8
0
10
233.75
20
60.0
30
0.0
0
VERTEX
8
0
10
186.25
20
60.0
30
0.0
0
VERTEX
8
0
10
183.875
20
59.5
30
0.0
0
VERTEX
8
0
10
181.8125
20
58.1875
30
0.0
0
VERTEX
8
0
10
180.5
20
56.125
30
0.0
0
VERTEX
8
0
10
180.0
20
53.75
30
0.0
0
VERTEX
8
0
10
180.0
20
-53.75
30
0.0
0
VERTEX
8
0
10
180.5
20
-56.125
30
0.0
0
VERTEX
8
0
10
181.8125
20
-58.1875
30
0.0
0
VERTEX
8
0
10
183.875
20
-59.5
30
0.0
0
VERTEX
8
0
10
186.25
20
-60.0
30
0.0
0
SEQEND
0
POLYLINE
5
P
8
0
66
1
70
1
10
0.0
20
0.0
30
0.0
0
VERTEX
8
0
10
-252.5
20
-79.0
30
0.0
0
VERTEX
8
0
10
-252.5
20
79.0
30
0.0
0
VERTEX
8
0
10
252.5
20
79.0
30
0.0
0
VERTEX
8
0
10
252.5
20
-79.0
30
0.0
0
SEQEND
0
ENDSEC
0
EOF
