0
SECTION
2
HEADER
9
$ACADVER
1
AC1009
0
ENDSEC
0
SECTION
2
ENTITIES
0
POLYLINE
5
P
8
0
66
1
70
1
10
0.0
20
0.0
30
0.0
0
VERTEX
8
0
10
-118.9
20
-50.25
30
0.0
0
VERTEX
8
0
70
0
10
-118.623858
20
-50.25
30
0.0
0
VERTEX
8
0
70
0
10
-118.4
20
-50.026142
30
0.0
0
VERTEX
8
0
10
-118.4
20
-49.75
30
0.0
0
VERTEX
8
0
10
-118.4
20
-30.25
30
0.0
0
VERTEX
8
0
70
0
10
-118.4
20
-29.973858
30
0.0
0
VERTEX
8
0
70
0
10
-118.623858
20
-29.75
30
0.0
0
VERTEX
8
0
10
-118.9
20
-29.75
30
0.0
0
VERTEX
8
0
10
-121.1
20
-29.75
30
0.0
0
VERTEX
8
0
70
0
10
-121.376142
20
-29.75
30
0.0
0
VERTEX
8
0
70
0
10
-121.6
20
-29.973858
30
0.0
0
VERTEX
8
0
10
-121.6
20
-30.25
30
0.0
0
VERTEX
8
0
10
-121.6
20
-49.75
30
0.0
0
VERTEX
8
0
70
0
10
-121.6
20
-50.026142
30
0.0
0
VERTEX
8
0
70
0
10
-121.376142
20
-50.25
30
0.0
0
VERTEX
8
0
10
-121.1
20
-50.25
30
0.0
0
SEQEND
0
POLYLINE
5
P
8
0
66
1
70
1
10
0.0
20
0.0
30
0.0
0
VERTEX
8
0
10
134.1
20
-50.25
30
0.0
0
VERTEX
8
0
70
0
10
134.376142
20
-50.25
30
0.0
0
VERTEX
8
0
70
0
10
134.6
20
-50.026142
30
0.0
0
VERTEX
8
0
10
134.6
20
-49.75
30
0.0
0
VERTEX
8
0
10
134.6
20
-30.25
30
0.0
0
VERTEX
8
0
70
0
10
134.6
20
-29.973858
30
0.0
0
VERTEX
8
0
70
0
10
134.376142
20
-29.75
30
0.0
0
VERTEX
8
0
10
134.1
20
-29.75
30
0.0
0
VERTEX
8
0
10
131.9
20
-29.75
30
0.0
0
VERTEX
8
0
70
0
10
131.623858
20
-29.75
30
0.0
0
VERTEX
8
0
70
0
10
131.4
20
-29.973858
30
0.0
0
VERTEX
8
0
10
131.4
20
-30.25
30
0.0
0
VERTEX
8
0
10
131.4
20
-49.75
30
0.0
0
VERTEX
8
0
70
0
10
131.4
20
-50.026142
30
0.0
0
VERTEX
8
0
70
0
10
131.623858
20
-50.25
30
0.0
0
VERTEX
8
0
10
131.9
20
-50.25
30
0.0
0
SEQEND
0
POLYLINE
5
P
8
0
66
1
70
1
10
0.0
20
0.0
30
0.0
0
VERTEX
8
0
10
-118.9
20
29.75
30
0.0
0
VERTEX
8
0
70
0
10
-118.623858
20
29.75
30
0.0
0
VERTEX
8
0
70
0
10
-118.4
20
29.973858
30
0.0
0
VERTEX
8
0
10
-118.4
20
30.25
30
0.0
0
VERTEX
8
0
10
-118.4
20
49.75
30
0.0
0
VERTEX
8
0
70
0
10
-118.4
20
50.026142
30
0.0
0
VERTEX
8
0
70
0
10
-118.623858
20
50.25
30
0.0
0
VERTEX
8
0
10
-118.9
20
50.25
30
0.0
0
VERTEX
8
0
10
-121.1
20
50.25
30
0.0
0
VERTEX
8
0
70
0
10
-121.376142
20
50.25
30
0.0
0
VERTEX
8
0
70
0
10
-121.6
20
50.026142
30
0.0
0
VERTEX
8
0
10
-121.6
20
49.75
30
0.0
0
VERTEX
8
0
10
-121.6
20
30.25
30
0.0
0
VERTEX
8
0
70
0
10
-121.6
20
29.973858
30
0.0
0
VERTEX
8
0
70
0
10
-121.376142
20
29.75
30
0.0
0
VERTEX
8
0
10
-121.1
20
29.75
30
0.0
0
SEQEND
0
POLYLINE
5
P
8
0
66
1
70
1
10
0.0
20
0.0
30
0.0
0
VERTEX
8
0
10
134.1
20
29.75
30
0.0
0
VERTEX
8
0
70
0
10
134.376142
20
29.75
30
0.0
0
VERTEX
8
0
70
0
10
134.6
20
29.973858
30
0.0
0
VERTEX
8
0
10
134.6
20
30.25
30
0.0
0
VERTEX
8
0
10
134.6
20
49.75
30
0.0
0
VERTEX
8
0
70
0
10
134.6
20
50.026142
30
0.0
0
VERTEX
8
0
70
0
10
134.376142
20
50.25
30
0.0
0
VERTEX
8
0
10
134.1
20
50.25
30
0.0
0
VERTEX
8
0
10
131.9
20
50.25
30
0.0
0
VERTEX
8
0
70
0
10
131.623858
20
50.25
30
0.0
0
VERTEX
8
0
70
0
10
131.4
20
50.026142
30
0.0
0
VERTEX
8
0
10
131.4
20
49.75
30
0.0
0
VERTEX
8
0
10
131.4
20
30.25
30
0.0
0
VERTEX
8
0
70
0
10
131.4
20
29.973858
30
0.0
0
VERTEX
8
0
70
0
10
131.623858
20
29.75
30
0.0
0
VERTEX
8
0
10
131.9
20
29.75
30
0.0
0
SEQEND
0
POLYLINE
5
P
8
0
66
1
70
1
10
0.0
20
0.0
30
0.0
0
VERTEX
8
0
10
233.75
20
-60.0
30
0.0
0
VERTEX
8
0
70
0
10
237.20178
20
-60.0
30
0.0
0
VERTEX
8
0
70
0
10
240.0
20
-57.20178
30
0.0
0
VERTEX
8
0
10
240.0
20
-53.75
30
0.0
0
VERTEX
8
0
10
240.0
20
53.75
30
0.0
0
VERTEX
8
0
70
0
10
240.0
20
57.20178
30
0.0
0
VERTEX
8
0
70
0
10
237.20178
20
60.0
30
0.0
0
VERTEX
8
0
10
233.75
20
60.0
30
0.0
0
VERTEX
8
0
10
186.25
20
60.0
30
0.0
0
VERTEX
8
0
70
0
10
182.79822
20
60.0
30
0.0
0
VERTEX
8
0
70
0
10
180.0
20
57.20178
30
0.0
0
VERTEX
8
0
10
180.0
20
53.75
30
0.0
0
VERTEX
8
0
10
180.0
20
-53.75
30
0.0
0
VERTEX
8
0
70
0
10
180.0
20
-57.20178
30
0.0
0
VERTEX
8
0
70
0
10
182.79822
20
-60.0
30
0.0
0
VERTEX
8
0
10
186.25
20
-60.0
30
0.0
0
SEQEND
0
POLYLINE
5
P
8
0
66
1
70
1
10
0.0
20
0.0
30
0.0
0
VERTEX
8
0
10
-252.5
20
-79.0
30
0.0
0
VERTEX
8
0
10
-252.5
20
79.0
30
0.0
0
VERTEX
8
0
10
252.5
20
79.0
30
0.0
0
VERTEX
8
0
10
252.5
20
-79.0
30
0.0
0
SEQEND
0
ENDSEC
0
EOF
