0
SECTION
2
HEADER
9
$ACADVER
1
AC1009
0
ENDSEC
0
SECTION
2
ENTITIES
0
POLYLINE
5
P
8
0
66
1
39
3
70
1
10
0.0
20
0.0
30
0.0
0
VERTEX
8
0
10
55.0
20
-51.5
30
0.0
0
VERTEX
8
0
70
0
10
57.761424
20
-51.5
30
0.0
0
VERTEX
8
0
70
0
10
60.0
20
-49.261424
30
0.0
0
VERTEX
8
0
10
60.0
20
-46.5
30
0.0
0
VERTEX
8
0
10
60.0
20
43.5
30
0.0
0
VERTEX
8
0
70
0
10
60.0
20
46.261424
30
0.0
0
VERTEX
8
0
70
0
10
57.761424
20
48.5
30
0.0
0
VERTEX
8
0
10
55.0
20
48.5
30
0.0
0
VERTEX
8
0
10
-55.0
20
48.5
30
0.0
0
VERTEX
8
0
70
0
10
-57.761424
20
48.5
30
0.0
0
VERTEX
8
0
70
0
10
-60.0
20
46.261424
30
0.0
0
VERTEX
8
0
10
-60.0
20
43.5
30
0.0
0
VERTEX
8
0
10
-60.0
20
-46.5
30
0.0
0
VERTEX
8
0
70
0
10
-60.0
20
-49.261424
30
0.0
0
VERTEX
8
0
70
0
10
-57.761424
20
-51.5
30
0.0
0
VERTEX
8
0
10
-55.0
20
-51.5
30
0.0
0
SEQEND
0
POLYLINE
5
P
8
0
66
1
39
3
70
1
10
0.0
20
0.0
30
0.0
0
VERTEX
8
0
10
-79.0
20
-75.0
30
0.0
0
VERTEX
8
0
10
-79.0
20
-60.0
30
0.0
0
VERTEX
8
0
10
-81.5
20
-60.0
30
0.0
0
VERTEX
8
0
70
0
10
-82.052285
20
-60.0
30
0.0
0
VERTEX
8
0
70
0
10
-82.5
20
-59.552285
30
0.0
0
VERTEX
8
0
10
-82.5
20
-59.0
30
0.0
0
VERTEX
8
0
10
-82.5
20
-41.0
30
0.0
0
VERTEX
8
0
70
0
10
-82.5
20
-40.447715
30
0.0
0
VERTEX
8
0
70
0
10
-82.052285
20
-40.0
30
0.0
0
VERTEX
8
0
10
-81.5
20
-40.0
30
0.0
0
VERTEX
8
0
10
-79.0
20
-40.0
30
0.0
0
VERTEX
8
0
10
-79.0
20
-20.0
30
0.0
0
VERTEX
8
0
10
-81.5
20
-20.0
30
0.0
0
VERTEX
8
0
70
0
10
-82.052285
20
-20.0
30
0.0
0
VERTEX
8
0
70
0
10
-82.5
20
-19.552285
30
0.0
0
VERTEX
8
0
10
-82.5
20
-19.0
30
0.0
0
VERTEX
8
0
10
-82.5
20
-1.0
30
0.0
0
VERTEX
8
0
70
0
10
-82.5
20
-0.447715
30
0.0
0
VERTEX
8
0
70
0
10
-82.052285
20
0.0
30
0.0
0
VERTEX
8
0
10
-81.5
20
0.0
30
0.0
0
VERTEX
8
0
10
-79.0
20
0.0
30
0.0
0
VERTEX
8
0
10
-79.0
20
12.265603
30
0.0
0
VERTEX
8
0
10
-136.354353
20
33.14088
30
0.0
0
VERTEX
8
0
70
0
10
-137.537557
20
33.571531
30
0.0
0
VERTEX
8
0
70
0
10
-138.198087
20
34.802543
30
0.0
0
VERTEX
8
0
10
-137.947082
20
36.0
30
0.0
0
VERTEX
8
0
10
-130.0
20
36.0
30
0.0
0
VERTEX
8
0
10
-130.0
20
38.5
30
0.0
0
VERTEX
8
0
70
0
10
-130.0
20
39.052285
30
0.0
0
VERTEX
8
0
70
0
10
-129.552285
20
39.5
30
0.0
0
VERTEX
8
0
10
-129.0
20
39.5
30
0.0
0
VERTEX
8
0
10
-111.0
20
39.5
30
0.0
0
VERTEX
8
0
70
0
10
-110.447715
20
39.5
30
0.0
0
VERTEX
8
0
70
0
10
-110.0
20
39.052285
30
0.0
0
VERTEX
8
0
10
-110.0
20
38.5
30
0.0
0
VERTEX
8
0
10
-110.0
20
36.0
30
0.0
0
VERTEX
8
0
10
-79.0
20
36.0
30
0.0
0
VERTEX
8
0
10
-79.0
20
72.0
30
0.0
0
VERTEX
8
0
10
-50.0
20
72.0
30
0.0
0
VERTEX
8
0
10
-50.0
20
74.5
30
0.0
0
VERTEX
8
0
70
0
10
-50.0
20
75.052285
30
0.0
0
VERTEX
8
0
70
0
10
-49.552285
20
75.5
30
0.0
0
VERTEX
8
0
10
-49.0
20
75.5
30
0.0
0
VERTEX
8
0
10
-31.0
20
75.5
30
0.0
0
VERTEX
8
0
70
0
10
-30.447715
20
75.5
30
0.0
0
VERTEX
8
0
70
0
10
-30.0
20
75.052285
30
0.0
0
VERTEX
8
0
10
-30.0
20
74.5
30
0.0
0
VERTEX
8
0
10
-30.0
20
72.0
30
0.0
0
VERTEX
8
0
10
30.0
20
72.0
30
0.0
0
VERTEX
8
0
10
30.0
20
74.5
30
0.0
0
VERTEX
8
0
70
0
10
30.0
20
75.052285
30
0.0
0
VERTEX
8
0
70
0
10
30.447715
20
75.5
30
0.0
0
VERTEX
8
0
10
31.0
20
75.5
30
0.0
0
VERTEX
8
0
10
49.0
20
75.5
30
0.0
0
VERTEX
8
0
70
0
10
49.552285
20
75.5
30
0.0
0
VERTEX
8
0
70
0
10
50.0
20
75.052285
30
0.0
0
VERTEX
8
0
10
50.0
20
74.5
30
0.0
0
VERTEX
8
0
10
50.0
20
72.0
30
0.0
0
VERTEX
8
0
10
79.0
20
72.0
30
0.0
0
VERTEX
8
0
10
79.0
20
36.0
30
0.0
0
VERTEX
8
0
10
110.0
20
36.0
30
0.0
0
VERTEX
8
0
10
110.0
20
38.5
30
0.0
0
VERTEX
8
0
70
0
10
110.0
20
39.052285
30
0.0
0
VERTEX
8
0
70
0
10
110.447715
20
39.5
30
0.0
0
VERTEX
8
0
10
111.0
20
39.5
30
0.0
0
VERTEX
8
0
10
129.0
20
39.5
30
0.0
0
VERTEX
8
0
70
0
10
129.552285
20
39.5
30
0.0
0
VERTEX
8
0
70
0
10
130.0
20
39.052285
30
0.0
0
VERTEX
8
0
10
130.0
20
38.5
30
0.0
0
VERTEX
8
0
10
130.0
20
36.0
30
0.0
0
VERTEX
8
0
10
137.947082
20
36.0
30
0.0
0
VERTEX
8
0
70
0
10
138.198087
20
34.802543
30
0.0
0
VERTEX
8
0
70
0
10
137.537557
20
33.571531
30
0.0
0
VERTEX
8
0
10
136.354353
20
33.14088
30
0.0
0
VERTEX
8
0
10
79.0
20
12.265603
30
0.0
0
VERTEX
8
0
10
79.0
20
0.0
30
0.0
0
VERTEX
8
0
10
81.5
20
0.0
30
0.0
0
VERTEX
8
0
70
0
10
82.052285
20
0.0
30
0.0
0
VERTEX
8
0
70
0
10
82.5
20
-0.447715
30
0.0
0
VERTEX
8
0
10
82.5
20
-1.0
30
0.0
0
VERTEX
8
0
10
82.5
20
-19.0
30
0.0
0
VERTEX
8
0
70
0
10
82.5
20
-19.552285
30
0.0
0
VERTEX
8
0
70
0
10
82.052285
20
-20.0
30
0.0
0
VERTEX
8
0
10
81.5
20
-20.0
30
0.0
0
VERTEX
8
0
10
79.0
20
-20.0
30
0.0
0
VERTEX
8
0
10
79.0
20
-40.0
30
0.0
0
VERTEX
8
0
10
81.5
20
-40.0
30
0.0
0
VERTEX
8
0
70
0
10
82.052285
20
-40.0
30
0.0
0
VERTEX
8
0
70
0
10
82.5
20
-40.447715
30
0.0
0
VERTEX
8
0
10
82.5
20
-41.0
30
0.0
0
VERTEX
8
0
10
82.5
20
-59.0
30
0.0
0
VERTEX
8
0
70
0
10
82.5
20
-59.552285
30
0.0
0
VERTEX
8
0
70
0
10
82.052285
20
-60.0
30
0.0
0
VERTEX
8
0
10
81.5
20
-60.0
30
0.0
0
VERTEX
8
0
10
79.0
20
-60.0
30
0.0
0
VERTEX
8
0
10
79.0
20
-75.0
30
0.0
0
SEQEND
0
ENDSEC
0
EOF
