0
SECTION
2
HEADER
9
$ACADVER
1
AC1009
0
ENDSEC
0
SECTION
2
ENTITIES
0
POLYLINE
5
P
8
0
66
1
70
1
10
0.0
20
0.0
30
0.0
0
VERTEX
8
0
10
-79.0
20
-75.0
30
0.0
0
VERTEX
8
0
10
-79.0
20
-60.0
30
0.0
0
VERTEX
8
0
10
-81.5
20
-60.0
30
0.0
0
VERTEX
8
0
10
-82.5
20
-59.0
30
0.0
0
VERTEX
8
0
10
-82.5
20
-41.0
30
0.0
0
VERTEX
8
0
10
-81.5
20
-40.0
30
0.0
0
VERTEX
8
0
10
-79.0
20
-40.0
30
0.0
0
VERTEX
8
0
10
-79.0
20
-20.0
30
0.0
0
VERTEX
8
0
10
-81.5
20
-20.0
30
0.0
0
VERTEX
8
0
10
-82.5
20
-19.0
30
0.0
0
VERTEX
8
0
10
-82.5
20
-1.0
30
0.0
0
VERTEX
8
0
10
-81.5
20
0.0
30
0.0
0
VERTEX
8
0
10
-79.0
20
0.0
30
0.0
0
VERTEX
8
0
10
-79.0
20
28.265603
30
0.0
0
VERTEX
8
0
10
-79.0
20
28.265603
30
0.0
0
VERTEX
8
0
10
-136.354353
20
49.14088
30
0.0
0
VERTEX
8
0
10
-137.48519
20
49.970025
30
0.0
0
VERTEX
8
0
10
-137.947082
20
52.0
30
0.0
0
VERTEX
8
0
10
-130.0
20
52.0
30
0.0
0
VERTEX
8
0
10
-130.0
20
54.5
30
0.0
0
VERTEX
8
0
10
-129.0
20
55.5
30
0.0
0
VERTEX
8
0
10
-111.0
20
55.5
30
0.0
0
VERTEX
8
0
10
-110.0
20
54.5
30
0.0
0
VERTEX
8
0
10
-110.0
20
52.0
30
0.0
0
VERTEX
8
0
10
110.0
20
52.0
30
0.0
0
VERTEX
8
0
10
110.0
20
54.5
30
0.0
0
VERTEX
8
0
10
111.0
20
55.5
30
0.0
0
VERTEX
8
0
10
129.0
20
55.5
30
0.0
0
VERTEX
8
0
10
130.0
20
54.5
30
0.0
0
VERTEX
8
0
10
130.0
20
52.0
30
0.0
0
VERTEX
8
0
10
137.947082
20
52.0
30
0.0
0
VERTEX
8
0
10
137.48519
20
49.970025
30
0.0
0
VERTEX
8
0
10
136.354353
20
49.14088
30
0.0
0
VERTEX
8
0
10
79.0
20
28.265603
30
0.0
0
VERTEX
8
0
10
79.0
20
28.265603
30
0.0
0
VERTEX
8
0
10
79.0
20
0.0
30
0.0
0
VERTEX
8
0
10
81.5
20
0.0
30
0.0
0
VERTEX
8
0
10
82.5
20
-1.0
30
0.0
0
VERTEX
8
0
10
82.5
20
-19.0
30
0.0
0
VERTEX
8
0
10
81.5
20
-20.0
30
0.0
0
VERTEX
8
0
10
79.0
20
-20.0
30
0.0
0
VERTEX
8
0
10
79.0
20
-40.0
30
0.0
0
VERTEX
8
0
10
81.5
20
-40.0
30
0.0
0
VERTEX
8
0
10
82.5
20
-41.0
30
0.0
0
VERTEX
8
0
10
82.5
20
-59.0
30
0.0
0
VERTEX
8
0
10
81.5
20
-60.0
30
0.0
0
VERTEX
8
0
10
79.0
20
-60.0
30
0.0
0
VERTEX
8
0
10
79.0
20
-75.0
30
0.0
0
VERTEX
8
0
10
50.0
20
-75.0
30
0.0
0
VERTEX
8
0
10
50.0
20
-11.0
30
0.0
0
VERTEX
8
0
10
49.6
20
-9.1
30
0.0
0
VERTEX
8
0
10
48.55
20
-7.45
30
0.0
0
VERTEX
8
0
10
46.9
20
-6.4
30
0.0
0
VERTEX
8
0
10
45.0
20
-6.0
30
0.0
0
VERTEX
8
0
10
-45.0
20
-6.0
30
0.0
0
VERTEX
8
0
10
-46.9
20
-6.4
30
0.0
0
VERTEX
8
0
10
-48.55
20
-7.45
30
0.0
0
VERTEX
8
0
10
-49.6
20
-9.1
30
0.0
0
VERTEX
8
0
10
-50.0
20
-11.0
30
0.0
0
VERTEX
8
0
10
-50.0
20
-75.0
30
0.0
0
SEQEND
0
ENDSEC
0
EOF
