0
SECTION
2
HEADER
9
$ACADVER
1
AC1009
0
ENDSEC
0
SECTION
2
ENTITIES
0
POLYLINE
5
P
8
0
66
1
70
1
10
0.0
20
0.0
30
0.0
0
VERTEX
8
0
10
-348.0
20
-70.0
30
0.0
0
VERTEX
8
0
10
-346.58
20
-69.42
30
0.0
0
VERTEX
8
0
10
-346.0
20
-68.0
30
0.0
0
VERTEX
8
0
10
-346.58
20
-66.58
30
0.0
0
VERTEX
8
0
10
-348.0
20
-66.0
30
0.0
0
VERTEX
8
0
10
-349.42
20
-66.58
30
0.0
0
VERTEX
8
0
10
-350.0
20
-68.0
30
0.0
0
VERTEX
8
0
10
-349.42
20
-69.42
30
0.0
0
VERTEX
8
0
10
-348.0
20
-70.0
30
0.0
0
SEQEND
0
POLYLINE
5
P
8
0
66
1
70
1
10
0.0
20
0.0
30
0.0
0
VERTEX
8
0
10
-336.0
20
-70.0
30
0.0
0
VERTEX
8
0
10
-334.58
20
-69.42
30
0.0
0
VERTEX
8
0
10
-334.0
20
-68.0
30
0.0
0
VERTEX
8
0
10
-334.58
20
-66.58
30
0.0
0
VERTEX
8
0
10
-336.0
20
-66.0
30
0.0
0
VERTEX
8
0
10
-337.42
20
-66.58
30
0.0
0
VERTEX
8
0
10
-338.0
20
-68.0
30
0.0
0
VERTEX
8
0
10
-337.42
20
-69.42
30
0.0
0
VERTEX
8
0
10
-336.0
20
-70.0
30
0.0
0
SEQEND
0
POLYLINE
5
P
8
0
66
1
70
1
10
0.0
20
0.0
30
0.0
0
VERTEX
8
0
10
-342.0
20
-66.0
30
0.0
0
VERTEX
8
0
10
-339.16
20
-64.84
30
0.0
0
VERTEX
8
0
10
-338.0
20
-62.0
30
0.0
0
VERTEX
8
0
10
-339.16
20
-59.16
30
0.0
0
VERTEX
8
0
10
-342.0
20
-58.0
30
0.0
0
VERTEX
8
0
10
-344.84
20
-59.16
30
0.0
0
VERTEX
8
0
10
-346.0
20
-62.0
30
0.0
0
VERTEX
8
0
10
-344.84
20
-64.84
30
0.0
0
VERTEX
8
0
10
-342.0
20
-66.0
30
0.0
0
SEQEND
0
POLYLINE
5
P
8
0
66
1
70
1
10
0.0
20
0.0
30
0.0
0
VERTEX
8
0
10
-348.0
20
-58.0
30
0.0
0
VERTEX
8
0
10
-346.58
20
-57.42
30
0.0
0
VERTEX
8
0
10
-346.0
20
-56.0
30
0.0
0
VERTEX
8
0
10
-346.58
20
-54.58
30
0.0
0
VERTEX
8
0
10
-348.0
20
-54.0
30
0.0
0
VERTEX
8
0
10
-349.42
20
-54.58
30
0.0
0
VERTEX
8
0
10
-350.0
20
-56.0
30
0.0
0
VERTEX
8
0
10
-349.42
20
-57.42
30
0.0
0
VERTEX
8
0
10
-348.0
20
-58.0
30
0.0
0
SEQEND
0
POLYLINE
5
P
8
0
66
1
70
1
10
0.0
20
0.0
30
0.0
0
VERTEX
8
0
10
-336.0
20
-58.0
30
0.0
0
VERTEX
8
0
10
-334.58
20
-57.42
30
0.0
0
VERTEX
8
0
10
-334.0
20
-56.0
30
0.0
0
VERTEX
8
0
10
-334.58
20
-54.58
30
0.0
0
VERTEX
8
0
10
-336.0
20
-54.0
30
0.0
0
VERTEX
8
0
10
-337.42
20
-54.58
30
0.0
0
VERTEX
8
0
10
-338.0
20
-56.0
30
0.0
0
VERTEX
8
0
10
-337.42
20
-57.42
30
0.0
0
VERTEX
8
0
10
-336.0
20
-58.0
30
0.0
0
SEQEND
0
POLYLINE
5
P
8
0
66
1
70
1
10
0.0
20
0.0
30
0.0
0
VERTEX
8
0
10
-368.9
20
-60.25
30
0.0
0
VERTEX
8
0
10
-368.4
20
-59.75
30
0.0
0
VERTEX
8
0
10
-368.4
20
-40.25
30
0.0
0
VERTEX
8
0
10
-368.9
20
-39.75
30
0.0
0
VERTEX
8
0
10
-371.1
20
-39.75
30
0.0
0
VERTEX
8
0
10
-371.6
20
-40.25
30
0.0
0
VERTEX
8
0
10
-371.6
20
-59.75
30
0.0
0
VERTEX
8
0
10
-371.1
20
-60.25
30
0.0
0
SEQEND
0
POLYLINE
5
P
8
0
66
1
70
1
10
0.0
20
0.0
30
0.0
0
VERTEX
8
0
10
-60.9
20
-60.25
30
0.0
0
VERTEX
8
0
10
-60.4
20
-59.75
30
0.0
0
VERTEX
8
0
10
-60.4
20
-40.25
30
0.0
0
VERTEX
8
0
10
-60.9
20
-39.75
30
0.0
0
VERTEX
8
0
10
-63.1
20
-39.75
30
0.0
0
VERTEX
8
0
10
-63.6
20
-40.25
30
0.0
0
VERTEX
8
0
10
-63.6
20
-59.75
30
0.0
0
VERTEX
8
0
10
-63.1
20
-60.25
30
0.0
0
SEQEND
0
POLYLINE
5
P
8
0
66
1
70
1
10
0.0
20
0.0
30
0.0
0
VERTEX
8
0
10
73.1
20
-60.25
30
0.0
0
VERTEX
8
0
10
73.6
20
-59.75
30
0.0
0
VERTEX
8
0
10
73.6
20
-40.25
30
0.0
0
VERTEX
8
0
10
73.1
20
-39.75
30
0.0
0
VERTEX
8
0
10
70.9
20
-39.75
30
0.0
0
VERTEX
8
0
10
70.4
20
-40.25
30
0.0
0
VERTEX
8
0
10
70.4
20
-59.75
30
0.0
0
VERTEX
8
0
10
70.9
20
-60.25
30
0.0
0
SEQEND
0
POLYLINE
5
P
8
0
66
1
70
1
10
0.0
20
0.0
30
0.0
0
VERTEX
8
0
10
326.1
20
-60.25
30
0.0
0
VERTEX
8
0
10
326.6
20
-59.75
30
0.0
0
VERTEX
8
0
10
326.6
20
-40.25
30
0.0
0
VERTEX
8
0
10
326.1
20
-39.75
30
0.0
0
VERTEX
8
0
10
323.9
20
-39.75
30
0.0
0
VERTEX
8
0
10
323.4
20
-40.25
30
0.0
0
VERTEX
8
0
10
323.4
20
-59.75
30
0.0
0
VERTEX
8
0
10
323.9
20
-60.25
30
0.0
0
SEQEND
0
POLYLINE
5
P
8
0
66
1
70
1
10
0.0
20
0.0
30
0.0
0
VERTEX
8
0
10
447.1
20
-60.25
30
0.0
0
VERTEX
8
0
10
447.6
20
-59.75
30
0.0
0
VERTEX
8
0
10
447.6
20
-40.25
30
0.0
0
VERTEX
8
0
10
447.1
20
-39.75
30
0.0
0
VERTEX
8
0
10
444.9
20
-39.75
30
0.0
0
VERTEX
8
0
10
444.4
20
-40.25
30
0.0
0
VERTEX
8
0
10
444.4
20
-59.75
30
0.0
0
VERTEX
8
0
10
444.9
20
-60.25
30
0.0
0
SEQEND
0
POLYLINE
5
P
8
0
66
1
70
1
10
0.0
20
0.0
30
0.0
0
VERTEX
8
0
10
-95.0
20
-30.0
30
0.0
0
VERTEX
8
0
10
-93.58
20
-29.42
30
0.0
0
VERTEX
8
0
10
-93.0
20
-28.0
30
0.0
0
VERTEX
8
0
10
-93.58
20
-26.58
30
0.0
0
VERTEX
8
0
10
-95.0
20
-26.0
30
0.0
0
VERTEX
8
0
10
-96.42
20
-26.58
30
0.0
0
VERTEX
8
0
10
-97.0
20
-28.0
30
0.0
0
VERTEX
8
0
10
-96.42
20
-29.42
30
0.0
0
VERTEX
8
0
10
-95.0
20
-30.0
30
0.0
0
SEQEND
0
POLYLINE
5
P
8
0
66
1
70
1
10
0.0
20
0.0
30
0.0
0
VERTEX
8
0
10
-83.0
20
-30.0
30
0.0
0
VERTEX
8
0
10
-81.58
20
-29.42
30
0.0
0
VERTEX
8
0
10
-81.0
20
-28.0
30
0.0
0
VERTEX
8
0
10
-81.58
20
-26.58
30
0.0
0
VERTEX
8
0
10
-83.0
20
-26.0
30
0.0
0
VERTEX
8
0
10
-84.42
20
-26.58
30
0.0
0
VERTEX
8
0
10
-85.0
20
-28.0
30
0.0
0
VERTEX
8
0
10
-84.42
20
-29.42
30
0.0
0
VERTEX
8
0
10
-83.0
20
-30.0
30
0.0
0
SEQEND
0
POLYLINE
5
P
8
0
66
1
70
1
10
0.0
20
0.0
30
0.0
0
VERTEX
8
0
10
105.0
20
-30.0
30
0.0
0
VERTEX
8
0
10
106.42
20
-29.42
30
0.0
0
VERTEX
8
0
10
107.0
20
-28.0
30
0.0
0
VERTEX
8
0
10
106.42
20
-26.58
30
0.0
0
VERTEX
8
0
10
105.0
20
-26.0
30
0.0
0
VERTEX
8
0
10
103.58
20
-26.58
30
0.0
0
VERTEX
8
0
10
103.0
20
-28.0
30
0.0
0
VERTEX
8
0
10
103.58
20
-29.42
30
0.0
0
VERTEX
8
0
10
105.0
20
-30.0
30
0.0
0
SEQEND
0
POLYLINE
5
P
8
0
66
1
70
1
10
0.0
20
0.0
30
0.0
0
VERTEX
8
0
10
117.0
20
-30.0
30
0.0
0
VERTEX
8
0
10
118.42
20
-29.42
30
0.0
0
VERTEX
8
0
10
119.0
20
-28.0
30
0.0
0
VERTEX
8
0
10
118.42
20
-26.58
30
0.0
0
VERTEX
8
0
10
117.0
20
-26.0
30
0.0
0
VERTEX
8
0
10
115.58
20
-26.58
30
0.0
0
VERTEX
8
0
10
115.0
20
-28.0
30
0.0
0
VERTEX
8
0
10
115.58
20
-29.42
30
0.0
0
VERTEX
8
0
10
117.0
20
-30.0
30
0.0
0
SEQEND
0
POLYLINE
5
P
8
0
66
1
70
1
10
0.0
20
0.0
30
0.0
0
VERTEX
8
0
10
305.0
20
-30.0
30
0.0
0
VERTEX
8
0
10
306.42
20
-29.42
30
0.0
0
VERTEX
8
0
10
307.0
20
-28.0
30
0.0
0
VERTEX
8
0
10
306.42
20
-26.58
30
0.0
0
VERTEX
8
0
10
305.0
20
-26.0
30
0.0
0
VERTEX
8
0
10
303.58
20
-26.58
30
0.0
0
VERTEX
8
0
10
303.0
20
-28.0
30
0.0
0
VERTEX
8
0
10
303.58
20
-29.42
30
0.0
0
VERTEX
8
0
10
305.0
20
-30.0
30
0.0
0
SEQEND
0
POLYLINE
5
P
8
0
66
1
70
1
10
0.0
20
0.0
30
0.0
0
VERTEX
8
0
10
317.0
20
-30.0
30
0.0
0
VERTEX
8
0
10
318.42
20
-29.42
30
0.0
0
VERTEX
8
0
10
319.0
20
-28.0
30
0.0
0
VERTEX
8
0
10
318.42
20
-26.58
30
0.0
0
VERTEX
8
0
10
317.0
20
-26.0
30
0.0
0
VERTEX
8
0
10
315.58
20
-26.58
30
0.0
0
VERTEX
8
0
10
315.0
20
-28.0
30
0.0
0
VERTEX
8
0
10
315.58
20
-29.42
30
0.0
0
VERTEX
8
0
10
317.0
20
-30.0
30
0.0
0
SEQEND
0
POLYLINE
5
P
8
0
66
1
70
1
10
0.0
20
0.0
30
0.0
0
VERTEX
8
0
10
420.0
20
-55.0
30
0.0
0
VERTEX
8
0
10
423.55
20
-53.55
30
0.0
0
VERTEX
8
0
10
425.0
20
-50.0
30
0.0
0
VERTEX
8
0
10
425.0
20
-26.0
30
0.0
0
VERTEX
8
0
10
423.55
20
-22.45
30
0.0
0
VERTEX
8
0
10
420.0
20
-21.0
30
0.0
0
VERTEX
8
0
10
350.0
20
-21.0
30
0.0
0
VERTEX
8
0
10
346.45
20
-22.45
30
0.0
0
VERTEX
8
0
10
345.0
20
-26.0
30
0.0
0
VERTEX
8
0
10
345.0
20
-50.0
30
0.0
0
VERTEX
8
0
10
346.45
20
-53.55
30
0.0
0
VERTEX
8
0
10
350.0
20
-55.0
30
0.0
0
SEQEND
0
POLYLINE
5
P
8
0
66
1
70
1
10
0.0
20
0.0
30
0.0
0
VERTEX
8
0
10
-89.0
20
-26.0
30
0.0
0
VERTEX
8
0
10
-86.16
20
-24.84
30
0.0
0
VERTEX
8
0
10
-85.0
20
-22.0
30
0.0
0
VERTEX
8
0
10
-86.16
20
-19.16
30
0.0
0
VERTEX
8
0
10
-89.0
20
-18.0
30
0.0
0
VERTEX
8
0
10
-91.84
20
-19.16
30
0.0
0
VERTEX
8
0
10
-93.0
20
-22.0
30
0.0
0
VERTEX
8
0
10
-91.84
20
-24.84
30
0.0
0
VERTEX
8
0
10
-89.0
20
-26.0
30
0.0
0
SEQEND
0
POLYLINE
5
P
8
0
66
1
70
1
10
0.0
20
0.0
30
0.0
0
VERTEX
8
0
10
111.0
20
-26.0
30
0.0
0
VERTEX
8
0
10
113.84
20
-24.84
30
0.0
0
VERTEX
8
0
10
115.0
20
-22.0
30
0.0
0
VERTEX
8
0
10
113.84
20
-19.16
30
0.0
0
VERTEX
8
0
10
111.0
20
-18.0
30
0.0
0
VERTEX
8
0
10
108.16
20
-19.16
30
0.0
0
VERTEX
8
0
10
107.0
20
-22.0
30
0.0
0
VERTEX
8
0
10
108.16
20
-24.84
30
0.0
0
VERTEX
8
0
10
111.0
20
-26.0
30
0.0
0
SEQEND
0
POLYLINE
5
P
8
0
66
1
70
1
10
0.0
20
0.0
30
0.0
0
VERTEX
8
0
10
311.0
20
-26.0
30
0.0
0
VERTEX
8
0
10
313.84
20
-24.84
30
0.0
0
VERTEX
8
0
10
315.0
20
-22.0
30
0.0
0
VERTEX
8
0
10
313.84
20
-19.16
30
0.0
0
VERTEX
8
0
10
311.0
20
-18.0
30
0.0
0
VERTEX
8
0
10
308.16
20
-19.16
30
0.0
0
VERTEX
8
0
10
307.0
20
-22.0
30
0.0
0
VERTEX
8
0
10
308.16
20
-24.84
30
0.0
0
VERTEX
8
0
10
311.0
20
-26.0
30
0.0
0
SEQEND
0
POLYLINE
5
P
8
0
66
1
70
1
10
0.0
20
0.0
30
0.0
0
VERTEX
8
0
10
-95.0
20
-18.0
30
0.0
0
VERTEX
8
0
10
-93.58
20
-17.42
30
0.0
0
VERTEX
8
0
10
-93.0
20
-16.0
30
0.0
0
VERTEX
8
0
10
-93.58
20
-14.58
30
0.0
0
VERTEX
8
0
10
-95.0
20
-14.0
30
0.0
0
VERTEX
8
0
10
-96.42
20
-14.58
30
0.0
0
VERTEX
8
0
10
-97.0
20
-16.0
30
0.0
0
VERTEX
8
0
10
-96.42
20
-17.42
30
0.0
0
VERTEX
8
0
10
-95.0
20
-18.0
30
0.0
0
SEQEND
0
POLYLINE
5
P
8
0
66
1
70
1
10
0.0
20
0.0
30
0.0
0
VERTEX
8
0
10
-83.0
20
-18.0
30
0.0
0
VERTEX
8
0
10
-81.58
20
-17.42
30
0.0
0
VERTEX
8
0
10
-81.0
20
-16.0
30
0.0
0
VERTEX
8
0
10
-81.58
20
-14.58
30
0.0
0
VERTEX
8
0
10
-83.0
20
-14.0
30
0.0
0
VERTEX
8
0
10
-84.42
20
-14.58
30
0.0
0
VERTEX
8
0
10
-85.0
20
-16.0
30
0.0
0
VERTEX
8
0
10
-84.42
20
-17.42
30
0.0
0
VERTEX
8
0
10
-83.0
20
-18.0
30
0.0
0
SEQEND
0
POLYLINE
5
P
8
0
66
1
70
1
10
0.0
20
0.0
30
0.0
0
VERTEX
8
0
10
105.0
20
-18.0
30
0.0
0
VERTEX
8
0
10
106.42
20
-17.42
30
0.0
0
VERTEX
8
0
10
107.0
20
-16.0
30
0.0
0
VERTEX
8
0
10
106.42
20
-14.58
30
0.0
0
VERTEX
8
0
10
105.0
20
-14.0
30
0.0
0
VERTEX
8
0
10
103.58
20
-14.58
30
0.0
0
VERTEX
8
0
10
103.0
20
-16.0
30
0.0
0
VERTEX
8
0
10
103.58
20
-17.42
30
0.0
0
VERTEX
8
0
10
105.0
20
-18.0
30
0.0
0
SEQEND
0
POLYLINE
5
P
8
0
66
1
70
1
10
0.0
20
0.0
30
0.0
0
VERTEX
8
0
10
117.0
20
-18.0
30
0.0
0
VERTEX
8
0
10
118.42
20
-17.42
30
0.0
0
VERTEX
8
0
10
119.0
20
-16.0
30
0.0
0
VERTEX
8
0
10
118.42
20
-14.58
30
0.0
0
VERTEX
8
0
10
117.0
20
-14.0
30
0.0
0
VERTEX
8
0
10
115.58
20
-14.58
30
0.0
0
VERTEX
8
0
10
115.0
20
-16.0
30
0.0
0
VERTEX
8
0
10
115.58
20
-17.42
30
0.0
0
VERTEX
8
0
10
117.0
20
-18.0
30
0.0
0
SEQEND
0
POLYLINE
5
P
8
0
66
1
70
1
10
0.0
20
0.0
30
0.0
0
VERTEX
8
0
10
305.0
20
-18.0
30
0.0
0
VERTEX
8
0
10
306.42
20
-17.42
30
0.0
0
VERTEX
8
0
10
307.0
20
-16.0
30
0.0
0
VERTEX
8
0
10
306.42
20
-14.58
30
0.0
0
VERTEX
8
0
10
305.0
20
-14.0
30
0.0
0
VERTEX
8
0
10
303.58
20
-14.58
30
0.0
0
VERTEX
8
0
10
303.0
20
-16.0
30
0.0
0
VERTEX
8
0
10
303.58
20
-17.42
30
0.0
0
VERTEX
8
0
10
305.0
20
-18.0
30
0.0
0
SEQEND
0
POLYLINE
5
P
8
0
66
1
70
1
10
0.0
20
0.0
30
0.0
0
VERTEX
8
0
10
317.0
20
-18.0
30
0.0
0
VERTEX
8
0
10
318.42
20
-17.42
30
0.0
0
VERTEX
8
0
10
319.0
20
-16.0
30
0.0
0
VERTEX
8
0
10
318.42
20
-14.58
30
0.0
0
VERTEX
8
0
10
317.0
20
-14.0
30
0.0
0
VERTEX
8
0
10
315.58
20
-14.58
30
0.0
0
VERTEX
8
0
10
315.0
20
-16.0
30
0.0
0
VERTEX
8
0
10
315.58
20
-17.42
30
0.0
0
VERTEX
8
0
10
317.0
20
-18.0
30
0.0
0
SEQEND
0
POLYLINE
5
P
8
0
66
1
70
1
10
0.0
20
0.0
30
0.0
0
VERTEX
8
0
10
287.5
20
-37.5
30
0.0
0
VERTEX
8
0
10
291.05
20
-36.05
30
0.0
0
VERTEX
8
0
10
292.5
20
-32.5
30
0.0
0
VERTEX
8
0
10
292.5
20
-17.5
30
0.0
0
VERTEX
8
0
10
291.05
20
-13.95
30
0.0
0
VERTEX
8
0
10
287.5
20
-12.5
30
0.0
0
VERTEX
8
0
10
272.5
20
-12.5
30
0.0
0
VERTEX
8
0
10
268.95
20
-13.95
30
0.0
0
VERTEX
8
0
10
267.5
20
-17.5
30
0.0
0
VERTEX
8
0
10
267.5
20
-32.5
30
0.0
0
VERTEX
8
0
10
268.95
20
-36.05
30
0.0
0
VERTEX
8
0
10
272.5
20
-37.5
30
0.0
0
SEQEND
0
POLYLINE
5
P
8
0
66
1
70
1
10
0.0
20
0.0
30
0.0
0
VERTEX
8
0
10
-368.9
20
-20.25
30
0.0
0
VERTEX
8
0
10
-368.4
20
-19.75
30
0.0
0
VERTEX
8
0
10
-368.4
20
-0.25
30
0.0
0
VERTEX
8
0
10
-368.9
20
0.25
30
0.0
0
VERTEX
8
0
10
-371.1
20
0.25
30
0.0
0
VERTEX
8
0
10
-371.6
20
-0.25
30
0.0
0
VERTEX
8
0
10
-371.6
20
-19.75
30
0.0
0
VERTEX
8
0
10
-371.1
20
-20.25
30
0.0
0
SEQEND
0
POLYLINE
5
P
8
0
66
1
70
1
10
0.0
20
0.0
30
0.0
0
VERTEX
8
0
10
-60.9
20
-20.25
30
0.0
0
VERTEX
8
0
10
-60.4
20
-19.75
30
0.0
0
VERTEX
8
0
10
-60.4
20
-0.25
30
0.0
0
VERTEX
8
0
10
-60.9
20
0.25
30
0.0
0
VERTEX
8
0
10
-63.1
20
0.25
30
0.0
0
VERTEX
8
0
10
-63.6
20
-0.25
30
0.0
0
VERTEX
8
0
10
-63.6
20
-19.75
30
0.0
0
VERTEX
8
0
10
-63.1
20
-20.25
30
0.0
0
SEQEND
0
POLYLINE
5
P
8
0
66
1
70
1
10
0.0
20
0.0
30
0.0
0
VERTEX
8
0
10
73.1
20
-20.25
30
0.0
0
VERTEX
8
0
10
73.6
20
-19.75
30
0.0
0
VERTEX
8
0
10
73.6
20
-0.25
30
0.0
0
VERTEX
8
0
10
73.1
20
0.25
30
0.0
0
VERTEX
8
0
10
70.9
20
0.25
30
0.0
0
VERTEX
8
0
10
70.4
20
-0.25
30
0.0
0
VERTEX
8
0
10
70.4
20
-19.75
30
0.0
0
VERTEX
8
0
10
70.9
20
-20.25
30
0.0
0
SEQEND
0
POLYLINE
5
P
8
0
66
1
70
1
10
0.0
20
0.0
30
0.0
0
VERTEX
8
0
10
326.1
20
-20.25
30
0.0
0
VERTEX
8
0
10
326.6
20
-19.75
30
0.0
0
VERTEX
8
0
10
326.6
20
-0.25
30
0.0
0
VERTEX
8
0
10
326.1
20
0.25
30
0.0
0
VERTEX
8
0
10
323.9
20
0.25
30
0.0
0
VERTEX
8
0
10
323.4
20
-0.25
30
0.0
0
VERTEX
8
0
10
323.4
20
-19.75
30
0.0
0
VERTEX
8
0
10
323.9
20
-20.25
30
0.0
0
SEQEND
0
POLYLINE
5
P
8
0
66
1
70
1
10
0.0
20
0.0
30
0.0
0
VERTEX
8
0
10
447.1
20
-20.25
30
0.0
0
VERTEX
8
0
10
447.6
20
-19.75
30
0.0
0
VERTEX
8
0
10
447.6
20
-0.25
30
0.0
0
VERTEX
8
0
10
447.1
20
0.25
30
0.0
0
VERTEX
8
0
10
444.9
20
0.25
30
0.0
0
VERTEX
8
0
10
444.4
20
-0.25
30
0.0
0
VERTEX
8
0
10
444.4
20
-19.75
30
0.0
0
VERTEX
8
0
10
444.9
20
-20.25
30
0.0
0
SEQEND
0
POLYLINE
5
P
8
0
66
1
70
1
10
0.0
20
0.0
30
0.0
0
VERTEX
8
0
10
-297.5
20
10.0
30
0.0
0
VERTEX
8
0
10
-292.175
20
12.175
30
0.0
0
VERTEX
8
0
10
-290.0
20
17.5
30
0.0
0
VERTEX
8
0
10
-290.0
20
32.5
30
0.0
0
VERTEX
8
0
10
-292.175
20
37.825
30
0.0
0
VERTEX
8
0
10
-297.5
20
40.0
30
0.0
0
VERTEX
8
0
10
-342.5
20
40.0
30
0.0
0
VERTEX
8
0
10
-347.825
20
37.825
30
0.0
0
VERTEX
8
0
10
-350.0
20
32.5
30
0.0
0
VERTEX
8
0
10
-350.0
20
17.5
30
0.0
0
VERTEX
8
0
10
-347.825
20
12.175
30
0.0
0
VERTEX
8
0
10
-342.5
20
10.0
30
0.0
0
SEQEND
0
POLYLINE
5
P
8
0
66
1
70
1
10
0.0
20
0.0
30
0.0
0
VERTEX
8
0
10
-242.5
20
10.0
30
0.0
0
VERTEX
8
0
10
-237.175
20
12.175
30
0.0
0
VERTEX
8
0
10
-235.0
20
17.5
30
0.0
0
VERTEX
8
0
10
-235.0
20
32.5
30
0.0
0
VERTEX
8
0
10
-237.175
20
37.825
30
0.0
0
VERTEX
8
0
10
-242.5
20
40.0
30
0.0
0
VERTEX
8
0
10
-257.5
20
40.0
30
0.0
0
VERTEX
8
0
10
-262.825
20
37.825
30
0.0
0
VERTEX
8
0
10
-265.0
20
32.5
30
0.0
0
VERTEX
8
0
10
-265.0
20
17.5
30
0.0
0
VERTEX
8
0
10
-262.825
20
12.175
30
0.0
0
VERTEX
8
0
10
-257.5
20
10.0
30
0.0
0
SEQEND
0
POLYLINE
5
P
8
0
66
1
70
1
10
0.0
20
0.0
30
0.0
0
VERTEX
8
0
10
-92.5
20
0.0
30
0.0
0
VERTEX
8
0
10
-87.175
20
2.175
30
0.0
0
VERTEX
8
0
10
-85.0
20
7.5
30
0.0
0
VERTEX
8
0
10
-85.0
20
32.5
30
0.0
0
VERTEX
8
0
10
-87.175
20
37.825
30
0.0
0
VERTEX
8
0
10
-92.5
20
40.0
30
0.0
0
VERTEX
8
0
10
-127.5
20
40.0
30
0.0
0
VERTEX
8
0
10
-132.825
20
37.825
30
0.0
0
VERTEX
8
0
10
-135.0
20
32.5
30
0.0
0
VERTEX
8
0
10
-135.0
20
7.5
30
0.0
0
VERTEX
8
0
10
-132.825
20
2.175
30
0.0
0
VERTEX
8
0
10
-127.5
20
0.0
30
0.0
0
SEQEND
0
POLYLINE
5
P
8
0
66
1
70
1
10
0.0
20
0.0
30
0.0
0
VERTEX
8
0
10
-60.9
20
17.75
30
0.0
0
VERTEX
8
0
10
-60.4
20
18.25
30
0.0
0
VERTEX
8
0
10
-60.4
20
51.75
30
0.0
0
VERTEX
8
0
10
-60.9
20
52.25
30
0.0
0
VERTEX
8
0
10
-63.1
20
52.25
30
0.0
0
VERTEX
8
0
10
-63.6
20
51.75
30
0.0
0
VERTEX
8
0
10
-63.6
20
18.25
30
0.0
0
VERTEX
8
0
10
-63.1
20
17.75
30
0.0
0
SEQEND
0
POLYLINE
5
P
8
0
66
1
70
1
10
0.0
20
0.0
30
0.0
0
VERTEX
8
0
10
73.1
20
17.75
30
0.0
0
VERTEX
8
0
10
73.6
20
18.25
30
0.0
0
VERTEX
8
0
10
73.6
20
51.75
30
0.0
0
VERTEX
8
0
10
73.1
20
52.25
30
0.0
0
VERTEX
8
0
10
70.9
20
52.25
30
0.0
0
VERTEX
8
0
10
70.4
20
51.75
30
0.0
0
VERTEX
8
0
10
70.4
20
18.25
30
0.0
0
VERTEX
8
0
10
70.9
20
17.75
30
0.0
0
SEQEND
0
POLYLINE
5
P
8
0
66
1
70
1
10
0.0
20
0.0
30
0.0
0
VERTEX
8
0
10
326.1
20
17.75
30
0.0
0
VERTEX
8
0
10
326.6
20
18.25
30
0.0
0
VERTEX
8
0
10
326.6
20
51.75
30
0.0
0
VERTEX
8
0
10
326.1
20
52.25
30
0.0
0
VERTEX
8
0
10
323.9
20
52.25
30
0.0
0
VERTEX
8
0
10
323.4
20
51.75
30
0.0
0
VERTEX
8
0
10
323.4
20
18.25
30
0.0
0
VERTEX
8
0
10
323.9
20
17.75
30
0.0
0
SEQEND
0
POLYLINE
5
P
8
0
66
1
70
1
10
0.0
20
0.0
30
0.0
0
VERTEX
8
0
10
447.1
20
17.75
30
0.0
0
VERTEX
8
0
10
447.6
20
18.25
30
0.0
0
VERTEX
8
0
10
447.6
20
51.75
30
0.0
0
VERTEX
8
0
10
447.1
20
52.25
30
0.0
0
VERTEX
8
0
10
444.9
20
52.25
30
0.0
0
VERTEX
8
0
10
444.4
20
51.75
30
0.0
0
VERTEX
8
0
10
444.4
20
18.25
30
0.0
0
VERTEX
8
0
10
444.9
20
17.75
30
0.0
0
SEQEND
0
POLYLINE
5
P
8
0
66
1
70
1
10
0.0
20
0.0
30
0.0
0
VERTEX
8
0
10
-380.0
20
-75.0
30
0.0
0
VERTEX
8
0
10
-380.0
20
-42.0
30
0.0
0
VERTEX
8
0
10
-384.715494
20
-25.364816
30
0.0
0
VERTEX
8
0
10
-396.260325
20
-18.570164
30
0.0
0
VERTEX
8
0
10
-396.260317
20
-18.570164
30
0.0
0
VERTEX
8
0
10
-401.374294
20
-17.863284
30
0.0
0
VERTEX
8
0
10
-403.463102
20
-16.132647
30
0.0
0
VERTEX
8
0
10
-511.0
20
2.829009
30
0.0
0
VERTEX
8
0
10
-511.0
20
51.875
30
0.0
0
VERTEX
8
0
10
-480.0
20
51.875
30
0.0
0
VERTEX
8
0
10
-480.0
20
54.5
30
0.0
0
VERTEX
8
0
10
-479.0
20
55.5
30
0.0
0
VERTEX
8
0
10
-461.0
20
55.5
30
0.0
0
VERTEX
8
0
10
-460.0
20
54.5
30
0.0
0
VERTEX
8
0
10
-460.0
20
51.875
30
0.0
0
VERTEX
8
0
10
-371.584248
20
51.875
30
0.0
0
VERTEX
8
0
10
-371.6
20
51.75
30
0.0
0
VERTEX
8
0
10
-371.6
20
18.25
30
0.0
0
VERTEX
8
0
10
-371.1
20
17.75
30
0.0
0
VERTEX
8
0
10
-368.9
20
17.75
30
0.0
0
VERTEX
8
0
10
-368.4
20
18.25
30
0.0
0
VERTEX
8
0
10
-368.4
20
51.75
30
0.0
0
VERTEX
8
0
10
-368.415752
20
51.875
30
0.0
0
VERTEX
8
0
10
-297.0
20
51.875
30
0.0
0
VERTEX
8
0
10
-297.0
20
55.0
30
0.0
0
VERTEX
8
0
10
-83.25
20
55.0
30
0.0
0
VERTEX
8
0
10
-78.8125
20
56.8125
30
0.0
0
VERTEX
8
0
10
-77.0
20
61.25
30
0.0
0
VERTEX
8
0
10
-77.0
20
75.0
30
0.0
0
VERTEX
8
0
10
448.0
20
75.0
30
0.0
0
VERTEX
8
0
10
448.0
20
67.5
30
0.0
0
VERTEX
8
0
10
451.625
20
58.625
30
0.0
0
VERTEX
8
0
10
460.5
20
55.0
30
0.0
0
VERTEX
8
0
10
461.0
20
55.0
30
0.0
0
VERTEX
8
0
10
461.0
20
51.875
30
0.0
0
VERTEX
8
0
10
511.0
20
51.875
30
0.0
0
VERTEX
8
0
10
511.0
20
-2.0
30
0.0
0
VERTEX
8
0
10
489.0
20
-2.0
30
0.0
0
VERTEX
8
0
10
471.25
20
-9.25
30
0.0
0
VERTEX
8
0
10
464.0
20
-27.0
30
0.0
0
VERTEX
8
0
10
464.0
20
-75.0
30
0.0
0
VERTEX
8
0
10
247.0
20
-75.0
30
0.0
0
VERTEX
8
0
10
247.0
20
-5.0
30
0.0
0
VERTEX
8
0
10
246.0
20
-4.0
30
0.0
0
VERTEX
8
0
10
188.0
20
-4.0
30
0.0
0
VERTEX
8
0
10
187.0
20
-5.0
30
0.0
0
VERTEX
8
0
10
187.0
20
-75.0
30
0.0
0
VERTEX
8
0
10
47.0
20
-75.0
30
0.0
0
VERTEX
8
0
10
47.0
20
-5.0
30
0.0
0
VERTEX
8
0
10
46.0
20
-4.0
30
0.0
0
VERTEX
8
0
10
-12.0
20
-4.0
30
0.0
0
VERTEX
8
0
10
-13.0
20
-5.0
30
0.0
0
VERTEX
8
0
10
-13.0
20
-75.0
30
0.0
0
VERTEX
8
0
10
-153.0
20
-75.0
30
0.0
0
VERTEX
8
0
10
-153.0
20
-5.0
30
0.0
0
VERTEX
8
0
10
-154.0
20
-4.0
30
0.0
0
VERTEX
8
0
10
-212.0
20
-4.0
30
0.0
0
VERTEX
8
0
10
-213.0
20
-5.0
30
0.0
0
VERTEX
8
0
10
-213.0
20
-75.0
30
0.0
0
VERTEX
8
0
10
-252.5
20
-75.0
30
0.0
0
VERTEX
8
0
10
-252.5
20
-43.5
30
0.0
0
VERTEX
8
0
10
-256.125
20
-34.625
30
0.0
0
VERTEX
8
0
10
-265.0
20
-31.0
30
0.0
0
VERTEX
8
0
10
-315.0
20
-31.0
30
0.0
0
VERTEX
8
0
10
-323.875
20
-34.625
30
0.0
0
VERTEX
8
0
10
-327.5
20
-43.5
30
0.0
0
VERTEX
8
0
10
-327.5
20
-75.0
30
0.0
0
SEQEND
0
ENDSEC
0
EOF
