0
SECTION
2
HEADER
9
$ACADVER
1
AC1009
0
ENDSEC
0
SECTION
2
ENTITIES
0
POLYLINE
5
P
8
0
66
1
39
3
70
1
10
0.0
20
0.0
30
0.0
0
VERTEX
8
0
10
-73.9
20
-52.25
30
0.0
0
VERTEX
8
0
70
0
10
-73.623858
20
-52.25
30
0.0
0
VERTEX
8
0
70
0
10
-73.4
20
-52.026142
30
0.0
0
VERTEX
8
0
10
-73.4
20
-51.75
30
0.0
0
VERTEX
8
0
10
-73.4
20
-18.25
30
0.0
0
VERTEX
8
0
70
0
10
-73.4
20
-17.973858
30
0.0
0
VERTEX
8
0
70
0
10
-73.623858
20
-17.75
30
0.0
0
VERTEX
8
0
10
-73.9
20
-17.75
30
0.0
0
VERTEX
8
0
10
-76.1
20
-17.75
30
0.0
0
VERTEX
8
0
70
0
10
-76.376142
20
-17.75
30
0.0
0
VERTEX
8
0
70
0
10
-76.6
20
-17.973858
30
0.0
0
VERTEX
8
0
10
-76.6
20
-18.25
30
0.0
0
VERTEX
8
0
10
-76.6
20
-51.75
30
0.0
0
VERTEX
8
0
70
0
10
-76.6
20
-52.026142
30
0.0
0
VERTEX
8
0
70
0
10
-76.376142
20
-52.25
30
0.0
0
VERTEX
8
0
10
-76.1
20
-52.25
30
0.0
0
SEQEND
0
POLYLINE
5
P
8
0
66
1
39
3
70
1
10
0.0
20
0.0
30
0.0
0
VERTEX
8
0
10
156.1
20
-52.25
30
0.0
0
VERTEX
8
0
70
0
10
156.376142
20
-52.25
30
0.0
0
VERTEX
8
0
70
0
10
156.6
20
-52.026142
30
0.0
0
VERTEX
8
0
10
156.6
20
-51.75
30
0.0
0
VERTEX
8
0
10
156.6
20
-18.25
30
0.0
0
VERTEX
8
0
70
0
10
156.6
20
-17.973858
30
0.0
0
VERTEX
8
0
70
0
10
156.376142
20
-17.75
30
0.0
0
VERTEX
8
0
10
156.1
20
-17.75
30
0.0
0
VERTEX
8
0
10
153.9
20
-17.75
30
0.0
0
VERTEX
8
0
70
0
10
153.623858
20
-17.75
30
0.0
0
VERTEX
8
0
70
0
10
153.4
20
-17.973858
30
0.0
0
VERTEX
8
0
10
153.4
20
-18.25
30
0.0
0
VERTEX
8
0
10
153.4
20
-51.75
30
0.0
0
VERTEX
8
0
70
0
10
153.4
20
-52.026142
30
0.0
0
VERTEX
8
0
70
0
10
153.623858
20
-52.25
30
0.0
0
VERTEX
8
0
10
153.9
20
-52.25
30
0.0
0
SEQEND
0
POLYLINE
5
P
8
0
66
1
39
3
70
1
10
0.0
20
0.0
30
0.0
0
VERTEX
8
0
10
326.1
20
-52.25
30
0.0
0
VERTEX
8
0
70
0
10
326.376142
20
-52.25
30
0.0
0
VERTEX
8
0
70
0
10
326.6
20
-52.026142
30
0.0
0
VERTEX
8
0
10
326.6
20
-51.75
30
0.0
0
VERTEX
8
0
10
326.6
20
-18.25
30
0.0
0
VERTEX
8
0
70
0
10
326.6
20
-17.973858
30
0.0
0
VERTEX
8
0
70
0
10
326.376142
20
-17.75
30
0.0
0
VERTEX
8
0
10
326.1
20
-17.75
30
0.0
0
VERTEX
8
0
10
323.9
20
-17.75
30
0.0
0
VERTEX
8
0
70
0
10
323.623858
20
-17.75
30
0.0
0
VERTEX
8
0
70
0
10
323.4
20
-17.973858
30
0.0
0
VERTEX
8
0
10
323.4
20
-18.25
30
0.0
0
VERTEX
8
0
10
323.4
20
-51.75
30
0.0
0
VERTEX
8
0
70
0
10
323.4
20
-52.026142
30
0.0
0
VERTEX
8
0
70
0
10
323.623858
20
-52.25
30
0.0
0
VERTEX
8
0
10
323.9
20
-52.25
30
0.0
0
SEQEND
0
POLYLINE
5
P
8
0
66
1
39
3
70
1
10
0.0
20
0.0
30
0.0
0
VERTEX
8
0
10
427.1
20
-52.25
30
0.0
0
VERTEX
8
0
70
0
10
427.376142
20
-52.25
30
0.0
0
VERTEX
8
0
70
0
10
427.6
20
-52.026142
30
0.0
0
VERTEX
8
0
10
427.6
20
-51.75
30
0.0
0
VERTEX
8
0
10
427.6
20
-18.25
30
0.0
0
VERTEX
8
0
70
0
10
427.6
20
-17.973858
30
0.0
0
VERTEX
8
0
70
0
10
427.376142
20
-17.75
30
0.0
0
VERTEX
8
0
10
427.1
20
-17.75
30
0.0
0
VERTEX
8
0
10
424.9
20
-17.75
30
0.0
0
VERTEX
8
0
70
0
10
424.623858
20
-17.75
30
0.0
0
VERTEX
8
0
70
0
10
424.4
20
-17.973858
30
0.0
0
VERTEX
8
0
10
424.4
20
-18.25
30
0.0
0
VERTEX
8
0
10
424.4
20
-51.75
30
0.0
0
VERTEX
8
0
70
0
10
424.4
20
-52.026142
30
0.0
0
VERTEX
8
0
70
0
10
424.623858
20
-52.25
30
0.0
0
VERTEX
8
0
10
424.9
20
-52.25
30
0.0
0
SEQEND
0
POLYLINE
5
P
8
0
66
1
39
3
70
1
10
0.0
20
0.0
30
0.0
0
VERTEX
8
0
10
-287.5
20
-40.0
30
0.0
0
VERTEX
8
0
70
0
10
-283.357864
20
-40.0
30
0.0
0
VERTEX
8
0
70
0
10
-280.0
20
-36.642136
30
0.0
0
VERTEX
8
0
10
-280.0
20
-32.5
30
0.0
0
VERTEX
8
0
10
-280.0
20
-17.5
30
0.0
0
VERTEX
8
0
70
0
10
-280.0
20
-13.357864
30
0.0
0
VERTEX
8
0
70
0
10
-283.357864
20
-10.0
30
0.0
0
VERTEX
8
0
10
-287.5
20
-10.0
30
0.0
0
VERTEX
8
0
10
-352.5
20
-10.0
30
0.0
0
VERTEX
8
0
70
0
10
-356.642136
20
-10.0
30
0.0
0
VERTEX
8
0
70
0
10
-360.0
20
-13.357864
30
0.0
0
VERTEX
8
0
10
-360.0
20
-17.5
30
0.0
0
VERTEX
8
0
10
-360.0
20
-32.5
30
0.0
0
VERTEX
8
0
70
0
10
-360.0
20
-36.642136
30
0.0
0
VERTEX
8
0
70
0
10
-356.642136
20
-40.0
30
0.0
0
VERTEX
8
0
10
-352.5
20
-40.0
30
0.0
0
SEQEND
0
POLYLINE
5
P
8
0
66
1
39
3
70
1
10
0.0
20
0.0
30
0.0
0
VERTEX
8
0
10
-242.5
20
-40.0
30
0.0
0
VERTEX
8
0
70
0
10
-238.357864
20
-40.0
30
0.0
0
VERTEX
8
0
70
0
10
-235.0
20
-36.642136
30
0.0
0
VERTEX
8
0
10
-235.0
20
-32.5
30
0.0
0
VERTEX
8
0
10
-235.0
20
-17.5
30
0.0
0
VERTEX
8
0
70
0
10
-235.0
20
-13.357864
30
0.0
0
VERTEX
8
0
70
0
10
-238.357864
20
-10.0
30
0.0
0
VERTEX
8
0
10
-242.5
20
-10.0
30
0.0
0
VERTEX
8
0
10
-257.5
20
-10.0
30
0.0
0
VERTEX
8
0
70
0
10
-261.642136
20
-10.0
30
0.0
0
VERTEX
8
0
70
0
10
-265.0
20
-13.357864
30
0.0
0
VERTEX
8
0
10
-265.0
20
-17.5
30
0.0
0
VERTEX
8
0
10
-265.0
20
-32.5
30
0.0
0
VERTEX
8
0
70
0
10
-265.0
20
-36.642136
30
0.0
0
VERTEX
8
0
70
0
10
-261.642136
20
-40.0
30
0.0
0
VERTEX
8
0
10
-257.5
20
-40.0
30
0.0
0
SEQEND
0
POLYLINE
5
P
8
0
66
1
39
3
70
1
10
0.0
20
0.0
30
0.0
0
VERTEX
8
0
10
-87.5
20
-40.0
30
0.0
0
VERTEX
8
0
70
0
10
-83.357864
20
-40.0
30
0.0
0
VERTEX
8
0
70
0
10
-80.0
20
-36.642136
30
0.0
0
VERTEX
8
0
10
-80.0
20
-32.5
30
0.0
0
VERTEX
8
0
10
-80.0
20
-7.5
30
0.0
0
VERTEX
8
0
70
0
10
-80.0
20
-3.357864
30
0.0
0
VERTEX
8
0
70
0
10
-83.357864
20
0.0
30
0.0
0
VERTEX
8
0
10
-87.5
20
0.0
30
0.0
0
VERTEX
8
0
10
-122.5
20
0.0
30
0.0
0
VERTEX
8
0
70
0
10
-126.642136
20
0.0
30
0.0
0
VERTEX
8
0
70
0
10
-130.0
20
-3.357864
30
0.0
0
VERTEX
8
0
10
-130.0
20
-7.5
30
0.0
0
VERTEX
8
0
10
-130.0
20
-32.5
30
0.0
0
VERTEX
8
0
70
0
10
-130.0
20
-36.642136
30
0.0
0
VERTEX
8
0
70
0
10
-126.642136
20
-40.0
30
0.0
0
VERTEX
8
0
10
-122.5
20
-40.0
30
0.0
0
SEQEND
0
POLYLINE
5
P
8
0
66
1
39
3
70
1
10
0.0
20
0.0
30
0.0
0
VERTEX
8
0
10
-97.0
20
14.0
30
0.0
0
VERTEX
8
0
70
0
10
-95.895431
20
14.0
30
0.0
0
VERTEX
8
0
70
0
10
-95.0
20
14.895431
30
0.0
0
VERTEX
8
0
10
-95.0
20
16.0
30
0.0
0
VERTEX
8
0
70
0
10
-95.0
20
17.104569
30
0.0
0
VERTEX
8
0
70
0
10
-95.895431
20
18.0
30
0.0
0
VERTEX
8
0
10
-97.0
20
18.0
30
0.0
0
VERTEX
8
0
70
0
10
-98.104569
20
18.0
30
0.0
0
VERTEX
8
0
70
0
10
-99.0
20
17.104569
30
0.0
0
VERTEX
8
0
10
-99.0
20
16.0
30
0.0
0
VERTEX
8
0
70
0
10
-99.0
20
14.895431
30
0.0
0
VERTEX
8
0
70
0
10
-98.104569
20
14.0
30
0.0
0
VERTEX
8
0
10
-97.0
20
14.0
30
0.0
0
SEQEND
0
POLYLINE
5
P
8
0
66
1
39
3
70
1
10
0.0
20
0.0
30
0.0
0
VERTEX
8
0
10
-85.0
20
14.0
30
0.0
0
VERTEX
8
0
70
0
10
-83.895431
20
14.0
30
0.0
0
VERTEX
8
0
70
0
10
-83.0
20
14.895431
30
0.0
0
VERTEX
8
0
10
-83.0
20
16.0
30
0.0
0
VERTEX
8
0
70
0
10
-83.0
20
17.104569
30
0.0
0
VERTEX
8
0
70
0
10
-83.895431
20
18.0
30
0.0
0
VERTEX
8
0
10
-85.0
20
18.0
30
0.0
0
VERTEX
8
0
70
0
10
-86.104569
20
18.0
30
0.0
0
VERTEX
8
0
70
0
10
-87.0
20
17.104569
30
0.0
0
VERTEX
8
0
10
-87.0
20
16.0
30
0.0
0
VERTEX
8
0
70
0
10
-87.0
20
14.895431
30
0.0
0
VERTEX
8
0
70
0
10
-86.104569
20
14.0
30
0.0
0
VERTEX
8
0
10
-85.0
20
14.0
30
0.0
0
SEQEND
0
POLYLINE
5
P
8
0
66
1
39
3
70
1
10
0.0
20
0.0
30
0.0
0
VERTEX
8
0
10
103.0
20
14.0
30
0.0
0
VERTEX
8
0
70
0
10
104.104569
20
14.0
30
0.0
0
VERTEX
8
0
70
0
10
105.0
20
14.895431
30
0.0
0
VERTEX
8
0
10
105.0
20
16.0
30
0.0
0
VERTEX
8
0
70
0
10
105.0
20
17.104569
30
0.0
0
VERTEX
8
0
70
0
10
104.104569
20
18.0
30
0.0
0
VERTEX
8
0
10
103.0
20
18.0
30
0.0
0
VERTEX
8
0
70
0
10
101.895431
20
18.0
30
0.0
0
VERTEX
8
0
70
0
10
101.0
20
17.104569
30
0.0
0
VERTEX
8
0
10
101.0
20
16.0
30
0.0
0
VERTEX
8
0
70
0
10
101.0
20
14.895431
30
0.0
0
VERTEX
8
0
70
0
10
101.895431
20
14.0
30
0.0
0
VERTEX
8
0
10
103.0
20
14.0
30
0.0
0
SEQEND
0
POLYLINE
5
P
8
0
66
1
39
3
70
1
10
0.0
20
0.0
30
0.0
0
VERTEX
8
0
10
115.0
20
14.0
30
0.0
0
VERTEX
8
0
70
0
10
116.104569
20
14.0
30
0.0
0
VERTEX
8
0
70
0
10
117.0
20
14.895431
30
0.0
0
VERTEX
8
0
10
117.0
20
16.0
30
0.0
0
VERTEX
8
0
70
0
10
117.0
20
17.104569
30
0.0
0
VERTEX
8
0
70
0
10
116.104569
20
18.0
30
0.0
0
VERTEX
8
0
10
115.0
20
18.0
30
0.0
0
VERTEX
8
0
70
0
10
113.895431
20
18.0
30
0.0
0
VERTEX
8
0
70
0
10
113.0
20
17.104569
30
0.0
0
VERTEX
8
0
10
113.0
20
16.0
30
0.0
0
VERTEX
8
0
70
0
10
113.0
20
14.895431
30
0.0
0
VERTEX
8
0
70
0
10
113.895431
20
14.0
30
0.0
0
VERTEX
8
0
10
115.0
20
14.0
30
0.0
0
SEQEND
0
POLYLINE
5
P
8
0
66
1
39
3
70
1
10
0.0
20
0.0
30
0.0
0
VERTEX
8
0
10
303.0
20
14.0
30
0.0
0
VERTEX
8
0
70
0
10
304.104569
20
14.0
30
0.0
0
VERTEX
8
0
70
0
10
305.0
20
14.895431
30
0.0
0
VERTEX
8
0
10
305.0
20
16.0
30
0.0
0
VERTEX
8
0
70
0
10
305.0
20
17.104569
30
0.0
0
VERTEX
8
0
70
0
10
304.104569
20
18.0
30
0.0
0
VERTEX
8
0
10
303.0
20
18.0
30
0.0
0
VERTEX
8
0
70
0
10
301.895431
20
18.0
30
0.0
0
VERTEX
8
0
70
0
10
301.0
20
17.104569
30
0.0
0
VERTEX
8
0
10
301.0
20
16.0
30
0.0
0
VERTEX
8
0
70
0
10
301.0
20
14.895431
30
0.0
0
VERTEX
8
0
70
0
10
301.895431
20
14.0
30
0.0
0
VERTEX
8
0
10
303.0
20
14.0
30
0.0
0
SEQEND
0
POLYLINE
5
P
8
0
66
1
39
3
70
1
10
0.0
20
0.0
30
0.0
0
VERTEX
8
0
10
315.0
20
14.0
30
0.0
0
VERTEX
8
0
70
0
10
316.104569
20
14.0
30
0.0
0
VERTEX
8
0
70
0
10
317.0
20
14.895431
30
0.0
0
VERTEX
8
0
10
317.0
20
16.0
30
0.0
0
VERTEX
8
0
70
0
10
317.0
20
17.104569
30
0.0
0
VERTEX
8
0
70
0
10
316.104569
20
18.0
30
0.0
0
VERTEX
8
0
10
315.0
20
18.0
30
0.0
0
VERTEX
8
0
70
0
10
313.895431
20
18.0
30
0.0
0
VERTEX
8
0
70
0
10
313.0
20
17.104569
30
0.0
0
VERTEX
8
0
10
313.0
20
16.0
30
0.0
0
VERTEX
8
0
70
0
10
313.0
20
14.895431
30
0.0
0
VERTEX
8
0
70
0
10
313.895431
20
14.0
30
0.0
0
VERTEX
8
0
10
315.0
20
14.0
30
0.0
0
SEQEND
0
POLYLINE
5
P
8
0
66
1
39
3
70
1
10
0.0
20
0.0
30
0.0
0
VERTEX
8
0
10
-368.9
20
-0.25
30
0.0
0
VERTEX
8
0
70
0
10
-368.623858
20
-0.25
30
0.0
0
VERTEX
8
0
70
0
10
-368.4
20
-0.026142
30
0.0
0
VERTEX
8
0
10
-368.4
20
0.25
30
0.0
0
VERTEX
8
0
10
-368.4
20
19.75
30
0.0
0
VERTEX
8
0
70
0
10
-368.4
20
20.026142
30
0.0
0
VERTEX
8
0
70
0
10
-368.623858
20
20.25
30
0.0
0
VERTEX
8
0
10
-368.9
20
20.25
30
0.0
0
VERTEX
8
0
10
-371.1
20
20.25
30
0.0
0
VERTEX
8
0
70
0
10
-371.376142
20
20.25
30
0.0
0
VERTEX
8
0
70
0
10
-371.6
20
20.026142
30
0.0
0
VERTEX
8
0
10
-371.6
20
19.75
30
0.0
0
VERTEX
8
0
10
-371.6
20
0.25
30
0.0
0
VERTEX
8
0
70
0
10
-371.6
20
-0.026142
30
0.0
0
VERTEX
8
0
70
0
10
-371.376142
20
-0.25
30
0.0
0
VERTEX
8
0
10
-371.1
20
-0.25
30
0.0
0
SEQEND
0
POLYLINE
5
P
8
0
66
1
39
3
70
1
10
0.0
20
0.0
30
0.0
0
VERTEX
8
0
10
-73.9
20
-0.25
30
0.0
0
VERTEX
8
0
70
0
10
-73.623858
20
-0.25
30
0.0
0
VERTEX
8
0
70
0
10
-73.4
20
-0.026142
30
0.0
0
VERTEX
8
0
10
-73.4
20
0.25
30
0.0
0
VERTEX
8
0
10
-73.4
20
19.75
30
0.0
0
VERTEX
8
0
70
0
10
-73.4
20
20.026142
30
0.0
0
VERTEX
8
0
70
0
10
-73.623858
20
20.25
30
0.0
0
VERTEX
8
0
10
-73.9
20
20.25
30
0.0
0
VERTEX
8
0
10
-76.1
20
20.25
30
0.0
0
VERTEX
8
0
70
0
10
-76.376142
20
20.25
30
0.0
0
VERTEX
8
0
70
0
10
-76.6
20
20.026142
30
0.0
0
VERTEX
8
0
10
-76.6
20
19.75
30
0.0
0
VERTEX
8
0
10
-76.6
20
0.25
30
0.0
0
VERTEX
8
0
70
0
10
-76.6
20
-0.026142
30
0.0
0
VERTEX
8
0
70
0
10
-76.376142
20
-0.25
30
0.0
0
VERTEX
8
0
10
-76.1
20
-0.25
30
0.0
0
SEQEND
0
POLYLINE
5
P
8
0
66
1
39
3
70
1
10
0.0
20
0.0
30
0.0
0
VERTEX
8
0
10
156.1
20
-0.25
30
0.0
0
VERTEX
8
0
70
0
10
156.376142
20
-0.25
30
0.0
0
VERTEX
8
0
70
0
10
156.6
20
-0.026142
30
0.0
0
VERTEX
8
0
10
156.6
20
0.25
30
0.0
0
VERTEX
8
0
10
156.6
20
19.75
30
0.0
0
VERTEX
8
0
70
0
10
156.6
20
20.026142
30
0.0
0
VERTEX
8
0
70
0
10
156.376142
20
20.25
30
0.0
0
VERTEX
8
0
10
156.1
20
20.25
30
0.0
0
VERTEX
8
0
10
153.9
20
20.25
30
0.0
0
VERTEX
8
0
70
0
10
153.623858
20
20.25
30
0.0
0
VERTEX
8
0
70
0
10
153.4
20
20.026142
30
0.0
0
VERTEX
8
0
10
153.4
20
19.75
30
0.0
0
VERTEX
8
0
10
153.4
20
0.25
30
0.0
0
VERTEX
8
0
70
0
10
153.4
20
-0.026142
30
0.0
0
VERTEX
8
0
70
0
10
153.623858
20
-0.25
30
0.0
0
VERTEX
8
0
10
153.9
20
-0.25
30
0.0
0
SEQEND
0
POLYLINE
5
P
8
0
66
1
39
3
70
1
10
0.0
20
0.0
30
0.0
0
VERTEX
8
0
10
326.1
20
-0.25
30
0.0
0
VERTEX
8
0
70
0
10
326.376142
20
-0.25
30
0.0
0
VERTEX
8
0
70
0
10
326.6
20
-0.026142
30
0.0
0
VERTEX
8
0
10
326.6
20
0.25
30
0.0
0
VERTEX
8
0
10
326.6
20
19.75
30
0.0
0
VERTEX
8
0
70
0
10
326.6
20
20.026142
30
0.0
0
VERTEX
8
0
70
0
10
326.376142
20
20.25
30
0.0
0
VERTEX
8
0
10
326.1
20
20.25
30
0.0
0
VERTEX
8
0
10
323.9
20
20.25
30
0.0
0
VERTEX
8
0
70
0
10
323.623858
20
20.25
30
0.0
0
VERTEX
8
0
70
0
10
323.4
20
20.026142
30
0.0
0
VERTEX
8
0
10
323.4
20
19.75
30
0.0
0
VERTEX
8
0
10
323.4
20
0.25
30
0.0
0
VERTEX
8
0
70
0
10
323.4
20
-0.026142
30
0.0
0
VERTEX
8
0
70
0
10
323.623858
20
-0.25
30
0.0
0
VERTEX
8
0
10
323.9
20
-0.25
30
0.0
0
SEQEND
0
POLYLINE
5
P
8
0
66
1
39
3
70
1
10
0.0
20
0.0
30
0.0
0
VERTEX
8
0
10
427.1
20
-0.25
30
0.0
0
VERTEX
8
0
70
0
10
427.376142
20
-0.25
30
0.0
0
VERTEX
8
0
70
0
10
427.6
20
-0.026142
30
0.0
0
VERTEX
8
0
10
427.6
20
0.25
30
0.0
0
VERTEX
8
0
10
427.6
20
19.75
30
0.0
0
VERTEX
8
0
70
0
10
427.6
20
20.026142
30
0.0
0
VERTEX
8
0
70
0
10
427.376142
20
20.25
30
0.0
0
VERTEX
8
0
10
427.1
20
20.25
30
0.0
0
VERTEX
8
0
10
424.9
20
20.25
30
0.0
0
VERTEX
8
0
70
0
10
424.623858
20
20.25
30
0.0
0
VERTEX
8
0
70
0
10
424.4
20
20.026142
30
0.0
0
VERTEX
8
0
10
424.4
20
19.75
30
0.0
0
VERTEX
8
0
10
424.4
20
0.25
30
0.0
0
VERTEX
8
0
70
0
10
424.4
20
-0.026142
30
0.0
0
VERTEX
8
0
70
0
10
424.623858
20
-0.25
30
0.0
0
VERTEX
8
0
10
424.9
20
-0.25
30
0.0
0
SEQEND
0
POLYLINE
5
P
8
0
66
1
39
3
70
1
10
0.0
20
0.0
30
0.0
0
VERTEX
8
0
10
-91.0
20
18.0
30
0.0
0
VERTEX
8
0
70
0
10
-88.790861
20
18.0
30
0.0
0
VERTEX
8
0
70
0
10
-87.0
20
19.790861
30
0.0
0
VERTEX
8
0
10
-87.0
20
22.0
30
0.0
0
VERTEX
8
0
70
0
10
-87.0
20
24.209139
30
0.0
0
VERTEX
8
0
70
0
10
-88.790861
20
26.0
30
0.0
0
VERTEX
8
0
10
-91.0
20
26.0
30
0.0
0
VERTEX
8
0
70
0
10
-93.209139
20
26.0
30
0.0
0
VERTEX
8
0
70
0
10
-95.0
20
24.209139
30
0.0
0
VERTEX
8
0
10
-95.0
20
22.0
30
0.0
0
VERTEX
8
0
70
0
10
-95.0
20
19.790861
30
0.0
0
VERTEX
8
0
70
0
10
-93.209139
20
18.0
30
0.0
0
VERTEX
8
0
10
-91.0
20
18.0
30
0.0
0
SEQEND
0
POLYLINE
5
P
8
0
66
1
39
3
70
1
10
0.0
20
0.0
30
0.0
0
VERTEX
8
0
10
109.0
20
18.0
30
0.0
0
VERTEX
8
0
70
0
10
111.209139
20
18.0
30
0.0
0
VERTEX
8
0
70
0
10
113.0
20
19.790861
30
0.0
0
VERTEX
8
0
10
113.0
20
22.0
30
0.0
0
VERTEX
8
0
70
0
10
113.0
20
24.209139
30
0.0
0
VERTEX
8
0
70
0
10
111.209139
20
26.0
30
0.0
0
VERTEX
8
0
10
109.0
20
26.0
30
0.0
0
VERTEX
8
0
70
0
10
106.790861
20
26.0
30
0.0
0
VERTEX
8
0
70
0
10
105.0
20
24.209139
30
0.0
0
VERTEX
8
0
10
105.0
20
22.0
30
0.0
0
VERTEX
8
0
70
0
10
105.0
20
19.790861
30
0.0
0
VERTEX
8
0
70
0
10
106.790861
20
18.0
30
0.0
0
VERTEX
8
0
10
109.0
20
18.0
30
0.0
0
SEQEND
0
POLYLINE
5
P
8
0
66
1
39
3
70
1
10
0.0
20
0.0
30
0.0
0
VERTEX
8
0
10
309.0
20
18.0
30
0.0
0
VERTEX
8
0
70
0
10
311.209139
20
18.0
30
0.0
0
VERTEX
8
0
70
0
10
313.0
20
19.790861
30
0.0
0
VERTEX
8
0
10
313.0
20
22.0
30
0.0
0
VERTEX
8
0
70
0
10
313.0
20
24.209139
30
0.0
0
VERTEX
8
0
70
0
10
311.209139
20
26.0
30
0.0
0
VERTEX
8
0
10
309.0
20
26.0
30
0.0
0
VERTEX
8
0
70
0
10
306.790861
20
26.0
30
0.0
0
VERTEX
8
0
70
0
10
305.0
20
24.209139
30
0.0
0
VERTEX
8
0
10
305.0
20
22.0
30
0.0
0
VERTEX
8
0
70
0
10
305.0
20
19.790861
30
0.0
0
VERTEX
8
0
70
0
10
306.790861
20
18.0
30
0.0
0
VERTEX
8
0
10
309.0
20
18.0
30
0.0
0
SEQEND
0
POLYLINE
5
P
8
0
66
1
39
3
70
1
10
0.0
20
0.0
30
0.0
0
VERTEX
8
0
10
-97.0
20
26.0
30
0.0
0
VERTEX
8
0
70
0
10
-95.895431
20
26.0
30
0.0
0
VERTEX
8
0
70
0
10
-95.0
20
26.895431
30
0.0
0
VERTEX
8
0
10
-95.0
20
28.0
30
0.0
0
VERTEX
8
0
70
0
10
-95.0
20
29.104569
30
0.0
0
VERTEX
8
0
70
0
10
-95.895431
20
30.0
30
0.0
0
VERTEX
8
0
10
-97.0
20
30.0
30
0.0
0
VERTEX
8
0
70
0
10
-98.104569
20
30.0
30
0.0
0
VERTEX
8
0
70
0
10
-99.0
20
29.104569
30
0.0
0
VERTEX
8
0
10
-99.0
20
28.0
30
0.0
0
VERTEX
8
0
70
0
10
-99.0
20
26.895431
30
0.0
0
VERTEX
8
0
70
0
10
-98.104569
20
26.0
30
0.0
0
VERTEX
8
0
10
-97.0
20
26.0
30
0.0
0
SEQEND
0
POLYLINE
5
P
8
0
66
1
39
3
70
1
10
0.0
20
0.0
30
0.0
0
VERTEX
8
0
10
-85.0
20
26.0
30
0.0
0
VERTEX
8
0
70
0
10
-83.895431
20
26.0
30
0.0
0
VERTEX
8
0
70
0
10
-83.0
20
26.895431
30
0.0
0
VERTEX
8
0
10
-83.0
20
28.0
30
0.0
0
VERTEX
8
0
70
0
10
-83.0
20
29.104569
30
0.0
0
VERTEX
8
0
70
0
10
-83.895431
20
30.0
30
0.0
0
VERTEX
8
0
10
-85.0
20
30.0
30
0.0
0
VERTEX
8
0
70
0
10
-86.104569
20
30.0
30
0.0
0
VERTEX
8
0
70
0
10
-87.0
20
29.104569
30
0.0
0
VERTEX
8
0
10
-87.0
20
28.0
30
0.0
0
VERTEX
8
0
70
0
10
-87.0
20
26.895431
30
0.0
0
VERTEX
8
0
70
0
10
-86.104569
20
26.0
30
0.0
0
VERTEX
8
0
10
-85.0
20
26.0
30
0.0
0
SEQEND
0
POLYLINE
5
P
8
0
66
1
39
3
70
1
10
0.0
20
0.0
30
0.0
0
VERTEX
8
0
10
103.0
20
26.0
30
0.0
0
VERTEX
8
0
70
0
10
104.104569
20
26.0
30
0.0
0
VERTEX
8
0
70
0
10
105.0
20
26.895431
30
0.0
0
VERTEX
8
0
10
105.0
20
28.0
30
0.0
0
VERTEX
8
0
70
0
10
105.0
20
29.104569
30
0.0
0
VERTEX
8
0
70
0
10
104.104569
20
30.0
30
0.0
0
VERTEX
8
0
10
103.0
20
30.0
30
0.0
0
VERTEX
8
0
70
0
10
101.895431
20
30.0
30
0.0
0
VERTEX
8
0
70
0
10
101.0
20
29.104569
30
0.0
0
VERTEX
8
0
10
101.0
20
28.0
30
0.0
0
VERTEX
8
0
70
0
10
101.0
20
26.895431
30
0.0
0
VERTEX
8
0
70
0
10
101.895431
20
26.0
30
0.0
0
VERTEX
8
0
10
103.0
20
26.0
30
0.0
0
SEQEND
0
POLYLINE
5
P
8
0
66
1
39
3
70
1
10
0.0
20
0.0
30
0.0
0
VERTEX
8
0
10
115.0
20
26.0
30
0.0
0
VERTEX
8
0
70
0
10
116.104569
20
26.0
30
0.0
0
VERTEX
8
0
70
0
10
117.0
20
26.895431
30
0.0
0
VERTEX
8
0
10
117.0
20
28.0
30
0.0
0
VERTEX
8
0
70
0
10
117.0
20
29.104569
30
0.0
0
VERTEX
8
0
70
0
10
116.104569
20
30.0
30
0.0
0
VERTEX
8
0
10
115.0
20
30.0
30
0.0
0
VERTEX
8
0
70
0
10
113.895431
20
30.0
30
0.0
0
VERTEX
8
0
70
0
10
113.0
20
29.104569
30
0.0
0
VERTEX
8
0
10
113.0
20
28.0
30
0.0
0
VERTEX
8
0
70
0
10
113.0
20
26.895431
30
0.0
0
VERTEX
8
0
70
0
10
113.895431
20
26.0
30
0.0
0
VERTEX
8
0
10
115.0
20
26.0
30
0.0
0
SEQEND
0
POLYLINE
5
P
8
0
66
1
39
3
70
1
10
0.0
20
0.0
30
0.0
0
VERTEX
8
0
10
303.0
20
26.0
30
0.0
0
VERTEX
8
0
70
0
10
304.104569
20
26.0
30
0.0
0
VERTEX
8
0
70
0
10
305.0
20
26.895431
30
0.0
0
VERTEX
8
0
10
305.0
20
28.0
30
0.0
0
VERTEX
8
0
70
0
10
305.0
20
29.104569
30
0.0
0
VERTEX
8
0
70
0
10
304.104569
20
30.0
30
0.0
0
VERTEX
8
0
10
303.0
20
30.0
30
0.0
0
VERTEX
8
0
70
0
10
301.895431
20
30.0
30
0.0
0
VERTEX
8
0
70
0
10
301.0
20
29.104569
30
0.0
0
VERTEX
8
0
10
301.0
20
28.0
30
0.0
0
VERTEX
8
0
70
0
10
301.0
20
26.895431
30
0.0
0
VERTEX
8
0
70
0
10
301.895431
20
26.0
30
0.0
0
VERTEX
8
0
10
303.0
20
26.0
30
0.0
0
SEQEND
0
POLYLINE
5
P
8
0
66
1
39
3
70
1
10
0.0
20
0.0
30
0.0
0
VERTEX
8
0
10
315.0
20
26.0
30
0.0
0
VERTEX
8
0
70
0
10
316.104569
20
26.0
30
0.0
0
VERTEX
8
0
70
0
10
317.0
20
26.895431
30
0.0
0
VERTEX
8
0
10
317.0
20
28.0
30
0.0
0
VERTEX
8
0
70
0
10
317.0
20
29.104569
30
0.0
0
VERTEX
8
0
70
0
10
316.104569
20
30.0
30
0.0
0
VERTEX
8
0
10
315.0
20
30.0
30
0.0
0
VERTEX
8
0
70
0
10
313.895431
20
30.0
30
0.0
0
VERTEX
8
0
70
0
10
313.0
20
29.104569
30
0.0
0
VERTEX
8
0
10
313.0
20
28.0
30
0.0
0
VERTEX
8
0
70
0
10
313.0
20
26.895431
30
0.0
0
VERTEX
8
0
70
0
10
313.895431
20
26.0
30
0.0
0
VERTEX
8
0
10
315.0
20
26.0
30
0.0
0
SEQEND
0
POLYLINE
5
P
8
0
66
1
39
3
70
1
10
0.0
20
0.0
30
0.0
0
VERTEX
8
0
10
287.5
20
12.5
30
0.0
0
VERTEX
8
0
70
0
10
290.261424
20
12.5
30
0.0
0
VERTEX
8
0
70
0
10
292.5
20
14.738576
30
0.0
0
VERTEX
8
0
10
292.5
20
17.5
30
0.0
0
VERTEX
8
0
10
292.5
20
32.5
30
0.0
0
VERTEX
8
0
70
0
10
292.5
20
35.261424
30
0.0
0
VERTEX
8
0
70
0
10
290.261424
20
37.5
30
0.0
0
VERTEX
8
0
10
287.5
20
37.5
30
0.0
0
VERTEX
8
0
10
272.5
20
37.5
30
0.0
0
VERTEX
8
0
70
0
10
269.738576
20
37.5
30
0.0
0
VERTEX
8
0
70
0
10
267.5
20
35.261424
30
0.0
0
VERTEX
8
0
10
267.5
20
32.5
30
0.0
0
VERTEX
8
0
10
267.5
20
17.5
30
0.0
0
VERTEX
8
0
70
0
10
267.5
20
14.738576
30
0.0
0
VERTEX
8
0
70
0
10
269.738576
20
12.5
30
0.0
0
VERTEX
8
0
10
272.5
20
12.5
30
0.0
0
SEQEND
0
POLYLINE
5
P
8
0
66
1
39
3
70
1
10
0.0
20
0.0
30
0.0
0
VERTEX
8
0
10
400.0
20
21.0
30
0.0
0
VERTEX
8
0
70
0
10
402.761424
20
21.0
30
0.0
0
VERTEX
8
0
70
0
10
405.0
20
23.238576
30
0.0
0
VERTEX
8
0
10
405.0
20
26.0
30
0.0
0
VERTEX
8
0
10
405.0
20
50.0
30
0.0
0
VERTEX
8
0
70
0
10
405.0
20
52.761424
30
0.0
0
VERTEX
8
0
70
0
10
402.761424
20
55.0
30
0.0
0
VERTEX
8
0
10
400.0
20
55.0
30
0.0
0
VERTEX
8
0
10
350.0
20
55.0
30
0.0
0
VERTEX
8
0
70
0
10
347.238576
20
55.0
30
0.0
0
VERTEX
8
0
70
0
10
345.0
20
52.761424
30
0.0
0
VERTEX
8
0
10
345.0
20
50.0
30
0.0
0
VERTEX
8
0
10
345.0
20
26.0
30
0.0
0
VERTEX
8
0
70
0
10
345.0
20
23.238576
30
0.0
0
VERTEX
8
0
70
0
10
347.238576
20
21.0
30
0.0
0
VERTEX
8
0
10
350.0
20
21.0
30
0.0
0
SEQEND
0
POLYLINE
5
P
8
0
66
1
39
3
70
1
10
0.0
20
0.0
30
0.0
0
VERTEX
8
0
10
-348.0
20
54.0
30
0.0
0
VERTEX
8
0
70
0
10
-346.895431
20
54.0
30
0.0
0
VERTEX
8
0
70
0
10
-346.0
20
54.895431
30
0.0
0
VERTEX
8
0
10
-346.0
20
56.0
30
0.0
0
VERTEX
8
0
70
0
10
-346.0
20
57.104569
30
0.0
0
VERTEX
8
0
70
0
10
-346.895431
20
58.0
30
0.0
0
VERTEX
8
0
10
-348.0
20
58.0
30
0.0
0
VERTEX
8
0
70
0
10
-349.104569
20
58.0
30
0.0
0
VERTEX
8
0
70
0
10
-350.0
20
57.104569
30
0.0
0
VERTEX
8
0
10
-350.0
20
56.0
30
0.0
0
VERTEX
8
0
70
0
10
-350.0
20
54.895431
30
0.0
0
VERTEX
8
0
70
0
10
-349.104569
20
54.0
30
0.0
0
VERTEX
8
0
10
-348.0
20
54.0
30
0.0
0
SEQEND
0
POLYLINE
5
P
8
0
66
1
39
3
70
1
10
0.0
20
0.0
30
0.0
0
VERTEX
8
0
10
-336.0
20
54.0
30
0.0
0
VERTEX
8
0
70
0
10
-334.895431
20
54.0
30
0.0
0
VERTEX
8
0
70
0
10
-334.0
20
54.895431
30
0.0
0
VERTEX
8
0
10
-334.0
20
56.0
30
0.0
0
VERTEX
8
0
70
0
10
-334.0
20
57.104569
30
0.0
0
VERTEX
8
0
70
0
10
-334.895431
20
58.0
30
0.0
0
VERTEX
8
0
10
-336.0
20
58.0
30
0.0
0
VERTEX
8
0
70
0
10
-337.104569
20
58.0
30
0.0
0
VERTEX
8
0
70
0
10
-338.0
20
57.104569
30
0.0
0
VERTEX
8
0
10
-338.0
20
56.0
30
0.0
0
VERTEX
8
0
70
0
10
-338.0
20
54.895431
30
0.0
0
VERTEX
8
0
70
0
10
-337.104569
20
54.0
30
0.0
0
VERTEX
8
0
10
-336.0
20
54.0
30
0.0
0
SEQEND
0
POLYLINE
5
P
8
0
66
1
39
3
70
1
10
0.0
20
0.0
30
0.0
0
VERTEX
8
0
10
-368.9
20
39.75
30
0.0
0
VERTEX
8
0
70
0
10
-368.623858
20
39.75
30
0.0
0
VERTEX
8
0
70
0
10
-368.4
20
39.973858
30
0.0
0
VERTEX
8
0
10
-368.4
20
40.25
30
0.0
0
VERTEX
8
0
10
-368.4
20
59.75
30
0.0
0
VERTEX
8
0
70
0
10
-368.4
20
60.026142
30
0.0
0
VERTEX
8
0
70
0
10
-368.623858
20
60.25
30
0.0
0
VERTEX
8
0
10
-368.9
20
60.25
30
0.0
0
VERTEX
8
0
10
-371.1
20
60.25
30
0.0
0
VERTEX
8
0
70
0
10
-371.376142
20
60.25
30
0.0
0
VERTEX
8
0
70
0
10
-371.6
20
60.026142
30
0.0
0
VERTEX
8
0
10
-371.6
20
59.75
30
0.0
0
VERTEX
8
0
10
-371.6
20
40.25
30
0.0
0
VERTEX
8
0
70
0
10
-371.6
20
39.973858
30
0.0
0
VERTEX
8
0
70
0
10
-371.376142
20
39.75
30
0.0
0
VERTEX
8
0
10
-371.1
20
39.75
30
0.0
0
SEQEND
0
POLYLINE
5
P
8
0
66
1
39
3
70
1
10
0.0
20
0.0
30
0.0
0
VERTEX
8
0
10
-73.9
20
39.75
30
0.0
0
VERTEX
8
0
70
0
10
-73.623858
20
39.75
30
0.0
0
VERTEX
8
0
70
0
10
-73.4
20
39.973858
30
0.0
0
VERTEX
8
0
10
-73.4
20
40.25
30
0.0
0
VERTEX
8
0
10
-73.4
20
59.75
30
0.0
0
VERTEX
8
0
70
0
10
-73.4
20
60.026142
30
0.0
0
VERTEX
8
0
70
0
10
-73.623858
20
60.25
30
0.0
0
VERTEX
8
0
10
-73.9
20
60.25
30
0.0
0
VERTEX
8
0
10
-76.1
20
60.25
30
0.0
0
VERTEX
8
0
70
0
10
-76.376142
20
60.25
30
0.0
0
VERTEX
8
0
70
0
10
-76.6
20
60.026142
30
0.0
0
VERTEX
8
0
10
-76.6
20
59.75
30
0.0
0
VERTEX
8
0
10
-76.6
20
40.25
30
0.0
0
VERTEX
8
0
70
0
10
-76.6
20
39.973858
30
0.0
0
VERTEX
8
0
70
0
10
-76.376142
20
39.75
30
0.0
0
VERTEX
8
0
10
-76.1
20
39.75
30
0.0
0
SEQEND
0
POLYLINE
5
P
8
0
66
1
39
3
70
1
10
0.0
20
0.0
30
0.0
0
VERTEX
8
0
10
156.1
20
39.75
30
0.0
0
VERTEX
8
0
70
0
10
156.376142
20
39.75
30
0.0
0
VERTEX
8
0
70
0
10
156.6
20
39.973858
30
0.0
0
VERTEX
8
0
10
156.6
20
40.25
30
0.0
0
VERTEX
8
0
10
156.6
20
59.75
30
0.0
0
VERTEX
8
0
70
0
10
156.6
20
60.026142
30
0.0
0
VERTEX
8
0
70
0
10
156.376142
20
60.25
30
0.0
0
VERTEX
8
0
10
156.1
20
60.25
30
0.0
0
VERTEX
8
0
10
153.9
20
60.25
30
0.0
0
VERTEX
8
0
70
0
10
153.623858
20
60.25
30
0.0
0
VERTEX
8
0
70
0
10
153.4
20
60.026142
30
0.0
0
VERTEX
8
0
10
153.4
20
59.75
30
0.0
0
VERTEX
8
0
10
153.4
20
40.25
30
0.0
0
VERTEX
8
0
70
0
10
153.4
20
39.973858
30
0.0
0
VERTEX
8
0
70
0
10
153.623858
20
39.75
30
0.0
0
VERTEX
8
0
10
153.9
20
39.75
30
0.0
0
SEQEND
0
POLYLINE
5
P
8
0
66
1
39
3
70
1
10
0.0
20
0.0
30
0.0
0
VERTEX
8
0
10
326.1
20
39.75
30
0.0
0
VERTEX
8
0
70
0
10
326.376142
20
39.75
30
0.0
0
VERTEX
8
0
70
0
10
326.6
20
39.973858
30
0.0
0
VERTEX
8
0
10
326.6
20
40.25
30
0.0
0
VERTEX
8
0
10
326.6
20
59.75
30
0.0
0
VERTEX
8
0
70
0
10
326.6
20
60.026142
30
0.0
0
VERTEX
8
0
70
0
10
326.376142
20
60.25
30
0.0
0
VERTEX
8
0
10
326.1
20
60.25
30
0.0
0
VERTEX
8
0
10
323.9
20
60.25
30
0.0
0
VERTEX
8
0
70
0
10
323.623858
20
60.25
30
0.0
0
VERTEX
8
0
70
0
10
323.4
20
60.026142
30
0.0
0
VERTEX
8
0
10
323.4
20
59.75
30
0.0
0
VERTEX
8
0
10
323.4
20
40.25
30
0.0
0
VERTEX
8
0
70
0
10
323.4
20
39.973858
30
0.0
0
VERTEX
8
0
70
0
10
323.623858
20
39.75
30
0.0
0
VERTEX
8
0
10
323.9
20
39.75
30
0.0
0
SEQEND
0
POLYLINE
5
P
8
0
66
1
39
3
70
1
10
0.0
20
0.0
30
0.0
0
VERTEX
8
0
10
427.1
20
39.75
30
0.0
0
VERTEX
8
0
70
0
10
427.376142
20
39.75
30
0.0
0
VERTEX
8
0
70
0
10
427.6
20
39.973858
30
0.0
0
VERTEX
8
0
10
427.6
20
40.25
30
0.0
0
VERTEX
8
0
10
427.6
20
59.75
30
0.0
0
VERTEX
8
0
70
0
10
427.6
20
60.026142
30
0.0
0
VERTEX
8
0
70
0
10
427.376142
20
60.25
30
0.0
0
VERTEX
8
0
10
427.1
20
60.25
30
0.0
0
VERTEX
8
0
10
424.9
20
60.25
30
0.0
0
VERTEX
8
0
70
0
10
424.623858
20
60.25
30
0.0
0
VERTEX
8
0
70
0
10
424.4
20
60.026142
30
0.0
0
VERTEX
8
0
10
424.4
20
59.75
30
0.0
0
VERTEX
8
0
10
424.4
20
40.25
30
0.0
0
VERTEX
8
0
70
0
10
424.4
20
39.973858
30
0.0
0
VERTEX
8
0
70
0
10
424.623858
20
39.75
30
0.0
0
VERTEX
8
0
10
424.9
20
39.75
30
0.0
0
SEQEND
0
POLYLINE
5
P
8
0
66
1
39
3
70
1
10
0.0
20
0.0
30
0.0
0
VERTEX
8
0
10
-342.0
20
58.0
30
0.0
0
VERTEX
8
0
70
0
10
-339.790861
20
58.0
30
0.0
0
VERTEX
8
0
70
0
10
-338.0
20
59.790861
30
0.0
0
VERTEX
8
0
10
-338.0
20
62.0
30
0.0
0
VERTEX
8
0
70
0
10
-338.0
20
64.209139
30
0.0
0
VERTEX
8
0
70
0
10
-339.790861
20
66.0
30
0.0
0
VERTEX
8
0
10
-342.0
20
66.0
30
0.0
0
VERTEX
8
0
70
0
10
-344.209139
20
66.0
30
0.0
0
VERTEX
8
0
70
0
10
-346.0
20
64.209139
30
0.0
0
VERTEX
8
0
10
-346.0
20
62.0
30
0.0
0
VERTEX
8
0
70
0
10
-346.0
20
59.790861
30
0.0
0
VERTEX
8
0
70
0
10
-344.209139
20
58.0
30
0.0
0
VERTEX
8
0
10
-342.0
20
58.0
30
0.0
0
SEQEND
0
POLYLINE
5
P
8
0
66
1
39
3
70
1
10
0.0
20
0.0
30
0.0
0
VERTEX
8
0
10
-348.0
20
66.0
30
0.0
0
VERTEX
8
0
70
0
10
-346.895431
20
66.0
30
0.0
0
VERTEX
8
0
70
0
10
-346.0
20
66.895431
30
0.0
0
VERTEX
8
0
10
-346.0
20
68.0
30
0.0
0
VERTEX
8
0
70
0
10
-346.0
20
69.104569
30
0.0
0
VERTEX
8
0
70
0
10
-346.895431
20
70.0
30
0.0
0
VERTEX
8
0
10
-348.0
20
70.0
30
0.0
0
VERTEX
8
0
70
0
10
-349.104569
20
70.0
30
0.0
0
VERTEX
8
0
70
0
10
-350.0
20
69.104569
30
0.0
0
VERTEX
8
0
10
-350.0
20
68.0
30
0.0
0
VERTEX
8
0
70
0
10
-350.0
20
66.895431
30
0.0
0
VERTEX
8
0
70
0
10
-349.104569
20
66.0
30
0.0
0
VERTEX
8
0
10
-348.0
20
66.0
30
0.0
0
SEQEND
0
POLYLINE
5
P
8
0
66
1
39
3
70
1
10
0.0
20
0.0
30
0.0
0
VERTEX
8
0
10
-336.0
20
66.0
30
0.0
0
VERTEX
8
0
70
0
10
-334.895431
20
66.0
30
0.0
0
VERTEX
8
0
70
0
10
-334.0
20
66.895431
30
0.0
0
VERTEX
8
0
10
-334.0
20
68.0
30
0.0
0
VERTEX
8
0
70
0
10
-334.0
20
69.104569
30
0.0
0
VERTEX
8
0
70
0
10
-334.895431
20
70.0
30
0.0
0
VERTEX
8
0
10
-336.0
20
70.0
30
0.0
0
VERTEX
8
0
70
0
10
-337.104569
20
70.0
30
0.0
0
VERTEX
8
0
70
0
10
-338.0
20
69.104569
30
0.0
0
VERTEX
8
0
10
-338.0
20
68.0
30
0.0
0
VERTEX
8
0
70
0
10
-338.0
20
66.895431
30
0.0
0
VERTEX
8
0
70
0
10
-337.104569
20
66.0
30
0.0
0
VERTEX
8
0
10
-336.0
20
66.0
30
0.0
0
SEQEND
0
POLYLINE
5
P
8
0
66
1
39
3
70
1
10
0.0
20
0.0
30
0.0
0
VERTEX
8
0
10
-77.0
20
-75.0
30
0.0
0
VERTEX
8
0
10
-77.0
20
-61.25
30
0.0
0
VERTEX
8
0
70
0
10
-77.0
20
-57.79822
30
0.0
0
VERTEX
8
0
70
0
10
-79.79822
20
-55.0
30
0.0
0
VERTEX
8
0
10
-83.25
20
-55.0
30
0.0
0
VERTEX
8
0
10
-297.0
20
-55.0
30
0.0
0
VERTEX
8
0
10
-297.0
20
-51.875
30
0.0
0
VERTEX
8
0
10
-368.415752
20
-51.875
30
0.0
0
VERTEX
8
0
70
0
10
-368.405469
20
-51.835048
30
0.0
0
VERTEX
8
0
70
0
10
-368.4
20
-51.793162
30
0.0
0
VERTEX
8
0
10
-368.4
20
-51.75
30
0.0
0
VERTEX
8
0
10
-368.4
20
-18.25
30
0.0
0
VERTEX
8
0
70
0
10
-368.4
20
-17.973858
30
0.0
0
VERTEX
8
0
70
0
10
-368.623858
20
-17.75
30
0.0
0
VERTEX
8
0
10
-368.9
20
-17.75
30
0.0
0
VERTEX
8
0
10
-371.1
20
-17.75
30
0.0
0
VERTEX
8
0
70
0
10
-371.376142
20
-17.75
30
0.0
0
VERTEX
8
0
70
0
10
-371.6
20
-17.973858
30
0.0
0
VERTEX
8
0
10
-371.6
20
-18.25
30
0.0
0
VERTEX
8
0
10
-371.6
20
-51.75
30
0.0
0
VERTEX
8
0
70
0
10
-371.6
20
-51.793162
30
0.0
0
VERTEX
8
0
70
0
10
-371.594531
20
-51.835048
30
0.0
0
VERTEX
8
0
10
-371.584248
20
-51.875
30
0.0
0
VERTEX
8
0
10
-496.0
20
-51.875
30
0.0
0
VERTEX
8
0
10
-496.0
20
-0.184105
30
0.0
0
VERTEX
8
0
10
-403.463102
20
16.132647
30
0.0
0
VERTEX
8
0
70
0
10
-400.883745
20
16.587457
30
0.0
0
VERTEX
8
0
70
0
10
-398.466972
20
17.422582
30
0.0
0
VERTEX
8
0
10
-396.260281
20
18.570183
30
0.0
0
VERTEX
8
0
10
-396.260273
20
18.570183
30
0.0
0
VERTEX
8
0
70
0
10
-386.763207
20
22.114258
30
0.0
0
VERTEX
8
0
70
0
10
-380.0
20
31.267313
30
0.0
0
VERTEX
8
0
10
-380.0
20
42.0
30
0.0
0
VERTEX
8
0
10
-380.0
20
75.0
30
0.0
0
VERTEX
8
0
10
-328.5
20
75.0
30
0.0
0
VERTEX
8
0
10
-328.5
20
43.5
30
0.0
0
VERTEX
8
0
70
0
10
-328.5
20
36.596441
30
0.0
0
VERTEX
8
0
70
0
10
-322.903559
20
31.0
30
0.0
0
VERTEX
8
0
10
-316.0
20
31.0
30
0.0
0
VERTEX
8
0
10
-266.0
20
31.0
30
0.0
0
VERTEX
8
0
70
0
10
-259.096441
20
31.0
30
0.0
0
VERTEX
8
0
70
0
10
-253.5
20
36.596441
30
0.0
0
VERTEX
8
0
10
-253.5
20
43.5
30
0.0
0
VERTEX
8
0
10
-253.5
20
75.0
30
0.0
0
VERTEX
8
0
10
-215.0
20
75.0
30
0.0
0
VERTEX
8
0
10
-215.0
20
5.0
30
0.0
0
VERTEX
8
0
70
0
10
-215.0
20
4.447715
30
0.0
0
VERTEX
8
0
70
0
10
-214.552285
20
4.0
30
0.0
0
VERTEX
8
0
10
-214.0
20
4.0
30
0.0
0
VERTEX
8
0
10
-156.0
20
4.0
30
0.0
0
VERTEX
8
0
70
0
10
-155.447715
20
4.0
30
0.0
0
VERTEX
8
0
70
0
10
-155.0
20
4.447715
30
0.0
0
VERTEX
8
0
10
-155.0
20
5.0
30
0.0
0
VERTEX
8
0
10
-155.0
20
75.0
30
0.0
0
VERTEX
8
0
10
-15.0
20
75.0
30
0.0
0
VERTEX
8
0
10
-15.0
20
5.0
30
0.0
0
VERTEX
8
0
70
0
10
-15.0
20
4.447715
30
0.0
0
VERTEX
8
0
70
0
10
-14.552285
20
4.0
30
0.0
0
VERTEX
8
0
10
-14.0
20
4.0
30
0.0
0
VERTEX
8
0
10
44.0
20
4.0
30
0.0
0
VERTEX
8
0
70
0
10
44.552285
20
4.0
30
0.0
0
VERTEX
8
0
70
0
10
45.0
20
4.447715
30
0.0
0
VERTEX
8
0
10
45.0
20
5.0
30
0.0
0
VERTEX
8
0
10
45.0
20
75.0
30
0.0
0
VERTEX
8
0
10
185.0
20
75.0
30
0.0
0
VERTEX
8
0
10
185.0
20
5.0
30
0.0
0
VERTEX
8
0
70
0
10
185.0
20
4.447715
30
0.0
0
VERTEX
8
0
70
0
10
185.447715
20
4.0
30
0.0
0
VERTEX
8
0
10
186.0
20
4.0
30
0.0
0
VERTEX
8
0
10
244.0
20
4.0
30
0.0
0
VERTEX
8
0
70
0
10
244.552285
20
4.0
30
0.0
0
VERTEX
8
0
70
0
10
245.0
20
4.447715
30
0.0
0
VERTEX
8
0
10
245.0
20
5.0
30
0.0
0
VERTEX
8
0
10
245.0
20
75.0
30
0.0
0
VERTEX
8
0
10
444.0
20
75.0
30
0.0
0
VERTEX
8
0
10
444.0
20
27.0
30
0.0
0
VERTEX
8
0
70
0
10
444.0
20
13.192881
30
0.0
0
VERTEX
8
0
70
0
10
455.192881
20
2.0
30
0.0
0
VERTEX
8
0
10
469.0
20
2.0
30
0.0
0
VERTEX
8
0
10
496.0
20
2.0
30
0.0
0
VERTEX
8
0
10
496.0
20
-51.875
30
0.0
0
VERTEX
8
0
10
441.0
20
-51.875
30
0.0
0
VERTEX
8
0
10
441.0
20
-55.0
30
0.0
0
VERTEX
8
0
10
440.5
20
-55.0
30
0.0
0
VERTEX
8
0
70
0
10
433.596441
20
-55.0
30
0.0
0
VERTEX
8
0
70
0
10
428.0
20
-60.596441
30
0.0
0
VERTEX
8
0
10
428.0
20
-67.5
30
0.0
0
VERTEX
8
0
10
428.0
20
-75.0
30
0.0
0
SEQEND
0
ENDSEC
0
EOF
