0
SECTION
2
HEADER
9
$ACADVER
1
AC1009
0
ENDSEC
0
SECTION
2
ENTITIES
0
POLYLINE
5
P
8
0
66
1
39
3
70
1
10
0.0
20
0.0
30
0.0
0
VERTEX
8
0
10
384.0
20
-117.5
30
0.0
0
VERTEX
8
0
70
0
10
384.828427
20
-117.5
30
0.0
0
VERTEX
8
0
70
0
10
385.5
20
-116.828427
30
0.0
0
VERTEX
8
0
10
385.5
20
-116.0
30
0.0
0
VERTEX
8
0
10
385.5
20
-94.0
30
0.0
0
VERTEX
8
0
70
0
10
385.5
20
-93.171573
30
0.0
0
VERTEX
8
0
70
0
10
384.828427
20
-92.5
30
0.0
0
VERTEX
8
0
10
384.0
20
-92.5
30
0.0
0
VERTEX
8
0
10
366.0
20
-92.5
30
0.0
0
VERTEX
8
0
70
0
10
365.171573
20
-92.5
30
0.0
0
VERTEX
8
0
70
0
10
364.5
20
-93.171573
30
0.0
0
VERTEX
8
0
10
364.5
20
-94.0
30
0.0
0
VERTEX
8
0
10
364.5
20
-116.0
30
0.0
0
VERTEX
8
0
70
0
10
364.5
20
-116.828427
30
0.0
0
VERTEX
8
0
70
0
10
365.171573
20
-117.5
30
0.0
0
VERTEX
8
0
10
366.0
20
-117.5
30
0.0
0
SEQEND
0
POLYLINE
5
P
8
0
66
1
39
3
70
1
10
0.0
20
0.0
30
0.0
0
VERTEX
8
0
10
428.0
20
-82.125
30
0.0
0
VERTEX
8
0
70
0
10
428.05468
20
-82.125
30
0.0
0
VERTEX
8
0
70
0
10
428.10731
20
-82.116223
30
0.0
0
VERTEX
8
0
10
428.156558
20
-82.1
30
0.0
0
VERTEX
8
0
10
442.4
20
-82.1
30
0.0
0
VERTEX
8
0
70
0
10
442.455228
20
-82.1
30
0.0
0
VERTEX
8
0
70
0
10
442.5
20
-82.055228
30
0.0
0
VERTEX
8
0
10
442.5
20
-82.0
30
0.0
0
VERTEX
8
0
10
442.5
20
-77.0
30
0.0
0
VERTEX
8
0
70
0
10
442.5
20
-76.944772
30
0.0
0
VERTEX
8
0
70
0
10
442.455228
20
-76.9
30
0.0
0
VERTEX
8
0
10
442.4
20
-76.9
30
0.0
0
VERTEX
8
0
10
428.5
20
-76.9
30
0.0
0
VERTEX
8
0
10
428.5
20
76.9
30
0.0
0
VERTEX
8
0
10
442.4
20
76.9
30
0.0
0
VERTEX
8
0
70
0
10
442.455228
20
76.9
30
0.0
0
VERTEX
8
0
70
0
10
442.5
20
76.944772
30
0.0
0
VERTEX
8
0
10
442.5
20
77.0
30
0.0
0
VERTEX
8
0
10
442.5
20
82.0
30
0.0
0
VERTEX
8
0
70
0
10
442.5
20
82.055228
30
0.0
0
VERTEX
8
0
70
0
10
442.455228
20
82.1
30
0.0
0
VERTEX
8
0
10
442.4
20
82.1
30
0.0
0
VERTEX
8
0
10
428.156558
20
82.1
30
0.0
0
VERTEX
8
0
70
0
10
428.10731
20
82.116223
30
0.0
0
VERTEX
8
0
70
0
10
428.05468
20
82.125
30
0.0
0
VERTEX
8
0
10
428.0
20
82.125
30
0.0
0
VERTEX
8
0
10
110.0
20
82.125
30
0.0
0
VERTEX
8
0
10
110.0
20
82.0
30
0.0
0
VERTEX
8
0
10
-230.0
20
82.0
30
0.0
0
VERTEX
8
0
10
-230.0
20
82.125
30
0.0
0
VERTEX
8
0
10
-284.0
20
82.125
30
0.0
0
VERTEX
8
0
70
0
10
-284.05468
20
82.125
30
0.0
0
VERTEX
8
0
70
0
10
-284.10731
20
82.116223
30
0.0
0
VERTEX
8
0
10
-284.156558
20
82.1
30
0.0
0
VERTEX
8
0
10
-297.4
20
82.1
30
0.0
0
VERTEX
8
0
70
0
10
-297.455228
20
82.1
30
0.0
0
VERTEX
8
0
70
0
10
-297.5
20
82.055228
30
0.0
0
VERTEX
8
0
10
-297.5
20
82.0
30
0.0
0
VERTEX
8
0
10
-297.5
20
77.0
30
0.0
0
VERTEX
8
0
70
0
10
-297.5
20
76.944772
30
0.0
0
VERTEX
8
0
70
0
10
-297.455228
20
76.9
30
0.0
0
VERTEX
8
0
10
-297.4
20
76.9
30
0.0
0
VERTEX
8
0
10
-284.5
20
76.9
30
0.0
0
VERTEX
8
0
10
-284.5
20
-76.9
30
0.0
0
VERTEX
8
0
10
-297.4
20
-76.9
30
0.0
0
VERTEX
8
0
70
0
10
-297.455228
20
-76.9
30
0.0
0
VERTEX
8
0
70
0
10
-297.5
20
-76.944772
30
0.0
0
VERTEX
8
0
10
-297.5
20
-77.0
30
0.0
0
VERTEX
8
0
10
-297.5
20
-82.0
30
0.0
0
VERTEX
8
0
70
0
10
-297.5
20
-82.055228
30
0.0
0
VERTEX
8
0
70
0
10
-297.455228
20
-82.1
30
0.0
0
VERTEX
8
0
10
-297.4
20
-82.1
30
0.0
0
VERTEX
8
0
10
-284.156558
20
-82.1
30
0.0
0
VERTEX
8
0
70
0
10
-284.10731
20
-82.116223
30
0.0
0
VERTEX
8
0
70
0
10
-284.05468
20
-82.125
30
0.0
0
VERTEX
8
0
10
-284.0
20
-82.125
30
0.0
0
VERTEX
8
0
10
-230.0
20
-82.125
30
0.0
0
VERTEX
8
0
10
-230.0
20
-82.0
30
0.0
0
VERTEX
8
0
10
110.0
20
-82.0
30
0.0
0
VERTEX
8
0
10
110.0
20
-82.125
30
0.0
0
SEQEND
0
POLYLINE
5
P
8
0
66
1
39
3
70
1
10
0.0
20
0.0
30
0.0
0
VERTEX
8
0
10
384.0
20
92.5
30
0.0
0
VERTEX
8
0
70
0
10
384.828427
20
92.5
30
0.0
0
VERTEX
8
0
70
0
10
385.5
20
93.171573
30
0.0
0
VERTEX
8
0
10
385.5
20
94.0
30
0.0
0
VERTEX
8
0
10
385.5
20
116.0
30
0.0
0
VERTEX
8
0
70
0
10
385.5
20
116.828427
30
0.0
0
VERTEX
8
0
70
0
10
384.828427
20
117.5
30
0.0
0
VERTEX
8
0
10
384.0
20
117.5
30
0.0
0
VERTEX
8
0
10
366.0
20
117.5
30
0.0
0
VERTEX
8
0
70
0
10
365.171573
20
117.5
30
0.0
0
VERTEX
8
0
70
0
10
364.5
20
116.828427
30
0.0
0
VERTEX
8
0
10
364.5
20
116.0
30
0.0
0
VERTEX
8
0
10
364.5
20
94.0
30
0.0
0
VERTEX
8
0
70
0
10
364.5
20
93.171573
30
0.0
0
VERTEX
8
0
70
0
10
365.171573
20
92.5
30
0.0
0
VERTEX
8
0
10
366.0
20
92.5
30
0.0
0
SEQEND
0
POLYLINE
5
P
8
0
66
1
39
3
70
1
10
0.0
20
0.0
30
0.0
0
VERTEX
8
0
10
-427.0
20
-193.0
30
0.0
0
VERTEX
8
0
70
0
10
-429.761424
20
-193.0
30
0.0
0
VERTEX
8
0
70
0
10
-432.0
20
-190.761424
30
0.0
0
VERTEX
8
0
10
-432.0
20
-188.0
30
0.0
0
VERTEX
8
0
10
-432.0
20
-168.0
30
0.0
0
VERTEX
8
0
10
-491.0
20
-168.0
30
0.0
0
VERTEX
8
0
70
0
10
-493.761424
20
-168.0
30
0.0
0
VERTEX
8
0
70
0
10
-496.0
20
-165.761424
30
0.0
0
VERTEX
8
0
10
-496.0
20
-163.0
30
0.0
0
VERTEX
8
0
10
-496.0
20
-125.0
30
0.0
0
VERTEX
8
0
10
-496.0
20
144.0
30
0.0
0
VERTEX
8
0
10
-496.0
20
163.0
30
0.0
0
VERTEX
8
0
70
0
10
-496.0
20
165.761424
30
0.0
0
VERTEX
8
0
70
0
10
-493.761424
20
168.0
30
0.0
0
VERTEX
8
0
10
-491.0
20
168.0
30
0.0
0
VERTEX
8
0
10
-432.0
20
168.0
30
0.0
0
VERTEX
8
0
10
-432.0
20
188.0
30
0.0
0
VERTEX
8
0
70
0
10
-432.0
20
190.761424
30
0.0
0
VERTEX
8
0
70
0
10
-429.761424
20
193.0
30
0.0
0
VERTEX
8
0
10
-427.0
20
193.0
30
0.0
0
VERTEX
8
0
10
-224.0
20
193.0
30
0.0
0
VERTEX
8
0
70
0
10
-221.238576
20
193.0
30
0.0
0
VERTEX
8
0
70
0
10
-219.0
20
190.761424
30
0.0
0
VERTEX
8
0
10
-219.0
20
188.0
30
0.0
0
VERTEX
8
0
10
-219.0
20
168.0
30
0.0
0
VERTEX
8
0
10
60.0
20
168.0
30
0.0
0
VERTEX
8
0
70
0
10
86.944413
20
168.0
30
0.0
0
VERTEX
8
0
70
0
10
108.910923
20
146.687066
30
0.0
0
VERTEX
8
0
10
109.960731
20
120.0
30
0.0
0
VERTEX
8
0
10
150.0
20
120.0
30
0.0
0
VERTEX
8
0
70
0
10
161.045695
20
120.0
30
0.0
0
VERTEX
8
0
70
0
10
170.0
20
128.954305
30
0.0
0
VERTEX
8
0
10
170.0
20
140.0
30
0.0
0
VERTEX
8
0
10
170.0
20
144.0
30
0.0
0
VERTEX
8
0
10
496.0
20
144.0
30
0.0
0
VERTEX
8
0
10
496.0
20
-144.0
30
0.0
0
VERTEX
8
0
10
170.0
20
-144.0
30
0.0
0
VERTEX
8
0
10
170.0
20
-140.0
30
0.0
0
VERTEX
8
0
70
0
10
170.0
20
-128.954305
30
0.0
0
VERTEX
8
0
70
0
10
161.045695
20
-120.0
30
0.0
0
VERTEX
8
0
10
150.0
20
-120.0
30
0.0
0
VERTEX
8
0
10
109.960731
20
-120.0
30
0.0
0
VERTEX
8
0
70
0
10
108.910923
20
-146.687066
30
0.0
0
VERTEX
8
0
70
0
10
86.944413
20
-168.0
30
0.0
0
VERTEX
8
0
10
60.0
20
-168.0
30
0.0
0
VERTEX
8
0
10
-219.0
20
-168.0
30
0.0
0
VERTEX
8
0
10
-219.0
20
-188.0
30
0.0
0
VERTEX
8
0
70
0
10
-219.0
20
-190.761424
30
0.0
0
VERTEX
8
0
70
0
10
-221.238576
20
-193.0
30
0.0
0
VERTEX
8
0
10
-224.0
20
-193.0
30
0.0
0
SEQEND
0
ENDSEC
0
EOF
