<?xml version="1.0" encoding="ISO-8859-1"?>
<svg height="0.0" width="0.0">
    <polygon
        points="931.5,67.0 931.7761423749154,67.0 932.0,67.2238576250846 932.0,67.5 932.0,230.5 932.0,230.7761423749154 931.7761423749154,231.0 931.5,231.0 220.5,231.0 220.2238576250846,231.0 220.0,230.7761423749154 220.0,230.5 220.0,67.5 220.0,67.2238576250846 220.2238576250846,67.0 220.5,67.0" style="fill:none;stroke:black;stroke-width:1;fill-rule:evenodd;"/>
    <polygon
        points="82.5,-42.0 75.59644062711509,-42.0 70.0,-36.403559372884914 70.0,-29.5 70.0,-19.0 12.5,-19.0 5.596440627115083,-19.0 0.0,-13.403559372884917 0.0,-6.5 0.0,52.5 0.0,293.0 0.0,306.5 0.0,313.4035593728849 5.596440627115083,319.0 12.5,319.0 70.0,319.0 70.0,337.5 70.0,344.4035593728849 75.59644062711509,350.0 82.5,350.0 327.5,350.0 334.4035593728849,350.0 340.0,344.4035593728849 340.0,337.5 340.0,319.0 570.0,319.0 586.5685424949238,319.0 600.0,305.5685424949238 600.0,289.0 600.0,269.0 653.5,269.0 660.403559372885,269.0 666.0,274.5964406271151 666.0,281.5 666.0,293.0 992.0,293.0 992.0,5.0 666.0,5.0 666.0,16.5 666.0,23.403559372884917 660.403559372885,29.0 653.5,29.0 600.0,29.0 600.0,11.0 600.0,-5.5685424949238005 586.5685424949238,-19.0 570.0,-19.0 340.0,-19.0 340.0,-29.5 340.0,-36.403559372884914 334.4035593728849,-42.0 327.5,-42.0" style="fill:none;stroke:black;stroke-width:1;fill-rule:evenodd;"/>
</svg>
