0
SECTION
2
HEADER
9
$ACADVER
1
AC1009
0
ENDSEC
0
SECTION
2
ENTITIES
0
POLYLINE
5
P
8
0
66
1
39
3
70
1
10
-110.0
20
-16.0
30
0.0
0
VERTEX
8
0
75
6
10
-107.238576
20
-16.0
30
0.0
0
VERTEX
8
0
10
-105.0
20
-13.761424
30
0.0
0
VERTEX
8
0
10
-105.0
20
-11.0
30
0.0
0
VERTEX
8
0
75
6
10
-105.0
20
-8.238576
30
0.0
0
VERTEX
8
0
10
-107.238576
20
-6.0
30
0.0
0
VERTEX
8
0
10
-110.0
20
-6.0
30
0.0
0
VERTEX
8
0
75
6
10
-112.761424
20
-6.0
30
0.0
0
VERTEX
8
0
10
-115.0
20
-8.238576
30
0.0
0
VERTEX
8
0
10
-115.0
20
-11.0
30
0.0
0
VERTEX
8
0
75
6
10
-115.0
20
-13.761424
30
0.0
0
VERTEX
8
0
10
-112.761424
20
-16.0
30
0.0
0
VERTEX
8
0
10
-110.0
20
-16.0
30
0.0
0
SEQEND
5
End_P
8
0
0
POLYLINE
5
P
8
0
66
1
39
3
70
1
10
110.0
20
-16.0
30
0.0
0
VERTEX
8
0
75
6
10
112.761424
20
-16.0
30
0.0
0
VERTEX
8
0
10
115.0
20
-13.761424
30
0.0
0
VERTEX
8
0
10
115.0
20
-11.0
30
0.0
0
VERTEX
8
0
75
6
10
115.0
20
-8.238576
30
0.0
0
VERTEX
8
0
10
112.761424
20
-6.0
30
0.0
0
VERTEX
8
0
10
110.0
20
-6.0
30
0.0
0
VERTEX
8
0
75
6
10
107.238576
20
-6.0
30
0.0
0
VERTEX
8
0
10
105.0
20
-8.238576
30
0.0
0
VERTEX
8
0
10
105.0
20
-11.0
30
0.0
0
VERTEX
8
0
75
6
10
105.0
20
-13.761424
30
0.0
0
VERTEX
8
0
10
107.238576
20
-16.0
30
0.0
0
VERTEX
8
0
10
110.0
20
-16.0
30
0.0
0
SEQEND
5
End_P
8
0
0
POLYLINE
5
P
8
0
66
1
39
3
70
1
10
24.5
20
-17.0
30
0.0
0
VERTEX
8
0
75
6
10
24.776142
20
-17.0
30
0.0
0
VERTEX
8
0
10
25.0
20
-16.776142
30
0.0
0
VERTEX
8
0
10
25.0
20
-16.5
30
0.0
0
VERTEX
8
0
75
0
10
25.0
20
-5.5
30
0.0
0
VERTEX
8
0
75
6
10
25.0
20
-5.223858
30
0.0
0
VERTEX
8
0
10
24.776142
20
-5.0
30
0.0
0
VERTEX
8
0
10
24.5
20
-5.0
30
0.0
0
VERTEX
8
0
75
0
10
-24.5
20
-5.0
30
0.0
0
VERTEX
8
0
75
6
10
-24.776142
20
-5.0
30
0.0
0
VERTEX
8
0
10
-25.0
20
-5.223858
30
0.0
0
VERTEX
8
0
10
-25.0
20
-5.5
30
0.0
0
VERTEX
8
0
75
0
10
-25.0
20
-16.5
30
0.0
0
VERTEX
8
0
75
6
10
-25.0
20
-16.776142
30
0.0
0
VERTEX
8
0
10
-24.776142
20
-17.0
30
0.0
0
VERTEX
8
0
10
-24.5
20
-17.0
30
0.0
0
SEQEND
5
End_P
8
0
0
POLYLINE
5
P
8
0
66
1
39
3
70
1
10
-156.0
20
-29.0
30
0.0
0
VERTEX
8
0
75
0
10
-156.0
20
29.0
30
0.0
0
VERTEX
8
0
75
0
10
156.0
20
29.0
30
0.0
0
VERTEX
8
0
75
0
10
156.0
20
-29.0
30
0.0
0
SEQEND
5
End_P
8
0
0
ENDSEC
0
EOF
