<?xml version="1.0" encoding="ISO-8859-1"?>
<svg

   xmlns:svg="http://www.w3.org/2000/svg"
   xmlns="http://www.w3.org/2000/svg"

 height="150.0" width="1000.0">
    <polygon
        points="276.0,12.0 277.1045694996616,12.0 278.0,12.895430500338414 278.0,14.0 278.0,15.104569499661586 277.1045694996616,16.0 276.0,16.0 274.8954305003384,16.0 274.0,15.104569499661586 274.0,14.0 274.0,12.895430500338414 274.8954305003384,12.0 276.0,12.0" style="fill:none;stroke:black;stroke-width:1;fill-rule:evenodd;"/>
    <polygon
        points="326.0,12.0 327.1045694996616,12.0 328.0,12.895430500338414 328.0,14.0 328.0,15.104569499661586 327.1045694996616,16.0 326.0,16.0 324.8954305003384,16.0 324.0,15.104569499661586 324.0,14.0 324.0,12.895430500338414 324.8954305003384,12.0 326.0,12.0" style="fill:none;stroke:black;stroke-width:1;fill-rule:evenodd;"/>
    <polygon
        points="476.0,12.0 477.1045694996616,12.0 478.0,12.895430500338414 478.0,14.0 478.0,15.104569499661586 477.1045694996616,16.0 476.0,16.0 474.8954305003384,16.0 474.0,15.104569499661586 474.0,14.0 474.0,12.895430500338414 474.8954305003384,12.0 476.0,12.0" style="fill:none;stroke:black;stroke-width:1;fill-rule:evenodd;"/>
    <polygon
        points="526.0,12.0 527.1045694996616,12.0 528.0,12.895430500338414 528.0,14.0 528.0,15.104569499661586 527.1045694996616,16.0 526.0,16.0 524.8954305003384,16.0 524.0,15.104569499661586 524.0,14.0 524.0,12.895430500338414 524.8954305003384,12.0 526.0,12.0" style="fill:none;stroke:black;stroke-width:1;fill-rule:evenodd;"/>
    <polygon
        points="676.0,12.0 677.1045694996616,12.0 678.0,12.895430500338414 678.0,14.0 678.0,15.104569499661586 677.1045694996616,16.0 676.0,16.0 674.8954305003384,16.0 674.0,15.104569499661586 674.0,14.0 674.0,12.895430500338414 674.8954305003384,12.0 676.0,12.0" style="fill:none;stroke:black;stroke-width:1;fill-rule:evenodd;"/>
    <polygon
        points="726.0,12.0 727.1045694996616,12.0 728.0,12.895430500338414 728.0,14.0 728.0,15.104569499661586 727.1045694996616,16.0 726.0,16.0 724.8954305003384,16.0 724.0,15.104569499661586 724.0,14.0 724.0,12.895430500338414 724.8954305003384,12.0 726.0,12.0" style="fill:none;stroke:black;stroke-width:1;fill-rule:evenodd;"/>
    <polygon
        points="276.0,24.0 277.1045694996616,24.0 278.0,24.895430500338414 278.0,26.0 278.0,27.104569499661586 277.1045694996616,28.0 276.0,28.0 274.8954305003384,28.0 274.0,27.104569499661586 274.0,26.0 274.0,24.895430500338414 274.8954305003384,24.0 276.0,24.0" style="fill:none;stroke:black;stroke-width:1;fill-rule:evenodd;"/>
    <polygon
        points="326.0,24.0 327.1045694996616,24.0 328.0,24.895430500338414 328.0,26.0 328.0,27.104569499661586 327.1045694996616,28.0 326.0,28.0 324.8954305003384,28.0 324.0,27.104569499661586 324.0,26.0 324.0,24.895430500338414 324.8954305003384,24.0 326.0,24.0" style="fill:none;stroke:black;stroke-width:1;fill-rule:evenodd;"/>
    <polygon
        points="476.0,24.0 477.1045694996616,24.0 478.0,24.895430500338414 478.0,26.0 478.0,27.104569499661586 477.1045694996616,28.0 476.0,28.0 474.8954305003384,28.0 474.0,27.104569499661586 474.0,26.0 474.0,24.895430500338414 474.8954305003384,24.0 476.0,24.0" style="fill:none;stroke:black;stroke-width:1;fill-rule:evenodd;"/>
    <polygon
        points="526.0,24.0 527.1045694996616,24.0 528.0,24.895430500338414 528.0,26.0 528.0,27.104569499661586 527.1045694996616,28.0 526.0,28.0 524.8954305003384,28.0 524.0,27.104569499661586 524.0,26.0 524.0,24.895430500338414 524.8954305003384,24.0 526.0,24.0" style="fill:none;stroke:black;stroke-width:1;fill-rule:evenodd;"/>
    <polygon
        points="676.0,24.0 677.1045694996616,24.0 678.0,24.895430500338414 678.0,26.0 678.0,27.104569499661586 677.1045694996616,28.0 676.0,28.0 674.8954305003384,28.0 674.0,27.104569499661586 674.0,26.0 674.0,24.895430500338414 674.8954305003384,24.0 676.0,24.0" style="fill:none;stroke:black;stroke-width:1;fill-rule:evenodd;"/>
    <polygon
        points="726.0,24.0 727.1045694996616,24.0 728.0,24.895430500338414 728.0,26.0 728.0,27.104569499661586 727.1045694996616,28.0 726.0,28.0 724.8954305003384,28.0 724.0,27.104569499661586 724.0,26.0 724.0,24.895430500338414 724.8954305003384,24.0 726.0,24.0" style="fill:none;stroke:black;stroke-width:1;fill-rule:evenodd;"/>
    <polygon
        points="816.0,30.0 817.1045694996616,30.0 818.0,30.895430500338414 818.0,32.0 818.0,33.10456949966159 817.1045694996616,34.0 816.0,34.0 814.8954305003384,34.0 814.0,33.10456949966159 814.0,32.0 814.0,30.895430500338414 814.8954305003384,30.0 816.0,30.0" style="fill:none;stroke:black;stroke-width:1;fill-rule:evenodd;"/>
    <polygon
        points="886.0,30.0 887.1045694996616,30.0 888.0,30.895430500338414 888.0,32.0 888.0,33.10456949966159 887.1045694996616,34.0 886.0,34.0 884.8954305003384,34.0 884.0,33.10456949966159 884.0,32.0 884.0,30.895430500338414 884.8954305003384,30.0 886.0,30.0" style="fill:none;stroke:black;stroke-width:1;fill-rule:evenodd;"/>
    <polygon
        points="276.0,36.0 277.1045694996616,36.0 278.0,36.89543050033841 278.0,38.0 278.0,39.10456949966159 277.1045694996616,40.0 276.0,40.0 274.8954305003384,40.0 274.0,39.10456949966159 274.0,38.0 274.0,36.89543050033841 274.8954305003384,36.0 276.0,36.0" style="fill:none;stroke:black;stroke-width:1;fill-rule:evenodd;"/>
    <polygon
        points="326.0,36.0 327.1045694996616,36.0 328.0,36.89543050033841 328.0,38.0 328.0,39.10456949966159 327.1045694996616,40.0 326.0,40.0 324.8954305003384,40.0 324.0,39.10456949966159 324.0,38.0 324.0,36.89543050033841 324.8954305003384,36.0 326.0,36.0" style="fill:none;stroke:black;stroke-width:1;fill-rule:evenodd;"/>
    <polygon
        points="476.0,36.0 477.1045694996616,36.0 478.0,36.89543050033841 478.0,38.0 478.0,39.10456949966159 477.1045694996616,40.0 476.0,40.0 474.8954305003384,40.0 474.0,39.10456949966159 474.0,38.0 474.0,36.89543050033841 474.8954305003384,36.0 476.0,36.0" style="fill:none;stroke:black;stroke-width:1;fill-rule:evenodd;"/>
    <polygon
        points="526.0,36.0 527.1045694996616,36.0 528.0,36.89543050033841 528.0,38.0 528.0,39.10456949966159 527.1045694996616,40.0 526.0,40.0 524.8954305003384,40.0 524.0,39.10456949966159 524.0,38.0 524.0,36.89543050033841 524.8954305003384,36.0 526.0,36.0" style="fill:none;stroke:black;stroke-width:1;fill-rule:evenodd;"/>
    <polygon
        points="676.0,36.0 677.1045694996616,36.0 678.0,36.89543050033841 678.0,38.0 678.0,39.10456949966159 677.1045694996616,40.0 676.0,40.0 674.8954305003384,40.0 674.0,39.10456949966159 674.0,38.0 674.0,36.89543050033841 674.8954305003384,36.0 676.0,36.0" style="fill:none;stroke:black;stroke-width:1;fill-rule:evenodd;"/>
    <polygon
        points="726.0,36.0 727.1045694996616,36.0 728.0,36.89543050033841 728.0,38.0 728.0,39.10456949966159 727.1045694996616,40.0 726.0,40.0 724.8954305003384,40.0 724.0,39.10456949966159 724.0,38.0 724.0,36.89543050033841 724.8954305003384,36.0 726.0,36.0" style="fill:none;stroke:black;stroke-width:1;fill-rule:evenodd;"/>
    <polygon
        points="816.0,42.0 817.1045694996616,42.0 818.0,42.89543050033841 818.0,44.0 818.0,45.10456949966159 817.1045694996616,46.0 816.0,46.0 814.8954305003384,46.0 814.0,45.10456949966159 814.0,44.0 814.0,42.89543050033841 814.8954305003384,42.0 816.0,42.0" style="fill:none;stroke:black;stroke-width:1;fill-rule:evenodd;"/>
    <polygon
        points="886.0,42.0 887.1045694996616,42.0 888.0,42.89543050033841 888.0,44.0 888.0,45.10456949966159 887.1045694996616,46.0 886.0,46.0 884.8954305003384,46.0 884.0,45.10456949966159 884.0,44.0 884.0,42.89543050033841 884.8954305003384,42.0 886.0,42.0" style="fill:none;stroke:black;stroke-width:1;fill-rule:evenodd;"/>
    <polygon
        points="317.0,2.5 317.2761423749154,2.5 317.5,2.7238576250846034 317.5,3.0 317.5,47.0 317.5,47.276142374915395 317.2761423749154,47.5 317.0,47.5 283.0,47.5 282.7238576250846,47.5 282.5,47.276142374915395 282.5,47.0 282.5,3.0 282.5,2.7238576250846034 282.7238576250846,2.5 283.0,2.5" style="fill:none;stroke:black;stroke-width:1;fill-rule:evenodd;"/>
    <polygon
        points="517.0,2.5 517.2761423749154,2.5 517.5,2.7238576250846034 517.5,3.0 517.5,47.0 517.5,47.276142374915395 517.2761423749154,47.5 517.0,47.5 483.0,47.5 482.7238576250846,47.5 482.5,47.276142374915395 482.5,47.0 482.5,3.0 482.5,2.7238576250846034 482.7238576250846,2.5 483.0,2.5" style="fill:none;stroke:black;stroke-width:1;fill-rule:evenodd;"/>
    <polygon
        points="717.0,2.5 717.2761423749154,2.5 717.5,2.7238576250846034 717.5,3.0 717.5,47.0 717.5,47.276142374915395 717.2761423749154,47.5 717.0,47.5 683.0,47.5 682.7238576250846,47.5 682.5,47.276142374915395 682.5,47.0 682.5,3.0 682.5,2.7238576250846034 682.7238576250846,2.5 683.0,2.5" style="fill:none;stroke:black;stroke-width:1;fill-rule:evenodd;"/>
    <polygon
        points="276.0,48.0 277.1045694996616,48.0 278.0,48.89543050033841 278.0,50.0 278.0,51.10456949966159 277.1045694996616,52.0 276.0,52.0 274.8954305003384,52.0 274.0,51.10456949966159 274.0,50.0 274.0,48.89543050033841 274.8954305003384,48.0 276.0,48.0" style="fill:none;stroke:black;stroke-width:1;fill-rule:evenodd;"/>
    <polygon
        points="326.0,48.0 327.1045694996616,48.0 328.0,48.89543050033841 328.0,50.0 328.0,51.10456949966159 327.1045694996616,52.0 326.0,52.0 324.8954305003384,52.0 324.0,51.10456949966159 324.0,50.0 324.0,48.89543050033841 324.8954305003384,48.0 326.0,48.0" style="fill:none;stroke:black;stroke-width:1;fill-rule:evenodd;"/>
    <polygon
        points="476.0,48.0 477.1045694996616,48.0 478.0,48.89543050033841 478.0,50.0 478.0,51.10456949966159 477.1045694996616,52.0 476.0,52.0 474.8954305003384,52.0 474.0,51.10456949966159 474.0,50.0 474.0,48.89543050033841 474.8954305003384,48.0 476.0,48.0" style="fill:none;stroke:black;stroke-width:1;fill-rule:evenodd;"/>
    <polygon
        points="526.0,48.0 527.1045694996616,48.0 528.0,48.89543050033841 528.0,50.0 528.0,51.10456949966159 527.1045694996616,52.0 526.0,52.0 524.8954305003384,52.0 524.0,51.10456949966159 524.0,50.0 524.0,48.89543050033841 524.8954305003384,48.0 526.0,48.0" style="fill:none;stroke:black;stroke-width:1;fill-rule:evenodd;"/>
    <polygon
        points="676.0,48.0 677.1045694996616,48.0 678.0,48.89543050033841 678.0,50.0 678.0,51.10456949966159 677.1045694996616,52.0 676.0,52.0 674.8954305003384,52.0 674.0,51.10456949966159 674.0,50.0 674.0,48.89543050033841 674.8954305003384,48.0 676.0,48.0" style="fill:none;stroke:black;stroke-width:1;fill-rule:evenodd;"/>
    <polygon
        points="726.0,48.0 727.1045694996616,48.0 728.0,48.89543050033841 728.0,50.0 728.0,51.10456949966159 727.1045694996616,52.0 726.0,52.0 724.8954305003384,52.0 724.0,51.10456949966159 724.0,50.0 724.0,48.89543050033841 724.8954305003384,48.0 726.0,48.0" style="fill:none;stroke:black;stroke-width:1;fill-rule:evenodd;"/>
    <polygon
        points="816.0,54.0 817.1045694996616,54.0 818.0,54.89543050033841 818.0,56.0 818.0,57.10456949966159 817.1045694996616,58.0 816.0,58.0 814.8954305003384,58.0 814.0,57.10456949966159 814.0,56.0 814.0,54.89543050033841 814.8954305003384,54.0 816.0,54.0" style="fill:none;stroke:black;stroke-width:1;fill-rule:evenodd;"/>
    <polygon
        points="886.0,54.0 887.1045694996616,54.0 888.0,54.89543050033841 888.0,56.0 888.0,57.10456949966159 887.1045694996616,58.0 886.0,58.0 884.8954305003384,58.0 884.0,57.10456949966159 884.0,56.0 884.0,54.89543050033841 884.8954305003384,54.0 886.0,54.0" style="fill:none;stroke:black;stroke-width:1;fill-rule:evenodd;"/>
    <polygon
        points="816.0,66.0 817.1045694996616,66.0 818.0,66.8954305003384 818.0,68.0 818.0,69.10456949966158 817.1045694996616,70.0 816.0,70.0 814.8954305003384,70.0 814.0,69.10456949966158 814.0,68.0 814.0,66.8954305003384 814.8954305003384,66.0 816.0,66.0" style="fill:none;stroke:black;stroke-width:1;fill-rule:evenodd;"/>
    <polygon
        points="872.5,40.0 873.880711874577,40.0 875.0,41.11928812542302 875.0,42.5 875.0,67.5 875.0,68.88071187457699 873.880711874577,70.0 872.5,70.0 827.5,70.0 826.119288125423,70.0 825.0,68.88071187457699 825.0,67.5 825.0,42.5 825.0,41.11928812542302 826.119288125423,40.0 827.5,40.0" style="fill:none;stroke:black;stroke-width:1;fill-rule:evenodd;"/>
    <polygon
        points="886.0,66.0 887.1045694996616,66.0 888.0,66.8954305003384 888.0,68.0 888.0,69.10456949966158 887.1045694996616,70.0 886.0,70.0 884.8954305003384,70.0 884.0,69.10456949966158 884.0,68.0 884.0,66.8954305003384 884.8954305003384,66.0 886.0,66.0" style="fill:none;stroke:black;stroke-width:1;fill-rule:evenodd;"/>
    <polygon
        points="816.0,78.0 817.1045694996616,78.0 818.0,78.8954305003384 818.0,80.0 818.0,81.10456949966158 817.1045694996616,82.0 816.0,82.0 814.8954305003384,82.0 814.0,81.10456949966158 814.0,80.0 814.0,78.8954305003384 814.8954305003384,78.0 816.0,78.0" style="fill:none;stroke:black;stroke-width:1;fill-rule:evenodd;"/>
    <polygon
        points="886.0,78.0 887.1045694996616,78.0 888.0,78.8954305003384 888.0,80.0 888.0,81.10456949966158 887.1045694996616,82.0 886.0,82.0 884.8954305003384,82.0 884.0,81.10456949966158 884.0,80.0 884.0,78.8954305003384 884.8954305003384,78.0 886.0,78.0" style="fill:none;stroke:black;stroke-width:1;fill-rule:evenodd;"/>
    <polygon
        points="0.0,0.0 0.0,150.0 952.499084532626,150.0 950.9298620546118,147.9108486738612 950.0,145.31401479679133 950.0,142.5 950.0,107.5 950.0,100.59644062711509 955.596440627115,95.0 962.5,95.0 1000.0,95.0 1000.0,30.0 962.5,30.0 955.596440627115,30.0 950.0,24.403559372884917 950.0,17.5 950.0,0.0 726.0,0.0 727.1045694996616,0.0 728.0,0.8954305003384133 728.0,2.0 728.0,3.1045694996615865 727.1045694996616,4.0 726.0,4.0 724.8954305003384,4.0 724.0,3.1045694996615865 724.0,2.0 724.0,0.8954305003384133 724.8954305003384,0.0 726.0,0.0 676.0,0.0 677.1045694996616,0.0 678.0,0.8954305003384133 678.0,2.0 678.0,3.1045694996615865 677.1045694996616,4.0 676.0,4.0 674.8954305003384,4.0 674.0,3.1045694996615865 674.0,2.0 674.0,0.8954305003384133 674.8954305003384,0.0 676.0,0.0 526.0,0.0 527.1045694996616,0.0 528.0,0.8954305003384133 528.0,2.0 528.0,3.1045694996615865 527.1045694996616,4.0 526.0,4.0 524.8954305003384,4.0 524.0,3.1045694996615865 524.0,2.0 524.0,0.8954305003384133 524.8954305003384,0.0 526.0,0.0 476.0,0.0 477.1045694996616,0.0 478.0,0.8954305003384133 478.0,2.0 478.0,3.1045694996615865 477.1045694996616,4.0 476.0,4.0 474.8954305003384,4.0 474.0,3.1045694996615865 474.0,2.0 474.0,0.8954305003384133 474.8954305003384,0.0 476.0,0.0 326.0,0.0 327.1045694996616,0.0 328.0,0.8954305003384133 328.0,2.0 328.0,3.1045694996615865 327.1045694996616,4.0 326.0,4.0 324.8954305003384,4.0 324.0,3.1045694996615865 324.0,2.0 324.0,0.8954305003384133 324.8954305003384,0.0 326.0,0.0 276.0,0.0 277.1045694996616,0.0 278.0,0.8954305003384133 278.0,2.0 278.0,3.1045694996615865 277.1045694996616,4.0 276.0,4.0 274.8954305003384,4.0 274.0,3.1045694996615865 274.0,2.0 274.0,0.8954305003384133 274.8954305003384,0.0 276.0,0.0" style="fill:none;stroke:black;stroke-width:1;fill-rule:evenodd;"/>
</svg>
