<?xml version="1.0" encoding="ISO-8859-1"?>
<svg height="150.0" width="1000.0">
    <polygon
        points="295.0,6.0 296.1045694996616,6.0 297.0,6.8954305003384135 297.0,8.0 297.0,9.104569499661586 296.1045694996616,10.0 295.0,10.0 293.8954305003384,10.0 293.0,9.104569499661586 293.0,8.0 293.0,6.8954305003384135 293.8954305003384,6.0 295.0,6.0" style="fill:none;stroke:black;stroke-width:1;fill-rule:evenodd;"/>
    <polygon
        points="345.0,6.0 346.1045694996616,6.0 347.0,6.8954305003384135 347.0,8.0 347.0,9.104569499661586 346.1045694996616,10.0 345.0,10.0 343.8954305003384,10.0 343.0,9.104569499661586 343.0,8.0 343.0,6.8954305003384135 343.8954305003384,6.0 345.0,6.0" style="fill:none;stroke:black;stroke-width:1;fill-rule:evenodd;"/>
    <polygon
        points="495.0,6.0 496.1045694996616,6.0 497.0,6.8954305003384135 497.0,8.0 497.0,9.104569499661586 496.1045694996616,10.0 495.0,10.0 493.8954305003384,10.0 493.0,9.104569499661586 493.0,8.0 493.0,6.8954305003384135 493.8954305003384,6.0 495.0,6.0" style="fill:none;stroke:black;stroke-width:1;fill-rule:evenodd;"/>
    <polygon
        points="545.0,6.0 546.1045694996616,6.0 547.0,6.8954305003384135 547.0,8.0 547.0,9.104569499661586 546.1045694996616,10.0 545.0,10.0 543.8954305003384,10.0 543.0,9.104569499661586 543.0,8.0 543.0,6.8954305003384135 543.8954305003384,6.0 545.0,6.0" style="fill:none;stroke:black;stroke-width:1;fill-rule:evenodd;"/>
    <polygon
        points="695.0,6.0 696.1045694996616,6.0 697.0,6.8954305003384135 697.0,8.0 697.0,9.104569499661586 696.1045694996616,10.0 695.0,10.0 693.8954305003384,10.0 693.0,9.104569499661586 693.0,8.0 693.0,6.8954305003384135 693.8954305003384,6.0 695.0,6.0" style="fill:none;stroke:black;stroke-width:1;fill-rule:evenodd;"/>
    <polygon
        points="745.0,6.0 746.1045694996616,6.0 747.0,6.8954305003384135 747.0,8.0 747.0,9.104569499661586 746.1045694996616,10.0 745.0,10.0 743.8954305003384,10.0 743.0,9.104569499661586 743.0,8.0 743.0,6.8954305003384135 743.8954305003384,6.0 745.0,6.0" style="fill:none;stroke:black;stroke-width:1;fill-rule:evenodd;"/>
    <polygon
        points="431.0,8.0 432.1045694996616,8.0 433.0,8.895430500338414 433.0,10.0 433.0,11.104569499661586 432.1045694996616,12.0 431.0,12.0 429.8954305003384,12.0 429.0,11.104569499661586 429.0,10.0 429.0,8.895430500338414 429.8954305003384,8.0 431.0,8.0" style="fill:none;stroke:black;stroke-width:1;fill-rule:evenodd;"/>
    <polygon
        points="826.0,8.0 827.1045694996616,8.0 828.0,8.895430500338414 828.0,10.0 828.0,11.104569499661586 827.1045694996616,12.0 826.0,12.0 824.8954305003384,12.0 824.0,11.104569499661586 824.0,10.0 824.0,8.895430500338414 824.8954305003384,8.0 826.0,8.0" style="fill:none;stroke:black;stroke-width:1;fill-rule:evenodd;"/>
    <polygon
        points="923.0,8.0 924.1045694996616,8.0 925.0,8.895430500338414 925.0,10.0 925.0,11.104569499661586 924.1045694996616,12.0 923.0,12.0 921.8954305003384,12.0 921.0,11.104569499661586 921.0,10.0 921.0,8.895430500338414 921.8954305003384,8.0 923.0,8.0" style="fill:none;stroke:black;stroke-width:1;fill-rule:evenodd;"/>
    <polygon
        points="295.0,18.0 296.1045694996616,18.0 297.0,18.895430500338414 297.0,20.0 297.0,21.104569499661586 296.1045694996616,22.0 295.0,22.0 293.8954305003384,22.0 293.0,21.104569499661586 293.0,20.0 293.0,18.895430500338414 293.8954305003384,18.0 295.0,18.0" style="fill:none;stroke:black;stroke-width:1;fill-rule:evenodd;"/>
    <polygon
        points="345.0,18.0 346.1045694996616,18.0 347.0,18.895430500338414 347.0,20.0 347.0,21.104569499661586 346.1045694996616,22.0 345.0,22.0 343.8954305003384,22.0 343.0,21.104569499661586 343.0,20.0 343.0,18.895430500338414 343.8954305003384,18.0 345.0,18.0" style="fill:none;stroke:black;stroke-width:1;fill-rule:evenodd;"/>
    <polygon
        points="495.0,18.0 496.1045694996616,18.0 497.0,18.895430500338414 497.0,20.0 497.0,21.104569499661586 496.1045694996616,22.0 495.0,22.0 493.8954305003384,22.0 493.0,21.104569499661586 493.0,20.0 493.0,18.895430500338414 493.8954305003384,18.0 495.0,18.0" style="fill:none;stroke:black;stroke-width:1;fill-rule:evenodd;"/>
    <polygon
        points="545.0,18.0 546.1045694996616,18.0 547.0,18.895430500338414 547.0,20.0 547.0,21.104569499661586 546.1045694996616,22.0 545.0,22.0 543.8954305003384,22.0 543.0,21.104569499661586 543.0,20.0 543.0,18.895430500338414 543.8954305003384,18.0 545.0,18.0" style="fill:none;stroke:black;stroke-width:1;fill-rule:evenodd;"/>
    <polygon
        points="695.0,18.0 696.1045694996616,18.0 697.0,18.895430500338414 697.0,20.0 697.0,21.104569499661586 696.1045694996616,22.0 695.0,22.0 693.8954305003384,22.0 693.0,21.104569499661586 693.0,20.0 693.0,18.895430500338414 693.8954305003384,18.0 695.0,18.0" style="fill:none;stroke:black;stroke-width:1;fill-rule:evenodd;"/>
    <polygon
        points="745.0,18.0 746.1045694996616,18.0 747.0,18.895430500338414 747.0,20.0 747.0,21.104569499661586 746.1045694996616,22.0 745.0,22.0 743.8954305003384,22.0 743.0,21.104569499661586 743.0,20.0 743.0,18.895430500338414 743.8954305003384,18.0 745.0,18.0" style="fill:none;stroke:black;stroke-width:1;fill-rule:evenodd;"/>
    <polygon
        points="431.0,20.0 432.1045694996616,20.0 433.0,20.895430500338414 433.0,22.0 433.0,23.104569499661586 432.1045694996616,24.0 431.0,24.0 429.8954305003384,24.0 429.0,23.104569499661586 429.0,22.0 429.0,20.895430500338414 429.8954305003384,20.0 431.0,20.0" style="fill:none;stroke:black;stroke-width:1;fill-rule:evenodd;"/>
    <polygon
        points="826.0,20.0 827.1045694996616,20.0 828.0,20.895430500338414 828.0,22.0 828.0,23.104569499661586 827.1045694996616,24.0 826.0,24.0 824.8954305003384,24.0 824.0,23.104569499661586 824.0,22.0 824.0,20.895430500338414 824.8954305003384,20.0 826.0,20.0" style="fill:none;stroke:black;stroke-width:1;fill-rule:evenodd;"/>
    <polygon
        points="923.0,20.0 924.1045694996616,20.0 925.0,20.895430500338414 925.0,22.0 925.0,23.104569499661586 924.1045694996616,24.0 923.0,24.0 921.8954305003384,24.0 921.0,23.104569499661586 921.0,22.0 921.0,20.895430500338414 921.8954305003384,20.0 923.0,20.0" style="fill:none;stroke:black;stroke-width:1;fill-rule:evenodd;"/>
    <polygon
        points="295.0,30.0 296.1045694996616,30.0 297.0,30.895430500338414 297.0,32.0 297.0,33.10456949966159 296.1045694996616,34.0 295.0,34.0 293.8954305003384,34.0 293.0,33.10456949966159 293.0,32.0 293.0,30.895430500338414 293.8954305003384,30.0 295.0,30.0" style="fill:none;stroke:black;stroke-width:1;fill-rule:evenodd;"/>
    <polygon
        points="345.0,30.0 346.1045694996616,30.0 347.0,30.895430500338414 347.0,32.0 347.0,33.10456949966159 346.1045694996616,34.0 345.0,34.0 343.8954305003384,34.0 343.0,33.10456949966159 343.0,32.0 343.0,30.895430500338414 343.8954305003384,30.0 345.0,30.0" style="fill:none;stroke:black;stroke-width:1;fill-rule:evenodd;"/>
    <polygon
        points="495.0,30.0 496.1045694996616,30.0 497.0,30.895430500338414 497.0,32.0 497.0,33.10456949966159 496.1045694996616,34.0 495.0,34.0 493.8954305003384,34.0 493.0,33.10456949966159 493.0,32.0 493.0,30.895430500338414 493.8954305003384,30.0 495.0,30.0" style="fill:none;stroke:black;stroke-width:1;fill-rule:evenodd;"/>
    <polygon
        points="545.0,30.0 546.1045694996616,30.0 547.0,30.895430500338414 547.0,32.0 547.0,33.10456949966159 546.1045694996616,34.0 545.0,34.0 543.8954305003384,34.0 543.0,33.10456949966159 543.0,32.0 543.0,30.895430500338414 543.8954305003384,30.0 545.0,30.0" style="fill:none;stroke:black;stroke-width:1;fill-rule:evenodd;"/>
    <polygon
        points="695.0,30.0 696.1045694996616,30.0 697.0,30.895430500338414 697.0,32.0 697.0,33.10456949966159 696.1045694996616,34.0 695.0,34.0 693.8954305003384,34.0 693.0,33.10456949966159 693.0,32.0 693.0,30.895430500338414 693.8954305003384,30.0 695.0,30.0" style="fill:none;stroke:black;stroke-width:1;fill-rule:evenodd;"/>
    <polygon
        points="745.0,30.0 746.1045694996616,30.0 747.0,30.895430500338414 747.0,32.0 747.0,33.10456949966159 746.1045694996616,34.0 745.0,34.0 743.8954305003384,34.0 743.0,33.10456949966159 743.0,32.0 743.0,30.895430500338414 743.8954305003384,30.0 745.0,30.0" style="fill:none;stroke:black;stroke-width:1;fill-rule:evenodd;"/>
    <polygon
        points="431.0,32.0 432.1045694996616,32.0 433.0,32.89543050033841 433.0,34.0 433.0,35.10456949966159 432.1045694996616,36.0 431.0,36.0 429.8954305003384,36.0 429.0,35.10456949966159 429.0,34.0 429.0,32.89543050033841 429.8954305003384,32.0 431.0,32.0" style="fill:none;stroke:black;stroke-width:1;fill-rule:evenodd;"/>
    <polygon
        points="826.0,32.0 827.1045694996616,32.0 828.0,32.89543050033841 828.0,34.0 828.0,35.10456949966159 827.1045694996616,36.0 826.0,36.0 824.8954305003384,36.0 824.0,35.10456949966159 824.0,34.0 824.0,32.89543050033841 824.8954305003384,32.0 826.0,32.0" style="fill:none;stroke:black;stroke-width:1;fill-rule:evenodd;"/>
    <polygon
        points="923.0,32.0 924.1045694996616,32.0 925.0,32.89543050033841 925.0,34.0 925.0,35.10456949966159 924.1045694996616,36.0 923.0,36.0 921.8954305003384,36.0 921.0,35.10456949966159 921.0,34.0 921.0,32.89543050033841 921.8954305003384,32.0 923.0,32.0" style="fill:none;stroke:black;stroke-width:1;fill-rule:evenodd;"/>
    <polygon
        points="295.0,42.0 296.1045694996616,42.0 297.0,42.89543050033841 297.0,44.0 297.0,45.10456949966159 296.1045694996616,46.0 295.0,46.0 293.8954305003384,46.0 293.0,45.10456949966159 293.0,44.0 293.0,42.89543050033841 293.8954305003384,42.0 295.0,42.0" style="fill:none;stroke:black;stroke-width:1;fill-rule:evenodd;"/>
    <polygon
        points="345.0,42.0 346.1045694996616,42.0 347.0,42.89543050033841 347.0,44.0 347.0,45.10456949966159 346.1045694996616,46.0 345.0,46.0 343.8954305003384,46.0 343.0,45.10456949966159 343.0,44.0 343.0,42.89543050033841 343.8954305003384,42.0 345.0,42.0" style="fill:none;stroke:black;stroke-width:1;fill-rule:evenodd;"/>
    <polygon
        points="495.0,42.0 496.1045694996616,42.0 497.0,42.89543050033841 497.0,44.0 497.0,45.10456949966159 496.1045694996616,46.0 495.0,46.0 493.8954305003384,46.0 493.0,45.10456949966159 493.0,44.0 493.0,42.89543050033841 493.8954305003384,42.0 495.0,42.0" style="fill:none;stroke:black;stroke-width:1;fill-rule:evenodd;"/>
    <polygon
        points="545.0,42.0 546.1045694996616,42.0 547.0,42.89543050033841 547.0,44.0 547.0,45.10456949966159 546.1045694996616,46.0 545.0,46.0 543.8954305003384,46.0 543.0,45.10456949966159 543.0,44.0 543.0,42.89543050033841 543.8954305003384,42.0 545.0,42.0" style="fill:none;stroke:black;stroke-width:1;fill-rule:evenodd;"/>
    <polygon
        points="695.0,42.0 696.1045694996616,42.0 697.0,42.89543050033841 697.0,44.0 697.0,45.10456949966159 696.1045694996616,46.0 695.0,46.0 693.8954305003384,46.0 693.0,45.10456949966159 693.0,44.0 693.0,42.89543050033841 693.8954305003384,42.0 695.0,42.0" style="fill:none;stroke:black;stroke-width:1;fill-rule:evenodd;"/>
    <polygon
        points="745.0,42.0 746.1045694996616,42.0 747.0,42.89543050033841 747.0,44.0 747.0,45.10456949966159 746.1045694996616,46.0 745.0,46.0 743.8954305003384,46.0 743.0,45.10456949966159 743.0,44.0 743.0,42.89543050033841 743.8954305003384,42.0 745.0,42.0" style="fill:none;stroke:black;stroke-width:1;fill-rule:evenodd;"/>
    <polygon
        points="431.0,44.0 432.1045694996616,44.0 433.0,44.89543050033841 433.0,46.0 433.0,47.10456949966159 432.1045694996616,48.0 431.0,48.0 429.8954305003384,48.0 429.0,47.10456949966159 429.0,46.0 429.0,44.89543050033841 429.8954305003384,44.0 431.0,44.0" style="fill:none;stroke:black;stroke-width:1;fill-rule:evenodd;"/>
    <polygon
        points="826.0,44.0 827.1045694996616,44.0 828.0,44.89543050033841 828.0,46.0 828.0,47.10456949966159 827.1045694996616,48.0 826.0,48.0 824.8954305003384,48.0 824.0,47.10456949966159 824.0,46.0 824.0,44.89543050033841 824.8954305003384,44.0 826.0,44.0" style="fill:none;stroke:black;stroke-width:1;fill-rule:evenodd;"/>
    <polygon
        points="923.0,44.0 924.1045694996616,44.0 925.0,44.89543050033841 925.0,46.0 925.0,47.10456949966159 924.1045694996616,48.0 923.0,48.0 921.8954305003384,48.0 921.0,47.10456949966159 921.0,46.0 921.0,44.89543050033841 921.8954305003384,44.0 923.0,44.0" style="fill:none;stroke:black;stroke-width:1;fill-rule:evenodd;"/>
    <polygon
        points="910.0,23.0 912.761423749154,23.0 915.0,25.238576250846034 915.0,28.0 915.0,52.0 915.0,54.76142374915397 912.761423749154,57.0 910.0,57.0 840.0,57.0 837.238576250846,57.0 835.0,54.76142374915397 835.0,52.0 835.0,28.0 835.0,25.238576250846034 837.238576250846,23.0 840.0,23.0" style="fill:none;stroke:black;stroke-width:1;fill-rule:evenodd;"/>
    <polygon
        points="431.0,56.0 432.1045694996616,56.0 433.0,56.89543050033841 433.0,58.0 433.0,59.10456949966159 432.1045694996616,60.0 431.0,60.0 429.8954305003384,60.0 429.0,59.10456949966159 429.0,58.0 429.0,56.89543050033841 429.8954305003384,56.0 431.0,56.0" style="fill:none;stroke:black;stroke-width:1;fill-rule:evenodd;"/>
    <polygon
        points="826.0,56.0 827.1045694996616,56.0 828.0,56.89543050033841 828.0,58.0 828.0,59.10456949966159 827.1045694996616,60.0 826.0,60.0 824.8954305003384,60.0 824.0,59.10456949966159 824.0,58.0 824.0,56.89543050033841 824.8954305003384,56.0 826.0,56.0" style="fill:none;stroke:black;stroke-width:1;fill-rule:evenodd;"/>
    <polygon
        points="923.0,56.0 924.1045694996616,56.0 925.0,56.89543050033841 925.0,58.0 925.0,59.10456949966159 924.1045694996616,60.0 923.0,60.0 921.8954305003384,60.0 921.0,59.10456949966159 921.0,58.0 921.0,56.89543050033841 921.8954305003384,56.0 923.0,56.0" style="fill:none;stroke:black;stroke-width:1;fill-rule:evenodd;"/>
    <polygon
        points="431.0,72.0 432.1045694996616,72.0 433.0,72.8954305003384 433.0,74.0 433.0,75.10456949966158 432.1045694996616,76.0 431.0,76.0 429.8954305003384,76.0 429.0,75.10456949966158 429.0,74.0 429.0,72.8954305003384 429.8954305003384,72.0 431.0,72.0" style="fill:none;stroke:black;stroke-width:1;fill-rule:evenodd;"/>
    <polygon
        points="826.0,72.0 827.1045694996616,72.0 828.0,72.8954305003384 828.0,74.0 828.0,75.10456949966158 827.1045694996616,76.0 826.0,76.0 824.8954305003384,76.0 824.0,75.10456949966158 824.0,74.0 824.0,72.8954305003384 824.8954305003384,72.0 826.0,72.0" style="fill:none;stroke:black;stroke-width:1;fill-rule:evenodd;"/>
    <polygon
        points="923.0,72.0 924.1045694996616,72.0 925.0,72.8954305003384 925.0,74.0 925.0,75.10456949966158 924.1045694996616,76.0 923.0,76.0 921.8954305003384,76.0 921.0,75.10456949966158 921.0,74.0 921.0,72.8954305003384 921.8954305003384,72.0 923.0,72.0" style="fill:none;stroke:black;stroke-width:1;fill-rule:evenodd;"/>
    <polygon
        points="431.0,84.0 432.1045694996616,84.0 433.0,84.8954305003384 433.0,86.0 433.0,87.10456949966158 432.1045694996616,88.0 431.0,88.0 429.8954305003384,88.0 429.0,87.10456949966158 429.0,86.0 429.0,84.8954305003384 429.8954305003384,84.0 431.0,84.0" style="fill:none;stroke:black;stroke-width:1;fill-rule:evenodd;"/>
    <polygon
        points="826.0,84.0 827.1045694996616,84.0 828.0,84.8954305003384 828.0,86.0 828.0,87.10456949966158 827.1045694996616,88.0 826.0,88.0 824.8954305003384,88.0 824.0,87.10456949966158 824.0,86.0 824.0,84.8954305003384 824.8954305003384,84.0 826.0,84.0" style="fill:none;stroke:black;stroke-width:1;fill-rule:evenodd;"/>
    <polygon
        points="923.0,84.0 924.1045694996616,84.0 925.0,84.8954305003384 925.0,86.0 925.0,87.10456949966158 924.1045694996616,88.0 923.0,88.0 921.8954305003384,88.0 921.0,87.10456949966158 921.0,86.0 921.0,84.8954305003384 921.8954305003384,84.0 923.0,84.0" style="fill:none;stroke:black;stroke-width:1;fill-rule:evenodd;"/>
    <polygon
        points="5.0,96.0 6.1045694996615865,96.0 7.0,96.8954305003384 7.0,98.0 7.0,99.10456949966158 6.1045694996615865,100.0 5.0,100.0 3.8954305003384135,100.0 3.0,99.10456949966158 3.0,98.0 3.0,96.8954305003384 3.8954305003384135,96.0 5.0,96.0" style="fill:none;stroke:black;stroke-width:1;fill-rule:evenodd;"/>
    <polygon
        points="95.0,96.0 96.10456949966158,96.0 97.0,96.8954305003384 97.0,98.0 97.0,99.10456949966158 96.10456949966158,100.0 95.0,100.0 93.8954305003384,100.0 93.0,99.10456949966158 93.0,98.0 93.0,96.8954305003384 93.8954305003384,96.0 95.0,96.0" style="fill:none;stroke:black;stroke-width:1;fill-rule:evenodd;"/>
    <polygon
        points="431.0,96.0 432.1045694996616,96.0 433.0,96.8954305003384 433.0,98.0 433.0,99.10456949966158 432.1045694996616,100.0 431.0,100.0 429.8954305003384,100.0 429.0,99.10456949966158 429.0,98.0 429.0,96.8954305003384 429.8954305003384,96.0 431.0,96.0" style="fill:none;stroke:black;stroke-width:1;fill-rule:evenodd;"/>
    <polygon
        points="826.0,96.0 827.1045694996616,96.0 828.0,96.8954305003384 828.0,98.0 828.0,99.10456949966158 827.1045694996616,100.0 826.0,100.0 824.8954305003384,100.0 824.0,99.10456949966158 824.0,98.0 824.0,96.8954305003384 824.8954305003384,96.0 826.0,96.0" style="fill:none;stroke:black;stroke-width:1;fill-rule:evenodd;"/>
    <polygon
        points="923.0,96.0 924.1045694996616,96.0 925.0,96.8954305003384 925.0,98.0 925.0,99.10456949966158 924.1045694996616,100.0 923.0,100.0 921.8954305003384,100.0 921.0,99.10456949966158 921.0,98.0 921.0,96.8954305003384 921.8954305003384,96.0 923.0,96.0" style="fill:none;stroke:black;stroke-width:1;fill-rule:evenodd;"/>
    <polygon
        points="995.0,96.0 996.1045694996616,96.0 997.0,96.8954305003384 997.0,98.0 997.0,99.10456949966158 996.1045694996616,100.0 995.0,100.0 993.8954305003384,100.0 993.0,99.10456949966158 993.0,98.0 993.0,96.8954305003384 993.8954305003384,96.0 995.0,96.0" style="fill:none;stroke:black;stroke-width:1;fill-rule:evenodd;"/>
    <polygon
        points="5.0,108.0 6.1045694996615865,108.0 7.0,108.8954305003384 7.0,110.0 7.0,111.10456949966158 6.1045694996615865,112.0 5.0,112.0 3.8954305003384135,112.0 3.0,111.10456949966158 3.0,110.0 3.0,108.8954305003384 3.8954305003384135,108.0 5.0,108.0" style="fill:none;stroke:black;stroke-width:1;fill-rule:evenodd;"/>
    <polygon
        points="95.0,108.0 96.10456949966158,108.0 97.0,108.8954305003384 97.0,110.0 97.0,111.10456949966158 96.10456949966158,112.0 95.0,112.0 93.8954305003384,112.0 93.0,111.10456949966158 93.0,110.0 93.0,108.8954305003384 93.8954305003384,108.0 95.0,108.0" style="fill:none;stroke:black;stroke-width:1;fill-rule:evenodd;"/>
    <polygon
        points="431.0,108.0 432.1045694996616,108.0 433.0,108.8954305003384 433.0,110.0 433.0,111.10456949966158 432.1045694996616,112.0 431.0,112.0 429.8954305003384,112.0 429.0,111.10456949966158 429.0,110.0 429.0,108.8954305003384 429.8954305003384,108.0 431.0,108.0" style="fill:none;stroke:black;stroke-width:1;fill-rule:evenodd;"/>
    <polygon
        points="826.0,108.0 827.1045694996616,108.0 828.0,108.8954305003384 828.0,110.0 828.0,111.10456949966158 827.1045694996616,112.0 826.0,112.0 824.8954305003384,112.0 824.0,111.10456949966158 824.0,110.0 824.0,108.8954305003384 824.8954305003384,108.0 826.0,108.0" style="fill:none;stroke:black;stroke-width:1;fill-rule:evenodd;"/>
    <polygon
        points="923.0,108.0 924.1045694996616,108.0 925.0,108.8954305003384 925.0,110.0 925.0,111.10456949966158 924.1045694996616,112.0 923.0,112.0 921.8954305003384,112.0 921.0,111.10456949966158 921.0,110.0 921.0,108.8954305003384 921.8954305003384,108.0 923.0,108.0" style="fill:none;stroke:black;stroke-width:1;fill-rule:evenodd;"/>
    <polygon
        points="995.0,108.0 996.1045694996616,108.0 997.0,108.8954305003384 997.0,110.0 997.0,111.10456949966158 996.1045694996616,112.0 995.0,112.0 993.8954305003384,112.0 993.0,111.10456949966158 993.0,110.0 993.0,108.8954305003384 993.8954305003384,108.0 995.0,108.0" style="fill:none;stroke:black;stroke-width:1;fill-rule:evenodd;"/>
    <polygon
        points="5.0,120.0 6.1045694996615865,120.0 7.0,120.8954305003384 7.0,122.0 7.0,123.10456949966158 6.1045694996615865,124.0 5.0,124.0 3.8954305003384135,124.0 3.0,123.10456949966158 3.0,122.0 3.0,120.8954305003384 3.8954305003384135,120.0 5.0,120.0" style="fill:none;stroke:black;stroke-width:1;fill-rule:evenodd;"/>
    <polygon
        points="95.0,120.0 96.10456949966158,120.0 97.0,120.8954305003384 97.0,122.0 97.0,123.10456949966158 96.10456949966158,124.0 95.0,124.0 93.8954305003384,124.0 93.0,123.10456949966158 93.0,122.0 93.0,120.8954305003384 93.8954305003384,120.0 95.0,120.0" style="fill:none;stroke:black;stroke-width:1;fill-rule:evenodd;"/>
    <polygon
        points="431.0,120.0 432.1045694996616,120.0 433.0,120.8954305003384 433.0,122.0 433.0,123.10456949966158 432.1045694996616,124.0 431.0,124.0 429.8954305003384,124.0 429.0,123.10456949966158 429.0,122.0 429.0,120.8954305003384 429.8954305003384,120.0 431.0,120.0" style="fill:none;stroke:black;stroke-width:1;fill-rule:evenodd;"/>
    <polygon
        points="469.0,120.0 470.1045694996616,120.0 471.0,120.8954305003384 471.0,122.0 471.0,123.10456949966158 470.1045694996616,124.0 469.0,124.0 467.8954305003384,124.0 467.0,123.10456949966158 467.0,122.0 467.0,120.8954305003384 467.8954305003384,120.0 469.0,120.0" style="fill:none;stroke:black;stroke-width:1;fill-rule:evenodd;"/>
    <polygon
        points="481.0,120.0 482.1045694996616,120.0 483.0,120.8954305003384 483.0,122.0 483.0,123.10456949966158 482.1045694996616,124.0 481.0,124.0 479.8954305003384,124.0 479.0,123.10456949966158 479.0,122.0 479.0,120.8954305003384 479.8954305003384,120.0 481.0,120.0" style="fill:none;stroke:black;stroke-width:1;fill-rule:evenodd;"/>
    <polygon
        points="614.0,120.0 615.1045694996616,120.0 616.0,120.8954305003384 616.0,122.0 616.0,123.10456949966158 615.1045694996616,124.0 614.0,124.0 612.8954305003384,124.0 612.0,123.10456949966158 612.0,122.0 612.0,120.8954305003384 612.8954305003384,120.0 614.0,120.0" style="fill:none;stroke:black;stroke-width:1;fill-rule:evenodd;"/>
    <polygon
        points="626.0,120.0 627.1045694996616,120.0 628.0,120.8954305003384 628.0,122.0 628.0,123.10456949966158 627.1045694996616,124.0 626.0,124.0 624.8954305003384,124.0 624.0,123.10456949966158 624.0,122.0 624.0,120.8954305003384 624.8954305003384,120.0 626.0,120.0" style="fill:none;stroke:black;stroke-width:1;fill-rule:evenodd;"/>
    <polygon
        points="759.0,120.0 760.1045694996616,120.0 761.0,120.8954305003384 761.0,122.0 761.0,123.10456949966158 760.1045694996616,124.0 759.0,124.0 757.8954305003384,124.0 757.0,123.10456949966158 757.0,122.0 757.0,120.8954305003384 757.8954305003384,120.0 759.0,120.0" style="fill:none;stroke:black;stroke-width:1;fill-rule:evenodd;"/>
    <polygon
        points="771.0,120.0 772.1045694996616,120.0 773.0,120.8954305003384 773.0,122.0 773.0,123.10456949966158 772.1045694996616,124.0 771.0,124.0 769.8954305003384,124.0 769.0,123.10456949966158 769.0,122.0 769.0,120.8954305003384 769.8954305003384,120.0 771.0,120.0" style="fill:none;stroke:black;stroke-width:1;fill-rule:evenodd;"/>
    <polygon
        points="826.0,120.0 827.1045694996616,120.0 828.0,120.8954305003384 828.0,122.0 828.0,123.10456949966158 827.1045694996616,124.0 826.0,124.0 824.8954305003384,124.0 824.0,123.10456949966158 824.0,122.0 824.0,120.8954305003384 824.8954305003384,120.0 826.0,120.0" style="fill:none;stroke:black;stroke-width:1;fill-rule:evenodd;"/>
    <polygon
        points="923.0,120.0 924.1045694996616,120.0 925.0,120.8954305003384 925.0,122.0 925.0,123.10456949966158 924.1045694996616,124.0 923.0,124.0 921.8954305003384,124.0 921.0,123.10456949966158 921.0,122.0 921.0,120.8954305003384 921.8954305003384,120.0 923.0,120.0" style="fill:none;stroke:black;stroke-width:1;fill-rule:evenodd;"/>
    <polygon
        points="995.0,120.0 996.1045694996616,120.0 997.0,120.8954305003384 997.0,122.0 997.0,123.10456949966158 996.1045694996616,124.0 995.0,124.0 993.8954305003384,124.0 993.0,123.10456949966158 993.0,122.0 993.0,120.8954305003384 993.8954305003384,120.0 995.0,120.0" style="fill:none;stroke:black;stroke-width:1;fill-rule:evenodd;"/>
    <polygon
        points="431.0,138.0 432.1045694996616,138.0 433.0,138.89543050033842 433.0,140.0 433.0,141.10456949966158 432.1045694996616,142.0 431.0,142.0 429.8954305003384,142.0 429.0,141.10456949966158 429.0,140.0 429.0,138.89543050033842 429.8954305003384,138.0 431.0,138.0" style="fill:none;stroke:black;stroke-width:1;fill-rule:evenodd;"/>
    <polygon
        points="469.0,138.0 470.1045694996616,138.0 471.0,138.89543050033842 471.0,140.0 471.0,141.10456949966158 470.1045694996616,142.0 469.0,142.0 467.8954305003384,142.0 467.0,141.10456949966158 467.0,140.0 467.0,138.89543050033842 467.8954305003384,138.0 469.0,138.0" style="fill:none;stroke:black;stroke-width:1;fill-rule:evenodd;"/>
    <polygon
        points="481.0,138.0 482.1045694996616,138.0 483.0,138.89543050033842 483.0,140.0 483.0,141.10456949966158 482.1045694996616,142.0 481.0,142.0 479.8954305003384,142.0 479.0,141.10456949966158 479.0,140.0 479.0,138.89543050033842 479.8954305003384,138.0 481.0,138.0" style="fill:none;stroke:black;stroke-width:1;fill-rule:evenodd;"/>
    <polygon
        points="614.0,138.0 615.1045694996616,138.0 616.0,138.89543050033842 616.0,140.0 616.0,141.10456949966158 615.1045694996616,142.0 614.0,142.0 612.8954305003384,142.0 612.0,141.10456949966158 612.0,140.0 612.0,138.89543050033842 612.8954305003384,138.0 614.0,138.0" style="fill:none;stroke:black;stroke-width:1;fill-rule:evenodd;"/>
    <polygon
        points="626.0,138.0 627.1045694996616,138.0 628.0,138.89543050033842 628.0,140.0 628.0,141.10456949966158 627.1045694996616,142.0 626.0,142.0 624.8954305003384,142.0 624.0,141.10456949966158 624.0,140.0 624.0,138.89543050033842 624.8954305003384,138.0 626.0,138.0" style="fill:none;stroke:black;stroke-width:1;fill-rule:evenodd;"/>
    <polygon
        points="759.0,138.0 760.1045694996616,138.0 761.0,138.89543050033842 761.0,140.0 761.0,141.10456949966158 760.1045694996616,142.0 759.0,142.0 757.8954305003384,142.0 757.0,141.10456949966158 757.0,140.0 757.0,138.89543050033842 757.8954305003384,138.0 759.0,138.0" style="fill:none;stroke:black;stroke-width:1;fill-rule:evenodd;"/>
    <polygon
        points="771.0,138.0 772.1045694996616,138.0 773.0,138.89543050033842 773.0,140.0 773.0,141.10456949966158 772.1045694996616,142.0 771.0,142.0 769.8954305003384,142.0 769.0,141.10456949966158 769.0,140.0 769.0,138.89543050033842 769.8954305003384,138.0 771.0,138.0" style="fill:none;stroke:black;stroke-width:1;fill-rule:evenodd;"/>
    <polygon
        points="826.0,138.0 827.1045694996616,138.0 828.0,138.89543050033842 828.0,140.0 828.0,141.10456949966158 827.1045694996616,142.0 826.0,142.0 824.8954305003384,142.0 824.0,141.10456949966158 824.0,140.0 824.0,138.89543050033842 824.8954305003384,138.0 826.0,138.0" style="fill:none;stroke:black;stroke-width:1;fill-rule:evenodd;"/>
    <polygon
        points="923.0,138.0 924.1045694996616,138.0 925.0,138.89543050033842 925.0,140.0 925.0,141.10456949966158 924.1045694996616,142.0 923.0,142.0 921.8954305003384,142.0 921.0,141.10456949966158 921.0,140.0 921.0,138.89543050033842 921.8954305003384,138.0 923.0,138.0" style="fill:none;stroke:black;stroke-width:1;fill-rule:evenodd;"/>
    <polygon
        points="443.0,143.5 443.8284271247462,143.5 444.5,144.17157287525382 444.5,145.0 444.5,145.82842712474618 443.8284271247462,146.5 443.0,146.5 442.1715728752538,146.5 441.5,145.82842712474618 441.5,145.0 441.5,144.17157287525382 442.1715728752538,143.5 443.0,143.5" style="fill:none;stroke:black;stroke-width:1;fill-rule:evenodd;"/>
    <polygon
        points="451.0,143.5 451.8284271247462,143.5 452.5,144.17157287525382 452.5,145.0 452.5,145.82842712474618 451.8284271247462,146.5 451.0,146.5 450.1715728752538,146.5 449.5,145.82842712474618 449.5,145.0 449.5,144.17157287525382 450.1715728752538,143.5 451.0,143.5" style="fill:none;stroke:black;stroke-width:1;fill-rule:evenodd;"/>
    <polygon
        points="459.0,143.5 459.8284271247462,143.5 460.5,144.17157287525382 460.5,145.0 460.5,145.82842712474618 459.8284271247462,146.5 459.0,146.5 458.1715728752538,146.5 457.5,145.82842712474618 457.5,145.0 457.5,144.17157287525382 458.1715728752538,143.5 459.0,143.5" style="fill:none;stroke:black;stroke-width:1;fill-rule:evenodd;"/>
    <polygon
        points="491.0,143.5 491.8284271247462,143.5 492.5,144.17157287525382 492.5,145.0 492.5,145.82842712474618 491.8284271247462,146.5 491.0,146.5 490.1715728752538,146.5 489.5,145.82842712474618 489.5,145.0 489.5,144.17157287525382 490.1715728752538,143.5 491.0,143.5" style="fill:none;stroke:black;stroke-width:1;fill-rule:evenodd;"/>
    <polygon
        points="499.0,143.5 499.8284271247462,143.5 500.5,144.17157287525382 500.5,145.0 500.5,145.82842712474618 499.8284271247462,146.5 499.0,146.5 498.1715728752538,146.5 497.5,145.82842712474618 497.5,145.0 497.5,144.17157287525382 498.1715728752538,143.5 499.0,143.5" style="fill:none;stroke:black;stroke-width:1;fill-rule:evenodd;"/>
    <polygon
        points="507.0,143.5 507.8284271247462,143.5 508.5,144.17157287525382 508.5,145.0 508.5,145.82842712474618 507.8284271247462,146.5 507.0,146.5 506.1715728752538,146.5 505.5,145.82842712474618 505.5,145.0 505.5,144.17157287525382 506.1715728752538,143.5 507.0,143.5" style="fill:none;stroke:black;stroke-width:1;fill-rule:evenodd;"/>
    <polygon
        points="515.0,143.5 515.8284271247462,143.5 516.5,144.17157287525382 516.5,145.0 516.5,145.82842712474618 515.8284271247462,146.5 515.0,146.5 514.1715728752538,146.5 513.5,145.82842712474618 513.5,145.0 513.5,144.17157287525382 514.1715728752538,143.5 515.0,143.5" style="fill:none;stroke:black;stroke-width:1;fill-rule:evenodd;"/>
    <polygon
        points="523.0,143.5 523.8284271247462,143.5 524.5,144.17157287525382 524.5,145.0 524.5,145.82842712474618 523.8284271247462,146.5 523.0,146.5 522.1715728752538,146.5 521.5,145.82842712474618 521.5,145.0 521.5,144.17157287525382 522.1715728752538,143.5 523.0,143.5" style="fill:none;stroke:black;stroke-width:1;fill-rule:evenodd;"/>
    <polygon
        points="531.0,143.5 531.8284271247462,143.5 532.5,144.17157287525382 532.5,145.0 532.5,145.82842712474618 531.8284271247462,146.5 531.0,146.5 530.1715728752538,146.5 529.5,145.82842712474618 529.5,145.0 529.5,144.17157287525382 530.1715728752538,143.5 531.0,143.5" style="fill:none;stroke:black;stroke-width:1;fill-rule:evenodd;"/>
    <polygon
        points="539.0,143.5 539.8284271247462,143.5 540.5,144.17157287525382 540.5,145.0 540.5,145.82842712474618 539.8284271247462,146.5 539.0,146.5 538.1715728752538,146.5 537.5,145.82842712474618 537.5,145.0 537.5,144.17157287525382 538.1715728752538,143.5 539.0,143.5" style="fill:none;stroke:black;stroke-width:1;fill-rule:evenodd;"/>
    <polygon
        points="547.0,143.5 547.8284271247462,143.5 548.5,144.17157287525382 548.5,145.0 548.5,145.82842712474618 547.8284271247462,146.5 547.0,146.5 546.1715728752538,146.5 545.5,145.82842712474618 545.5,145.0 545.5,144.17157287525382 546.1715728752538,143.5 547.0,143.5" style="fill:none;stroke:black;stroke-width:1;fill-rule:evenodd;"/>
    <polygon
        points="555.0,143.5 555.8284271247462,143.5 556.5,144.17157287525382 556.5,145.0 556.5,145.82842712474618 555.8284271247462,146.5 555.0,146.5 554.1715728752538,146.5 553.5,145.82842712474618 553.5,145.0 553.5,144.17157287525382 554.1715728752538,143.5 555.0,143.5" style="fill:none;stroke:black;stroke-width:1;fill-rule:evenodd;"/>
    <polygon
        points="563.0,143.5 563.8284271247462,143.5 564.5,144.17157287525382 564.5,145.0 564.5,145.82842712474618 563.8284271247462,146.5 563.0,146.5 562.1715728752538,146.5 561.5,145.82842712474618 561.5,145.0 561.5,144.17157287525382 562.1715728752538,143.5 563.0,143.5" style="fill:none;stroke:black;stroke-width:1;fill-rule:evenodd;"/>
    <polygon
        points="571.0,143.5 571.8284271247462,143.5 572.5,144.17157287525382 572.5,145.0 572.5,145.82842712474618 571.8284271247462,146.5 571.0,146.5 570.1715728752538,146.5 569.5,145.82842712474618 569.5,145.0 569.5,144.17157287525382 570.1715728752538,143.5 571.0,143.5" style="fill:none;stroke:black;stroke-width:1;fill-rule:evenodd;"/>
    <polygon
        points="579.0,143.5 579.8284271247462,143.5 580.5,144.17157287525382 580.5,145.0 580.5,145.82842712474618 579.8284271247462,146.5 579.0,146.5 578.1715728752538,146.5 577.5,145.82842712474618 577.5,145.0 577.5,144.17157287525382 578.1715728752538,143.5 579.0,143.5" style="fill:none;stroke:black;stroke-width:1;fill-rule:evenodd;"/>
    <polygon
        points="587.0,143.5 587.8284271247462,143.5 588.5,144.17157287525382 588.5,145.0 588.5,145.82842712474618 587.8284271247462,146.5 587.0,146.5 586.1715728752538,146.5 585.5,145.82842712474618 585.5,145.0 585.5,144.17157287525382 586.1715728752538,143.5 587.0,143.5" style="fill:none;stroke:black;stroke-width:1;fill-rule:evenodd;"/>
    <polygon
        points="595.0,143.5 595.8284271247462,143.5 596.5,144.17157287525382 596.5,145.0 596.5,145.82842712474618 595.8284271247462,146.5 595.0,146.5 594.1715728752538,146.5 593.5,145.82842712474618 593.5,145.0 593.5,144.17157287525382 594.1715728752538,143.5 595.0,143.5" style="fill:none;stroke:black;stroke-width:1;fill-rule:evenodd;"/>
    <polygon
        points="603.0,143.5 603.8284271247462,143.5 604.5,144.17157287525382 604.5,145.0 604.5,145.82842712474618 603.8284271247462,146.5 603.0,146.5 602.1715728752538,146.5 601.5,145.82842712474618 601.5,145.0 601.5,144.17157287525382 602.1715728752538,143.5 603.0,143.5" style="fill:none;stroke:black;stroke-width:1;fill-rule:evenodd;"/>
    <polygon
        points="635.0,143.5 635.8284271247462,143.5 636.5,144.17157287525382 636.5,145.0 636.5,145.82842712474618 635.8284271247462,146.5 635.0,146.5 634.1715728752538,146.5 633.5,145.82842712474618 633.5,145.0 633.5,144.17157287525382 634.1715728752538,143.5 635.0,143.5" style="fill:none;stroke:black;stroke-width:1;fill-rule:evenodd;"/>
    <polygon
        points="643.0,143.5 643.8284271247462,143.5 644.5,144.17157287525382 644.5,145.0 644.5,145.82842712474618 643.8284271247462,146.5 643.0,146.5 642.1715728752538,146.5 641.5,145.82842712474618 641.5,145.0 641.5,144.17157287525382 642.1715728752538,143.5 643.0,143.5" style="fill:none;stroke:black;stroke-width:1;fill-rule:evenodd;"/>
    <polygon
        points="651.0,143.5 651.8284271247462,143.5 652.5,144.17157287525382 652.5,145.0 652.5,145.82842712474618 651.8284271247462,146.5 651.0,146.5 650.1715728752538,146.5 649.5,145.82842712474618 649.5,145.0 649.5,144.17157287525382 650.1715728752538,143.5 651.0,143.5" style="fill:none;stroke:black;stroke-width:1;fill-rule:evenodd;"/>
    <polygon
        points="659.0,143.5 659.8284271247462,143.5 660.5,144.17157287525382 660.5,145.0 660.5,145.82842712474618 659.8284271247462,146.5 659.0,146.5 658.1715728752538,146.5 657.5,145.82842712474618 657.5,145.0 657.5,144.17157287525382 658.1715728752538,143.5 659.0,143.5" style="fill:none;stroke:black;stroke-width:1;fill-rule:evenodd;"/>
    <polygon
        points="667.0,143.5 667.8284271247462,143.5 668.5,144.17157287525382 668.5,145.0 668.5,145.82842712474618 667.8284271247462,146.5 667.0,146.5 666.1715728752538,146.5 665.5,145.82842712474618 665.5,145.0 665.5,144.17157287525382 666.1715728752538,143.5 667.0,143.5" style="fill:none;stroke:black;stroke-width:1;fill-rule:evenodd;"/>
    <polygon
        points="675.0,143.5 675.8284271247462,143.5 676.5,144.17157287525382 676.5,145.0 676.5,145.82842712474618 675.8284271247462,146.5 675.0,146.5 674.1715728752538,146.5 673.5,145.82842712474618 673.5,145.0 673.5,144.17157287525382 674.1715728752538,143.5 675.0,143.5" style="fill:none;stroke:black;stroke-width:1;fill-rule:evenodd;"/>
    <polygon
        points="683.0,143.5 683.8284271247462,143.5 684.5,144.17157287525382 684.5,145.0 684.5,145.82842712474618 683.8284271247462,146.5 683.0,146.5 682.1715728752538,146.5 681.5,145.82842712474618 681.5,145.0 681.5,144.17157287525382 682.1715728752538,143.5 683.0,143.5" style="fill:none;stroke:black;stroke-width:1;fill-rule:evenodd;"/>
    <polygon
        points="691.0,143.5 691.8284271247462,143.5 692.5,144.17157287525382 692.5,145.0 692.5,145.82842712474618 691.8284271247462,146.5 691.0,146.5 690.1715728752538,146.5 689.5,145.82842712474618 689.5,145.0 689.5,144.17157287525382 690.1715728752538,143.5 691.0,143.5" style="fill:none;stroke:black;stroke-width:1;fill-rule:evenodd;"/>
    <polygon
        points="699.0,143.5 699.8284271247462,143.5 700.5,144.17157287525382 700.5,145.0 700.5,145.82842712474618 699.8284271247462,146.5 699.0,146.5 698.1715728752538,146.5 697.5,145.82842712474618 697.5,145.0 697.5,144.17157287525382 698.1715728752538,143.5 699.0,143.5" style="fill:none;stroke:black;stroke-width:1;fill-rule:evenodd;"/>
    <polygon
        points="707.0,143.5 707.8284271247462,143.5 708.5,144.17157287525382 708.5,145.0 708.5,145.82842712474618 707.8284271247462,146.5 707.0,146.5 706.1715728752538,146.5 705.5,145.82842712474618 705.5,145.0 705.5,144.17157287525382 706.1715728752538,143.5 707.0,143.5" style="fill:none;stroke:black;stroke-width:1;fill-rule:evenodd;"/>
    <polygon
        points="715.0,143.5 715.8284271247462,143.5 716.5,144.17157287525382 716.5,145.0 716.5,145.82842712474618 715.8284271247462,146.5 715.0,146.5 714.1715728752538,146.5 713.5,145.82842712474618 713.5,145.0 713.5,144.17157287525382 714.1715728752538,143.5 715.0,143.5" style="fill:none;stroke:black;stroke-width:1;fill-rule:evenodd;"/>
    <polygon
        points="723.0,143.5 723.8284271247462,143.5 724.5,144.17157287525382 724.5,145.0 724.5,145.82842712474618 723.8284271247462,146.5 723.0,146.5 722.1715728752538,146.5 721.5,145.82842712474618 721.5,145.0 721.5,144.17157287525382 722.1715728752538,143.5 723.0,143.5" style="fill:none;stroke:black;stroke-width:1;fill-rule:evenodd;"/>
    <polygon
        points="731.0,143.5 731.8284271247462,143.5 732.5,144.17157287525382 732.5,145.0 732.5,145.82842712474618 731.8284271247462,146.5 731.0,146.5 730.1715728752538,146.5 729.5,145.82842712474618 729.5,145.0 729.5,144.17157287525382 730.1715728752538,143.5 731.0,143.5" style="fill:none;stroke:black;stroke-width:1;fill-rule:evenodd;"/>
    <polygon
        points="739.0,143.5 739.8284271247462,143.5 740.5,144.17157287525382 740.5,145.0 740.5,145.82842712474618 739.8284271247462,146.5 739.0,146.5 738.1715728752538,146.5 737.5,145.82842712474618 737.5,145.0 737.5,144.17157287525382 738.1715728752538,143.5 739.0,143.5" style="fill:none;stroke:black;stroke-width:1;fill-rule:evenodd;"/>
    <polygon
        points="747.0,143.5 747.8284271247462,143.5 748.5,144.17157287525382 748.5,145.0 748.5,145.82842712474618 747.8284271247462,146.5 747.0,146.5 746.1715728752538,146.5 745.5,145.82842712474618 745.5,145.0 745.5,144.17157287525382 746.1715728752538,143.5 747.0,143.5" style="fill:none;stroke:black;stroke-width:1;fill-rule:evenodd;"/>
    <polygon
        points="779.0,143.5 779.8284271247462,143.5 780.5,144.17157287525382 780.5,145.0 780.5,145.82842712474618 779.8284271247462,146.5 779.0,146.5 778.1715728752538,146.5 777.5,145.82842712474618 777.5,145.0 777.5,144.17157287525382 778.1715728752538,143.5 779.0,143.5" style="fill:none;stroke:black;stroke-width:1;fill-rule:evenodd;"/>
    <polygon
        points="787.0,143.5 787.8284271247462,143.5 788.5,144.17157287525382 788.5,145.0 788.5,145.82842712474618 787.8284271247462,146.5 787.0,146.5 786.1715728752538,146.5 785.5,145.82842712474618 785.5,145.0 785.5,144.17157287525382 786.1715728752538,143.5 787.0,143.5" style="fill:none;stroke:black;stroke-width:1;fill-rule:evenodd;"/>
    <polygon
        points="795.0,143.5 795.8284271247462,143.5 796.5,144.17157287525382 796.5,145.0 796.5,145.82842712474618 795.8284271247462,146.5 795.0,146.5 794.1715728752538,146.5 793.5,145.82842712474618 793.5,145.0 793.5,144.17157287525382 794.1715728752538,143.5 795.0,143.5" style="fill:none;stroke:black;stroke-width:1;fill-rule:evenodd;"/>
    <polygon
        points="803.0,143.5 803.8284271247462,143.5 804.5,144.17157287525382 804.5,145.0 804.5,145.82842712474618 803.8284271247462,146.5 803.0,146.5 802.1715728752538,146.5 801.5,145.82842712474618 801.5,145.0 801.5,144.17157287525382 802.1715728752538,143.5 803.0,143.5" style="fill:none;stroke:black;stroke-width:1;fill-rule:evenodd;"/>
    <polygon
        points="811.0,143.5 811.8284271247462,143.5 812.5,144.17157287525382 812.5,145.0 812.5,145.82842712474618 811.8284271247462,146.5 811.0,146.5 810.1715728752538,146.5 809.5,145.82842712474618 809.5,145.0 809.5,144.17157287525382 810.1715728752538,143.5 811.0,143.5" style="fill:none;stroke:black;stroke-width:1;fill-rule:evenodd;"/>
    <polygon
        points="819.0,143.5 819.8284271247462,143.5 820.5,144.17157287525382 820.5,145.0 820.5,145.82842712474618 819.8284271247462,146.5 819.0,146.5 818.1715728752538,146.5 817.5,145.82842712474618 817.5,145.0 817.5,144.17157287525382 818.1715728752538,143.5 819.0,143.5" style="fill:none;stroke:black;stroke-width:1;fill-rule:evenodd;"/>
    <polygon
        points="835.0,143.5 835.8284271247462,143.5 836.5,144.17157287525382 836.5,145.0 836.5,145.82842712474618 835.8284271247462,146.5 835.0,146.5 834.1715728752538,146.5 833.5,145.82842712474618 833.5,145.0 833.5,144.17157287525382 834.1715728752538,143.5 835.0,143.5" style="fill:none;stroke:black;stroke-width:1;fill-rule:evenodd;"/>
    <polygon
        points="843.0,143.5 843.8284271247462,143.5 844.5,144.17157287525382 844.5,145.0 844.5,145.82842712474618 843.8284271247462,146.5 843.0,146.5 842.1715728752538,146.5 841.5,145.82842712474618 841.5,145.0 841.5,144.17157287525382 842.1715728752538,143.5 843.0,143.5" style="fill:none;stroke:black;stroke-width:1;fill-rule:evenodd;"/>
    <polygon
        points="851.0,143.5 851.8284271247462,143.5 852.5,144.17157287525382 852.5,145.0 852.5,145.82842712474618 851.8284271247462,146.5 851.0,146.5 850.1715728752538,146.5 849.5,145.82842712474618 849.5,145.0 849.5,144.17157287525382 850.1715728752538,143.5 851.0,143.5" style="fill:none;stroke:black;stroke-width:1;fill-rule:evenodd;"/>
    <polygon
        points="859.0,143.5 859.8284271247462,143.5 860.5,144.17157287525382 860.5,145.0 860.5,145.82842712474618 859.8284271247462,146.5 859.0,146.5 858.1715728752538,146.5 857.5,145.82842712474618 857.5,145.0 857.5,144.17157287525382 858.1715728752538,143.5 859.0,143.5" style="fill:none;stroke:black;stroke-width:1;fill-rule:evenodd;"/>
    <polygon
        points="867.0,143.5 867.8284271247462,143.5 868.5,144.17157287525382 868.5,145.0 868.5,145.82842712474618 867.8284271247462,146.5 867.0,146.5 866.1715728752538,146.5 865.5,145.82842712474618 865.5,145.0 865.5,144.17157287525382 866.1715728752538,143.5 867.0,143.5" style="fill:none;stroke:black;stroke-width:1;fill-rule:evenodd;"/>
    <polygon
        points="875.0,143.5 875.8284271247462,143.5 876.5,144.17157287525382 876.5,145.0 876.5,145.82842712474618 875.8284271247462,146.5 875.0,146.5 874.1715728752538,146.5 873.5,145.82842712474618 873.5,145.0 873.5,144.17157287525382 874.1715728752538,143.5 875.0,143.5" style="fill:none;stroke:black;stroke-width:1;fill-rule:evenodd;"/>
    <polygon
        points="883.0,143.5 883.8284271247462,143.5 884.5,144.17157287525382 884.5,145.0 884.5,145.82842712474618 883.8284271247462,146.5 883.0,146.5 882.1715728752538,146.5 881.5,145.82842712474618 881.5,145.0 881.5,144.17157287525382 882.1715728752538,143.5 883.0,143.5" style="fill:none;stroke:black;stroke-width:1;fill-rule:evenodd;"/>
    <polygon
        points="891.0,143.5 891.8284271247462,143.5 892.5,144.17157287525382 892.5,145.0 892.5,145.82842712474618 891.8284271247462,146.5 891.0,146.5 890.1715728752538,146.5 889.5,145.82842712474618 889.5,145.0 889.5,144.17157287525382 890.1715728752538,143.5 891.0,143.5" style="fill:none;stroke:black;stroke-width:1;fill-rule:evenodd;"/>
    <polygon
        points="899.0,143.5 899.8284271247462,143.5 900.5,144.17157287525382 900.5,145.0 900.5,145.82842712474618 899.8284271247462,146.5 899.0,146.5 898.1715728752538,146.5 897.5,145.82842712474618 897.5,145.0 897.5,144.17157287525382 898.1715728752538,143.5 899.0,143.5" style="fill:none;stroke:black;stroke-width:1;fill-rule:evenodd;"/>
    <polygon
        points="907.0,143.5 907.8284271247462,143.5 908.5,144.17157287525382 908.5,145.0 908.5,145.82842712474618 907.8284271247462,146.5 907.0,146.5 906.1715728752538,146.5 905.5,145.82842712474618 905.5,145.0 905.5,144.17157287525382 906.1715728752538,143.5 907.0,143.5" style="fill:none;stroke:black;stroke-width:1;fill-rule:evenodd;"/>
    <polygon
        points="915.0,143.5 915.8284271247462,143.5 916.5,144.17157287525382 916.5,145.0 916.5,145.82842712474618 915.8284271247462,146.5 915.0,146.5 914.1715728752538,146.5 913.5,145.82842712474618 913.5,145.0 913.5,144.17157287525382 914.1715728752538,143.5 915.0,143.5" style="fill:none;stroke:black;stroke-width:1;fill-rule:evenodd;"/>
    <polygon
        points="127.0,0.0 127.0,73.5 127.0,80.40355937288491 121.40355937288491,86.0 114.5,86.0 0.0,86.0 0.0,130.0 419.75,130.0 423.2017796864425,130.0 426.0,132.79822031355755 426.0,136.25 426.0,150.0 932.0,150.0 932.0,136.25 932.0,132.79822031355755 934.7982203135575,130.0 938.25,130.0 1000.0,130.0 1000.0,86.0 960.5,86.0 953.596440627115,86.0 948.0,80.40355937288491 948.0,73.5 948.0,0.0 737.5,0.0 737.5,47.0 737.5,47.276142374915395 737.2761423749154,47.5 737.0,47.5 703.0,47.5 702.7238576250846,47.5 702.5,47.276142374915395 702.5,47.0 702.5,0.0 537.5,0.0 537.5,47.0 537.5,47.276142374915395 537.2761423749154,47.5 537.0,47.5 503.0,47.5 502.7238576250846,47.5 502.5,47.276142374915395 502.5,47.0 502.5,0.0 337.5,0.0 337.5,47.0 337.5,47.276142374915395 337.2761423749154,47.5 337.0,47.5 303.0,47.5 302.7238576250846,47.5 302.5,47.276142374915395 302.5,47.0 302.5,0.0 246.5,0.0 246.5,31.5 246.5,38.403559372884914 240.90355937288493,44.0 234.0,44.0 184.0,44.0 177.09644062711507,44.0 171.5,38.403559372884914 171.5,31.5 171.5,0.0" style="fill:none;stroke:black;stroke-width:1;fill-rule:evenodd;"/>
</svg>
