<?xml version="1.0" encoding="ISO-8859-1"?>
<svg height="150.0" width="1000.0">
    <polygon
        points="276.0,7.0 277.1045694996616,7.0 278.0,7.8954305003384135 278.0,9.0 278.0,10.104569499661586 277.1045694996616,11.0 276.0,11.0 274.8954305003384,11.0 274.0,10.104569499661586 274.0,9.0 274.0,7.8954305003384135 274.8954305003384,7.0 276.0,7.0" style="fill:none;stroke:black;stroke-width:1;fill-rule:evenodd;"/>
    <polygon
        points="326.0,7.0 327.1045694996616,7.0 328.0,7.8954305003384135 328.0,9.0 328.0,10.104569499661586 327.1045694996616,11.0 326.0,11.0 324.8954305003384,11.0 324.0,10.104569499661586 324.0,9.0 324.0,7.8954305003384135 324.8954305003384,7.0 326.0,7.0" style="fill:none;stroke:black;stroke-width:1;fill-rule:evenodd;"/>
    <polygon
        points="476.0,7.0 477.1045694996616,7.0 478.0,7.8954305003384135 478.0,9.0 478.0,10.104569499661586 477.1045694996616,11.0 476.0,11.0 474.8954305003384,11.0 474.0,10.104569499661586 474.0,9.0 474.0,7.8954305003384135 474.8954305003384,7.0 476.0,7.0" style="fill:none;stroke:black;stroke-width:1;fill-rule:evenodd;"/>
    <polygon
        points="526.0,7.0 527.1045694996616,7.0 528.0,7.8954305003384135 528.0,9.0 528.0,10.104569499661586 527.1045694996616,11.0 526.0,11.0 524.8954305003384,11.0 524.0,10.104569499661586 524.0,9.0 524.0,7.8954305003384135 524.8954305003384,7.0 526.0,7.0" style="fill:none;stroke:black;stroke-width:1;fill-rule:evenodd;"/>
    <polygon
        points="676.0,7.0 677.1045694996616,7.0 678.0,7.8954305003384135 678.0,9.0 678.0,10.104569499661586 677.1045694996616,11.0 676.0,11.0 674.8954305003384,11.0 674.0,10.104569499661586 674.0,9.0 674.0,7.8954305003384135 674.8954305003384,7.0 676.0,7.0" style="fill:none;stroke:black;stroke-width:1;fill-rule:evenodd;"/>
    <polygon
        points="726.0,7.0 727.1045694996616,7.0 728.0,7.8954305003384135 728.0,9.0 728.0,10.104569499661586 727.1045694996616,11.0 726.0,11.0 724.8954305003384,11.0 724.0,10.104569499661586 724.0,9.0 724.0,7.8954305003384135 724.8954305003384,7.0 726.0,7.0" style="fill:none;stroke:black;stroke-width:1;fill-rule:evenodd;"/>
    <polygon
        points="828.0,9.0 829.1045694996616,9.0 830.0,9.895430500338414 830.0,11.0 830.0,12.104569499661586 829.1045694996616,13.0 828.0,13.0 826.8954305003384,13.0 826.0,12.104569499661586 826.0,11.0 826.0,9.895430500338414 826.8954305003384,9.0 828.0,9.0" style="fill:none;stroke:black;stroke-width:1;fill-rule:evenodd;"/>
    <polygon
        points="924.0,9.0 925.1045694996616,9.0 926.0,9.895430500338414 926.0,11.0 926.0,12.104569499661586 925.1045694996616,13.0 924.0,13.0 922.8954305003384,13.0 922.0,12.104569499661586 922.0,11.0 922.0,9.895430500338414 922.8954305003384,9.0 924.0,9.0" style="fill:none;stroke:black;stroke-width:1;fill-rule:evenodd;"/>
    <polygon
        points="276.0,19.0 277.1045694996616,19.0 278.0,19.895430500338414 278.0,21.0 278.0,22.104569499661586 277.1045694996616,23.0 276.0,23.0 274.8954305003384,23.0 274.0,22.104569499661586 274.0,21.0 274.0,19.895430500338414 274.8954305003384,19.0 276.0,19.0" style="fill:none;stroke:black;stroke-width:1;fill-rule:evenodd;"/>
    <polygon
        points="326.0,19.0 327.1045694996616,19.0 328.0,19.895430500338414 328.0,21.0 328.0,22.104569499661586 327.1045694996616,23.0 326.0,23.0 324.8954305003384,23.0 324.0,22.104569499661586 324.0,21.0 324.0,19.895430500338414 324.8954305003384,19.0 326.0,19.0" style="fill:none;stroke:black;stroke-width:1;fill-rule:evenodd;"/>
    <polygon
        points="476.0,19.0 477.1045694996616,19.0 478.0,19.895430500338414 478.0,21.0 478.0,22.104569499661586 477.1045694996616,23.0 476.0,23.0 474.8954305003384,23.0 474.0,22.104569499661586 474.0,21.0 474.0,19.895430500338414 474.8954305003384,19.0 476.0,19.0" style="fill:none;stroke:black;stroke-width:1;fill-rule:evenodd;"/>
    <polygon
        points="526.0,19.0 527.1045694996616,19.0 528.0,19.895430500338414 528.0,21.0 528.0,22.104569499661586 527.1045694996616,23.0 526.0,23.0 524.8954305003384,23.0 524.0,22.104569499661586 524.0,21.0 524.0,19.895430500338414 524.8954305003384,19.0 526.0,19.0" style="fill:none;stroke:black;stroke-width:1;fill-rule:evenodd;"/>
    <polygon
        points="676.0,19.0 677.1045694996616,19.0 678.0,19.895430500338414 678.0,21.0 678.0,22.104569499661586 677.1045694996616,23.0 676.0,23.0 674.8954305003384,23.0 674.0,22.104569499661586 674.0,21.0 674.0,19.895430500338414 674.8954305003384,19.0 676.0,19.0" style="fill:none;stroke:black;stroke-width:1;fill-rule:evenodd;"/>
    <polygon
        points="726.0,19.0 727.1045694996616,19.0 728.0,19.895430500338414 728.0,21.0 728.0,22.104569499661586 727.1045694996616,23.0 726.0,23.0 724.8954305003384,23.0 724.0,22.104569499661586 724.0,21.0 724.0,19.895430500338414 724.8954305003384,19.0 726.0,19.0" style="fill:none;stroke:black;stroke-width:1;fill-rule:evenodd;"/>
    <polygon
        points="828.0,21.0 829.1045694996616,21.0 830.0,21.895430500338414 830.0,23.0 830.0,24.104569499661586 829.1045694996616,25.0 828.0,25.0 826.8954305003384,25.0 826.0,24.104569499661586 826.0,23.0 826.0,21.895430500338414 826.8954305003384,21.0 828.0,21.0" style="fill:none;stroke:black;stroke-width:1;fill-rule:evenodd;"/>
    <polygon
        points="924.0,21.0 925.1045694996616,21.0 926.0,21.895430500338414 926.0,23.0 926.0,24.104569499661586 925.1045694996616,25.0 924.0,25.0 922.8954305003384,25.0 922.0,24.104569499661586 922.0,23.0 922.0,21.895430500338414 922.8954305003384,21.0 924.0,21.0" style="fill:none;stroke:black;stroke-width:1;fill-rule:evenodd;"/>
    <polygon
        points="276.0,31.0 277.1045694996616,31.0 278.0,31.895430500338414 278.0,33.0 278.0,34.10456949966159 277.1045694996616,35.0 276.0,35.0 274.8954305003384,35.0 274.0,34.10456949966159 274.0,33.0 274.0,31.895430500338414 274.8954305003384,31.0 276.0,31.0" style="fill:none;stroke:black;stroke-width:1;fill-rule:evenodd;"/>
    <polygon
        points="326.0,31.0 327.1045694996616,31.0 328.0,31.895430500338414 328.0,33.0 328.0,34.10456949966159 327.1045694996616,35.0 326.0,35.0 324.8954305003384,35.0 324.0,34.10456949966159 324.0,33.0 324.0,31.895430500338414 324.8954305003384,31.0 326.0,31.0" style="fill:none;stroke:black;stroke-width:1;fill-rule:evenodd;"/>
    <polygon
        points="476.0,31.0 477.1045694996616,31.0 478.0,31.895430500338414 478.0,33.0 478.0,34.10456949966159 477.1045694996616,35.0 476.0,35.0 474.8954305003384,35.0 474.0,34.10456949966159 474.0,33.0 474.0,31.895430500338414 474.8954305003384,31.0 476.0,31.0" style="fill:none;stroke:black;stroke-width:1;fill-rule:evenodd;"/>
    <polygon
        points="526.0,31.0 527.1045694996616,31.0 528.0,31.895430500338414 528.0,33.0 528.0,34.10456949966159 527.1045694996616,35.0 526.0,35.0 524.8954305003384,35.0 524.0,34.10456949966159 524.0,33.0 524.0,31.895430500338414 524.8954305003384,31.0 526.0,31.0" style="fill:none;stroke:black;stroke-width:1;fill-rule:evenodd;"/>
    <polygon
        points="676.0,31.0 677.1045694996616,31.0 678.0,31.895430500338414 678.0,33.0 678.0,34.10456949966159 677.1045694996616,35.0 676.0,35.0 674.8954305003384,35.0 674.0,34.10456949966159 674.0,33.0 674.0,31.895430500338414 674.8954305003384,31.0 676.0,31.0" style="fill:none;stroke:black;stroke-width:1;fill-rule:evenodd;"/>
    <polygon
        points="726.0,31.0 727.1045694996616,31.0 728.0,31.895430500338414 728.0,33.0 728.0,34.10456949966159 727.1045694996616,35.0 726.0,35.0 724.8954305003384,35.0 724.0,34.10456949966159 724.0,33.0 724.0,31.895430500338414 724.8954305003384,31.0 726.0,31.0" style="fill:none;stroke:black;stroke-width:1;fill-rule:evenodd;"/>
    <polygon
        points="828.0,33.0 829.1045694996616,33.0 830.0,33.89543050033841 830.0,35.0 830.0,36.10456949966159 829.1045694996616,37.0 828.0,37.0 826.8954305003384,37.0 826.0,36.10456949966159 826.0,35.0 826.0,33.89543050033841 826.8954305003384,33.0 828.0,33.0" style="fill:none;stroke:black;stroke-width:1;fill-rule:evenodd;"/>
    <polygon
        points="924.0,33.0 925.1045694996616,33.0 926.0,33.89543050033841 926.0,35.0 926.0,36.10456949966159 925.1045694996616,37.0 924.0,37.0 922.8954305003384,37.0 922.0,36.10456949966159 922.0,35.0 922.0,33.89543050033841 922.8954305003384,33.0 924.0,33.0" style="fill:none;stroke:black;stroke-width:1;fill-rule:evenodd;"/>
    <polygon
        points="276.0,43.0 277.1045694996616,43.0 278.0,43.89543050033841 278.0,45.0 278.0,46.10456949966159 277.1045694996616,47.0 276.0,47.0 274.8954305003384,47.0 274.0,46.10456949966159 274.0,45.0 274.0,43.89543050033841 274.8954305003384,43.0 276.0,43.0" style="fill:none;stroke:black;stroke-width:1;fill-rule:evenodd;"/>
    <polygon
        points="326.0,43.0 327.1045694996616,43.0 328.0,43.89543050033841 328.0,45.0 328.0,46.10456949966159 327.1045694996616,47.0 326.0,47.0 324.8954305003384,47.0 324.0,46.10456949966159 324.0,45.0 324.0,43.89543050033841 324.8954305003384,43.0 326.0,43.0" style="fill:none;stroke:black;stroke-width:1;fill-rule:evenodd;"/>
    <polygon
        points="476.0,43.0 477.1045694996616,43.0 478.0,43.89543050033841 478.0,45.0 478.0,46.10456949966159 477.1045694996616,47.0 476.0,47.0 474.8954305003384,47.0 474.0,46.10456949966159 474.0,45.0 474.0,43.89543050033841 474.8954305003384,43.0 476.0,43.0" style="fill:none;stroke:black;stroke-width:1;fill-rule:evenodd;"/>
    <polygon
        points="526.0,43.0 527.1045694996616,43.0 528.0,43.89543050033841 528.0,45.0 528.0,46.10456949966159 527.1045694996616,47.0 526.0,47.0 524.8954305003384,47.0 524.0,46.10456949966159 524.0,45.0 524.0,43.89543050033841 524.8954305003384,43.0 526.0,43.0" style="fill:none;stroke:black;stroke-width:1;fill-rule:evenodd;"/>
    <polygon
        points="676.0,43.0 677.1045694996616,43.0 678.0,43.89543050033841 678.0,45.0 678.0,46.10456949966159 677.1045694996616,47.0 676.0,47.0 674.8954305003384,47.0 674.0,46.10456949966159 674.0,45.0 674.0,43.89543050033841 674.8954305003384,43.0 676.0,43.0" style="fill:none;stroke:black;stroke-width:1;fill-rule:evenodd;"/>
    <polygon
        points="726.0,43.0 727.1045694996616,43.0 728.0,43.89543050033841 728.0,45.0 728.0,46.10456949966159 727.1045694996616,47.0 726.0,47.0 724.8954305003384,47.0 724.0,46.10456949966159 724.0,45.0 724.0,43.89543050033841 724.8954305003384,43.0 726.0,43.0" style="fill:none;stroke:black;stroke-width:1;fill-rule:evenodd;"/>
    <polygon
        points="828.0,45.0 829.1045694996616,45.0 830.0,45.89543050033841 830.0,47.0 830.0,48.10456949966159 829.1045694996616,49.0 828.0,49.0 826.8954305003384,49.0 826.0,48.10456949966159 826.0,47.0 826.0,45.89543050033841 826.8954305003384,45.0 828.0,45.0" style="fill:none;stroke:black;stroke-width:1;fill-rule:evenodd;"/>
    <polygon
        points="924.0,45.0 925.1045694996616,45.0 926.0,45.89543050033841 926.0,47.0 926.0,48.10456949966159 925.1045694996616,49.0 924.0,49.0 922.8954305003384,49.0 922.0,48.10456949966159 922.0,47.0 922.0,45.89543050033841 922.8954305003384,45.0 924.0,45.0" style="fill:none;stroke:black;stroke-width:1;fill-rule:evenodd;"/>
    <polygon
        points="910.0,23.0 912.761423749154,23.0 915.0,25.238576250846034 915.0,28.0 915.0,52.0 915.0,54.76142374915397 912.761423749154,57.0 910.0,57.0 840.0,57.0 837.238576250846,57.0 835.0,54.76142374915397 835.0,52.0 835.0,28.0 835.0,25.238576250846034 837.238576250846,23.0 840.0,23.0" style="fill:none;stroke:black;stroke-width:1;fill-rule:evenodd;"/>
    <polygon
        points="828.0,57.0 829.1045694996616,57.0 830.0,57.89543050033841 830.0,59.0 830.0,60.10456949966159 829.1045694996616,61.0 828.0,61.0 826.8954305003384,61.0 826.0,60.10456949966159 826.0,59.0 826.0,57.89543050033841 826.8954305003384,57.0 828.0,57.0" style="fill:none;stroke:black;stroke-width:1;fill-rule:evenodd;"/>
    <polygon
        points="924.0,57.0 925.1045694996616,57.0 926.0,57.89543050033841 926.0,59.0 926.0,60.10456949966159 925.1045694996616,61.0 924.0,61.0 922.8954305003384,61.0 922.0,60.10456949966159 922.0,59.0 922.0,57.89543050033841 922.8954305003384,57.0 924.0,57.0" style="fill:none;stroke:black;stroke-width:1;fill-rule:evenodd;"/>
    <polygon
        points="0.0,0.0 0.0,150.0 932.0,150.0 932.0,136.25 932.0,132.79822031355755 934.7982203135575,130.0 938.25,130.0 1000.0,130.0 1000.0,86.0 960.5,86.0 953.596440627115,86.0 948.0,80.40355937288491 948.0,73.5 948.0,0.0 717.5,0.0 717.5,47.0 717.5,47.276142374915395 717.2761423749154,47.5 717.0,47.5 683.0,47.5 682.7238576250846,47.5 682.5,47.276142374915395 682.5,47.0 682.5,0.0 517.5,0.0 517.5,47.0 517.5,47.276142374915395 517.2761423749154,47.5 517.0,47.5 483.0,47.5 482.7238576250846,47.5 482.5,47.276142374915395 482.5,47.0 482.5,0.0 317.5,0.0 317.5,47.0 317.5,47.276142374915395 317.2761423749154,47.5 317.0,47.5 283.0,47.5 282.7238576250846,47.5 282.5,47.276142374915395 282.5,47.0 282.5,0.0" style="fill:none;stroke:black;stroke-width:1;fill-rule:evenodd;"/>
</svg>
