<?xml version="1.0" encoding="ISO-8859-1"?>
<svg height="58.0" width="284.0">
    <polygon
        points="-70.0,-12.0 -68.89543050033842,-12.0 -68.0,-11.104569499661586 -68.0,-10.0 -68.0,-8.895430500338414 -68.89543050033842,-8.0 -70.0,-8.0 -71.1045694996616,-8.0 -72.0,-8.895430500338414 -72.0,-10.0 -72.0,-11.104569499661586 -71.1045694996616,-12.0 -70.0,-12.0" style="fill:none;stroke:black;stroke-width:1;fill-rule:evenodd;"/>
    <polygon
        points="70.0,-12.0 71.10456949966158,-12.0 72.0,-11.104569499661586 72.0,-10.0 72.0,-8.895430500338414 71.10456949966158,-8.0 70.0,-8.0 68.8954305003384,-8.0 68.0,-8.895430500338414 68.0,-10.0 68.0,-11.104569499661586 68.8954305003384,-12.0 70.0,-12.0" style="fill:none;stroke:black;stroke-width:1;fill-rule:evenodd;"/>
    <polygon
        points="-110.0,-16.0 -107.23857625084604,-16.0 -105.0,-13.761423749153966 -105.0,-11.0 -105.0,-8.238576250846034 -107.23857625084604,-6.0 -110.0,-6.0 -112.76142374915396,-6.0 -115.0,-8.238576250846034 -115.0,-11.0 -115.0,-13.761423749153966 -112.76142374915396,-16.0 -110.0,-16.0" style="fill:none;stroke:black;stroke-width:1;fill-rule:evenodd;"/>
    <polygon
        points="110.0,-16.0 112.76142374915396,-16.0 115.0,-13.761423749153966 115.0,-11.0 115.0,-8.238576250846034 112.76142374915396,-6.0 110.0,-6.0 107.23857625084604,-6.0 105.0,-8.238576250846034 105.0,-11.0 105.0,-13.761423749153966 107.23857625084604,-16.0 110.0,-16.0" style="fill:none;stroke:black;stroke-width:1;fill-rule:evenodd;"/>
    <polygon
        points="14.5,-17.0 14.776142374915397,-17.0 15.0,-16.7761423749154 15.0,-16.5 15.0,-5.5 15.0,-5.223857625084603 14.776142374915397,-5.0 14.5,-5.0 -14.5,-5.0 -14.776142374915397,-5.0 -15.0,-5.223857625084603 -15.0,-5.5 -15.0,-16.5 -15.0,-16.7761423749154 -14.776142374915397,-17.0 -14.5,-17.0" style="fill:none;stroke:black;stroke-width:1;fill-rule:evenodd;"/>
    <polygon
        points="-70.0,3.0 -68.89543050033842,3.0 -68.0,3.8954305003384135 -68.0,5.0 -68.0,6.1045694996615865 -68.89543050033842,7.0 -70.0,7.0 -71.1045694996616,7.0 -72.0,6.1045694996615865 -72.0,5.0 -72.0,3.8954305003384135 -71.1045694996616,3.0 -70.0,3.0" style="fill:none;stroke:black;stroke-width:1;fill-rule:evenodd;"/>
    <polygon
        points="70.0,3.0 71.10456949966158,3.0 72.0,3.8954305003384135 72.0,5.0 72.0,6.1045694996615865 71.10456949966158,7.0 70.0,7.0 68.8954305003384,7.0 68.0,6.1045694996615865 68.0,5.0 68.0,3.8954305003384135 68.8954305003384,3.0 70.0,3.0" style="fill:none;stroke:black;stroke-width:1;fill-rule:evenodd;"/>
    <polygon
        points="-70.0,18.0 -68.89543050033842,18.0 -68.0,18.895430500338414 -68.0,20.0 -68.0,21.104569499661586 -68.89543050033842,22.0 -70.0,22.0 -71.1045694996616,22.0 -72.0,21.104569499661586 -72.0,20.0 -72.0,18.895430500338414 -71.1045694996616,18.0 -70.0,18.0" style="fill:none;stroke:black;stroke-width:1;fill-rule:evenodd;"/>
    <polygon
        points="70.0,18.0 71.10456949966158,18.0 72.0,18.895430500338414 72.0,20.0 72.0,21.104569499661586 71.10456949966158,22.0 70.0,22.0 68.8954305003384,22.0 68.0,21.104569499661586 68.0,20.0 68.0,18.895430500338414 68.8954305003384,18.0 70.0,18.0" style="fill:none;stroke:black;stroke-width:1;fill-rule:evenodd;"/>
    <polygon points="-142.0,-29.0 -142.0,29.0 142.0,29.0 142.0,-29.0" style="fill:none;stroke:black;stroke-width:1;fill-rule:evenodd;"/>
</svg>
