<?xml version="1.0" encoding="ISO-8859-1"?>
<svg height="386.0" width="992.0">
    <polygon
        points="384.0,-117.5 384.8284271247462,-117.5 385.5,-116.82842712474618 385.5,-116.0 385.5,-94.0 385.5,-93.17157287525382 384.8284271247462,-92.5 384.0,-92.5 366.0,-92.5 365.1715728752538,-92.5 364.5,-93.17157287525382 364.5,-94.0 364.5,-116.0 364.5,-116.82842712474618 365.1715728752538,-117.5 366.0,-117.5" style="fill:none;stroke:black;stroke-width:1;fill-rule:evenodd;"/>
    <polygon
        points="428.0,-82.125 428.0546800923005,-82.125 428.10731012068675,-82.11622263297429 428.15655798408164,-82.1 442.4,-82.1 442.4552284749831,-82.1 442.5,-82.05522847498307 442.5,-82.0 442.5,-76.99999999999999 442.5,-76.94477152501692 442.4552284749831,-76.89999999999999 442.4,-76.89999999999999 428.5,-76.89999999999999 428.5,76.9 442.4,76.9 442.4552284749831,76.9 442.5,76.94477152501693 442.5,77.0 442.5,82.00000000000001 442.5,82.05522847498308 442.4552284749831,82.10000000000001 442.4,82.10000000000001 428.15655798408164,82.10000000000001 428.10731012068675,82.11622263297429 428.0546800923005,82.125 428.0,82.125 110.0,82.125 110.0,82.0 -230.0,82.0 -230.0,82.125 -284.0,82.125 -284.0546800923005,82.125 -284.10731012068675,82.11622263297429 -284.15655798408164,82.10000000000001 -297.4,82.10000000000001 -297.4552284749831,82.10000000000001 -297.5,82.05522847498308 -297.5,82.00000000000001 -297.5,77.0 -297.5,76.94477152501693 -297.4552284749831,76.9 -297.4,76.9 -284.5,76.9 -284.5,-76.89999999999999 -297.4,-76.89999999999999 -297.4552284749831,-76.89999999999999 -297.5,-76.94477152501692 -297.5,-76.99999999999999 -297.5,-82.0 -297.5,-82.05522847498307 -297.4552284749831,-82.1 -297.4,-82.1 -284.15655798408164,-82.1 -284.10731012068675,-82.11622263297429 -284.0546800923005,-82.125 -284.0,-82.125 -230.0,-82.125 -230.0,-82.0 110.0,-82.0 110.0,-82.125" style="fill:none;stroke:black;stroke-width:1;fill-rule:evenodd;"/>
    <polygon
        points="384.0,92.5 384.8284271247462,92.5 385.5,93.17157287525382 385.5,94.0 385.5,116.0 385.5,116.82842712474618 384.8284271247462,117.5 384.0,117.5 366.0,117.5 365.1715728752538,117.5 364.5,116.82842712474618 364.5,116.0 364.5,94.0 364.5,93.17157287525382 365.1715728752538,92.5 366.0,92.5" style="fill:none;stroke:black;stroke-width:1;fill-rule:evenodd;"/>
    <polygon
        points="-427.0,-193.0 -429.76142374915395,-193.0 -432.0,-190.76142374915398 -432.0,-188.0 -432.0,-168.0 -491.0,-168.0 -493.76142374915395,-168.0 -496.0,-165.76142374915398 -496.0,-163.0 -496.0,-125.0 -496.0,144.0 -496.0,163.0 -496.0,165.76142374915398 -493.76142374915395,168.0 -491.0,168.0 -432.0,168.0 -432.0,188.0 -432.0,190.76142374915398 -429.76142374915395,193.0 -427.0,193.0 -224.0,193.0 -221.23857625084602,193.0 -219.0,190.76142374915398 -219.0,188.0 -219.0,168.0 60.0,168.0 86.94441288483529,168.0 108.91092342129795,146.6870664731866 109.9607310289478,120.0 150.0,120.0 161.04569499661588,120.0 170.0,128.95430500338412 170.0,140.0 170.0,144.0 496.0,144.0 496.0,-144.0 170.0,-144.0 170.0,-140.0 170.0,-128.95430500338412 161.04569499661588,-120.0 150.0,-120.0 109.9607310289478,-120.0 108.91092342129795,-146.6870664731866 86.94441288483529,-168.0 60.0,-168.0 -219.0,-168.0 -219.0,-188.0 -219.0,-190.76142374915398 -221.23857625084602,-193.0 -224.0,-193.0" style="fill:none;stroke:black;stroke-width:1;fill-rule:evenodd;"/>
</svg>
