<?xml version="1.0" encoding="ISO-8859-1"?>
<svg height="150.0" width="154.0">
    <polygon
        points="-70.0,68.5 -69.17157287525382,68.5 -68.5,69.17157287525382 -68.5,70.0 -68.5,70.82842712474618 -69.17157287525382,71.5 -70.0,71.5 -70.82842712474618,71.5 -71.5,70.82842712474618 -71.5,70.0 -71.5,69.17157287525382 -70.82842712474618,68.5 -70.0,68.5" style="fill:none;stroke:black;stroke-width:1;fill-rule:evenodd;"/>
    <polygon
        points="-60.0,68.5 -59.17157287525381,68.5 -58.5,69.17157287525382 -58.5,70.0 -58.5,70.82842712474618 -59.17157287525381,71.5 -60.0,71.5 -60.82842712474619,71.5 -61.5,70.82842712474618 -61.5,70.0 -61.5,69.17157287525382 -60.82842712474619,68.5 -60.0,68.5" style="fill:none;stroke:black;stroke-width:1;fill-rule:evenodd;"/>
    <polygon
        points="-50.0,68.5 -49.17157287525381,68.5 -48.5,69.17157287525382 -48.5,70.0 -48.5,70.82842712474618 -49.17157287525381,71.5 -50.0,71.5 -50.82842712474619,71.5 -51.5,70.82842712474618 -51.5,70.0 -51.5,69.17157287525382 -50.82842712474619,68.5 -50.0,68.5" style="fill:none;stroke:black;stroke-width:1;fill-rule:evenodd;"/>
    <polygon
        points="-40.0,68.5 -39.17157287525381,68.5 -38.5,69.17157287525382 -38.5,70.0 -38.5,70.82842712474618 -39.17157287525381,71.5 -40.0,71.5 -40.82842712474619,71.5 -41.5,70.82842712474618 -41.5,70.0 -41.5,69.17157287525382 -40.82842712474619,68.5 -40.0,68.5" style="fill:none;stroke:black;stroke-width:1;fill-rule:evenodd;"/>
    <polygon
        points="-30.0,68.5 -29.17157287525381,68.5 -28.5,69.17157287525382 -28.5,70.0 -28.5,70.82842712474618 -29.17157287525381,71.5 -30.0,71.5 -30.82842712474619,71.5 -31.5,70.82842712474618 -31.5,70.0 -31.5,69.17157287525382 -30.82842712474619,68.5 -30.0,68.5" style="fill:none;stroke:black;stroke-width:1;fill-rule:evenodd;"/>
    <polygon
        points="-20.0,68.5 -19.17157287525381,68.5 -18.5,69.17157287525382 -18.5,70.0 -18.5,70.82842712474618 -19.17157287525381,71.5 -20.0,71.5 -20.82842712474619,71.5 -21.5,70.82842712474618 -21.5,70.0 -21.5,69.17157287525382 -20.82842712474619,68.5 -20.0,68.5" style="fill:none;stroke:black;stroke-width:1;fill-rule:evenodd;"/>
    <polygon
        points="-10.0,68.5 -9.17157287525381,68.5 -8.5,69.17157287525382 -8.5,70.0 -8.5,70.82842712474618 -9.17157287525381,71.5 -10.0,71.5 -10.82842712474619,71.5 -11.5,70.82842712474618 -11.5,70.0 -11.5,69.17157287525382 -10.82842712474619,68.5 -10.0,68.5" style="fill:none;stroke:black;stroke-width:1;fill-rule:evenodd;"/>
    <polygon
        points="0.0,68.5 0.8284271247461898,68.5 1.5,69.17157287525382 1.5,70.0 1.5,70.82842712474618 0.8284271247461898,71.5 0.0,71.5 -0.8284271247461901,71.5 -1.5,70.82842712474618 -1.5,70.0 -1.5,69.17157287525382 -0.8284271247461901,68.5 0.0,68.5" style="fill:none;stroke:black;stroke-width:1;fill-rule:evenodd;"/>
    <polygon
        points="10.0,68.5 10.82842712474619,68.5 11.5,69.17157287525382 11.5,70.0 11.5,70.82842712474618 10.82842712474619,71.5 10.0,71.5 9.17157287525381,71.5 8.5,70.82842712474618 8.5,70.0 8.5,69.17157287525382 9.17157287525381,68.5 10.0,68.5" style="fill:none;stroke:black;stroke-width:1;fill-rule:evenodd;"/>
    <polygon
        points="20.0,68.5 20.82842712474619,68.5 21.5,69.17157287525382 21.5,70.0 21.5,70.82842712474618 20.82842712474619,71.5 20.0,71.5 19.17157287525381,71.5 18.5,70.82842712474618 18.5,70.0 18.5,69.17157287525382 19.17157287525381,68.5 20.0,68.5" style="fill:none;stroke:black;stroke-width:1;fill-rule:evenodd;"/>
    <polygon
        points="30.0,68.5 30.82842712474619,68.5 31.5,69.17157287525382 31.5,70.0 31.5,70.82842712474618 30.82842712474619,71.5 30.0,71.5 29.17157287525381,71.5 28.5,70.82842712474618 28.5,70.0 28.5,69.17157287525382 29.17157287525381,68.5 30.0,68.5" style="fill:none;stroke:black;stroke-width:1;fill-rule:evenodd;"/>
    <polygon
        points="40.0,68.5 40.82842712474619,68.5 41.5,69.17157287525382 41.5,70.0 41.5,70.82842712474618 40.82842712474619,71.5 40.0,71.5 39.17157287525381,71.5 38.5,70.82842712474618 38.5,70.0 38.5,69.17157287525382 39.17157287525381,68.5 40.0,68.5" style="fill:none;stroke:black;stroke-width:1;fill-rule:evenodd;"/>
    <polygon
        points="50.0,68.5 50.82842712474619,68.5 51.5,69.17157287525382 51.5,70.0 51.5,70.82842712474618 50.82842712474619,71.5 50.0,71.5 49.17157287525381,71.5 48.5,70.82842712474618 48.5,70.0 48.5,69.17157287525382 49.17157287525381,68.5 50.0,68.5" style="fill:none;stroke:black;stroke-width:1;fill-rule:evenodd;"/>
    <polygon
        points="60.0,68.5 60.82842712474619,68.5 61.5,69.17157287525382 61.5,70.0 61.5,70.82842712474618 60.82842712474619,71.5 60.0,71.5 59.17157287525381,71.5 58.5,70.82842712474618 58.5,70.0 58.5,69.17157287525382 59.17157287525381,68.5 60.0,68.5" style="fill:none;stroke:black;stroke-width:1;fill-rule:evenodd;"/>
    <polygon
        points="70.0,68.5 70.82842712474618,68.5 71.5,69.17157287525382 71.5,70.0 71.5,70.82842712474618 70.82842712474618,71.5 70.0,71.5 69.17157287525382,71.5 68.5,70.82842712474618 68.5,70.0 68.5,69.17157287525382 69.17157287525382,68.5 70.0,68.5" style="fill:none;stroke:black;stroke-width:1;fill-rule:evenodd;"/>
    <polygon points="-77.0,-75.0 -77.0,75.0 77.0,75.0 77.0,-75.0" style="fill:none;stroke:black;stroke-width:1;fill-rule:evenodd;"/>
</svg>
