<?xml version="1.0" encoding="ISO-8859-1"?>
<svg height="150.0" width="992.0">
    <polygon
        points="-70.0,-71.5 -69.17157287525382,-71.5 -68.5,-70.82842712474618 -68.5,-70.0 -68.5,-69.17157287525382 -69.17157287525382,-68.5 -70.0,-68.5 -70.82842712474618,-68.5 -71.5,-69.17157287525382 -71.5,-70.0 -71.5,-70.82842712474618 -70.82842712474618,-71.5 -70.0,-71.5" style="fill:none;stroke:black;stroke-width:1;fill-rule:evenodd;"/>
    <polygon
        points="-60.0,-71.5 -59.17157287525381,-71.5 -58.5,-70.82842712474618 -58.5,-70.0 -58.5,-69.17157287525382 -59.17157287525381,-68.5 -60.0,-68.5 -60.82842712474619,-68.5 -61.5,-69.17157287525382 -61.5,-70.0 -61.5,-70.82842712474618 -60.82842712474619,-71.5 -60.0,-71.5" style="fill:none;stroke:black;stroke-width:1;fill-rule:evenodd;"/>
    <polygon
        points="-50.0,-71.5 -49.17157287525381,-71.5 -48.5,-70.82842712474618 -48.5,-70.0 -48.5,-69.17157287525382 -49.17157287525381,-68.5 -50.0,-68.5 -50.82842712474619,-68.5 -51.5,-69.17157287525382 -51.5,-70.0 -51.5,-70.82842712474618 -50.82842712474619,-71.5 -50.0,-71.5" style="fill:none;stroke:black;stroke-width:1;fill-rule:evenodd;"/>
    <polygon
        points="-40.0,-71.5 -39.17157287525381,-71.5 -38.5,-70.82842712474618 -38.5,-70.0 -38.5,-69.17157287525382 -39.17157287525381,-68.5 -40.0,-68.5 -40.82842712474619,-68.5 -41.5,-69.17157287525382 -41.5,-70.0 -41.5,-70.82842712474618 -40.82842712474619,-71.5 -40.0,-71.5" style="fill:none;stroke:black;stroke-width:1;fill-rule:evenodd;"/>
    <polygon
        points="-30.0,-71.5 -29.17157287525381,-71.5 -28.5,-70.82842712474618 -28.5,-70.0 -28.5,-69.17157287525382 -29.17157287525381,-68.5 -30.0,-68.5 -30.82842712474619,-68.5 -31.5,-69.17157287525382 -31.5,-70.0 -31.5,-70.82842712474618 -30.82842712474619,-71.5 -30.0,-71.5" style="fill:none;stroke:black;stroke-width:1;fill-rule:evenodd;"/>
    <polygon
        points="-20.0,-71.5 -19.17157287525381,-71.5 -18.5,-70.82842712474618 -18.5,-70.0 -18.5,-69.17157287525382 -19.17157287525381,-68.5 -20.0,-68.5 -20.82842712474619,-68.5 -21.5,-69.17157287525382 -21.5,-70.0 -21.5,-70.82842712474618 -20.82842712474619,-71.5 -20.0,-71.5" style="fill:none;stroke:black;stroke-width:1;fill-rule:evenodd;"/>
    <polygon
        points="-10.0,-71.5 -9.17157287525381,-71.5 -8.5,-70.82842712474618 -8.5,-70.0 -8.5,-69.17157287525382 -9.17157287525381,-68.5 -10.0,-68.5 -10.82842712474619,-68.5 -11.5,-69.17157287525382 -11.5,-70.0 -11.5,-70.82842712474618 -10.82842712474619,-71.5 -10.0,-71.5" style="fill:none;stroke:black;stroke-width:1;fill-rule:evenodd;"/>
    <polygon
        points="0.0,-71.5 0.8284271247461898,-71.5 1.5,-70.82842712474618 1.5,-70.0 1.5,-69.17157287525382 0.8284271247461898,-68.5 0.0,-68.5 -0.8284271247461901,-68.5 -1.5,-69.17157287525382 -1.5,-70.0 -1.5,-70.82842712474618 -0.8284271247461901,-71.5 0.0,-71.5" style="fill:none;stroke:black;stroke-width:1;fill-rule:evenodd;"/>
    <polygon
        points="10.0,-71.5 10.82842712474619,-71.5 11.5,-70.82842712474618 11.5,-70.0 11.5,-69.17157287525382 10.82842712474619,-68.5 10.0,-68.5 9.17157287525381,-68.5 8.5,-69.17157287525382 8.5,-70.0 8.5,-70.82842712474618 9.17157287525381,-71.5 10.0,-71.5" style="fill:none;stroke:black;stroke-width:1;fill-rule:evenodd;"/>
    <polygon
        points="20.0,-71.5 20.82842712474619,-71.5 21.5,-70.82842712474618 21.5,-70.0 21.5,-69.17157287525382 20.82842712474619,-68.5 20.0,-68.5 19.17157287525381,-68.5 18.5,-69.17157287525382 18.5,-70.0 18.5,-70.82842712474618 19.17157287525381,-71.5 20.0,-71.5" style="fill:none;stroke:black;stroke-width:1;fill-rule:evenodd;"/>
    <polygon
        points="30.0,-71.5 30.82842712474619,-71.5 31.5,-70.82842712474618 31.5,-70.0 31.5,-69.17157287525382 30.82842712474619,-68.5 30.0,-68.5 29.17157287525381,-68.5 28.5,-69.17157287525382 28.5,-70.0 28.5,-70.82842712474618 29.17157287525381,-71.5 30.0,-71.5" style="fill:none;stroke:black;stroke-width:1;fill-rule:evenodd;"/>
    <polygon
        points="40.0,-71.5 40.82842712474619,-71.5 41.5,-70.82842712474618 41.5,-70.0 41.5,-69.17157287525382 40.82842712474619,-68.5 40.0,-68.5 39.17157287525381,-68.5 38.5,-69.17157287525382 38.5,-70.0 38.5,-70.82842712474618 39.17157287525381,-71.5 40.0,-71.5" style="fill:none;stroke:black;stroke-width:1;fill-rule:evenodd;"/>
    <polygon
        points="50.0,-71.5 50.82842712474619,-71.5 51.5,-70.82842712474618 51.5,-70.0 51.5,-69.17157287525382 50.82842712474619,-68.5 50.0,-68.5 49.17157287525381,-68.5 48.5,-69.17157287525382 48.5,-70.0 48.5,-70.82842712474618 49.17157287525381,-71.5 50.0,-71.5" style="fill:none;stroke:black;stroke-width:1;fill-rule:evenodd;"/>
    <polygon
        points="60.0,-71.5 60.82842712474619,-71.5 61.5,-70.82842712474618 61.5,-70.0 61.5,-69.17157287525382 60.82842712474619,-68.5 60.0,-68.5 59.17157287525381,-68.5 58.5,-69.17157287525382 58.5,-70.0 58.5,-70.82842712474618 59.17157287525381,-71.5 60.0,-71.5" style="fill:none;stroke:black;stroke-width:1;fill-rule:evenodd;"/>
    <polygon
        points="70.0,-71.5 70.82842712474618,-71.5 71.5,-70.82842712474618 71.5,-70.0 71.5,-69.17157287525382 70.82842712474618,-68.5 70.0,-68.5 69.17157287525382,-68.5 68.5,-69.17157287525382 68.5,-70.0 68.5,-70.82842712474618 69.17157287525382,-71.5 70.0,-71.5" style="fill:none;stroke:black;stroke-width:1;fill-rule:evenodd;"/>
    <polygon
        points="80.0,-71.5 80.82842712474618,-71.5 81.5,-70.82842712474618 81.5,-70.0 81.5,-69.17157287525382 80.82842712474618,-68.5 80.0,-68.5 79.17157287525382,-68.5 78.5,-69.17157287525382 78.5,-70.0 78.5,-70.82842712474618 79.17157287525382,-71.5 80.0,-71.5" style="fill:none;stroke:black;stroke-width:1;fill-rule:evenodd;"/>
    <polygon
        points="90.0,-71.5 90.82842712474618,-71.5 91.5,-70.82842712474618 91.5,-70.0 91.5,-69.17157287525382 90.82842712474618,-68.5 90.0,-68.5 89.17157287525382,-68.5 88.5,-69.17157287525382 88.5,-70.0 88.5,-70.82842712474618 89.17157287525382,-71.5 90.0,-71.5" style="fill:none;stroke:black;stroke-width:1;fill-rule:evenodd;"/>
    <polygon
        points="100.0,-71.5 100.82842712474618,-71.5 101.5,-70.82842712474618 101.5,-70.0 101.5,-69.17157287525382 100.82842712474618,-68.5 100.0,-68.5 99.17157287525382,-68.5 98.5,-69.17157287525382 98.5,-70.0 98.5,-70.82842712474618 99.17157287525382,-71.5 100.0,-71.5" style="fill:none;stroke:black;stroke-width:1;fill-rule:evenodd;"/>
    <polygon
        points="110.0,-71.5 110.82842712474618,-71.5 111.5,-70.82842712474618 111.5,-70.0 111.5,-69.17157287525382 110.82842712474618,-68.5 110.0,-68.5 109.17157287525382,-68.5 108.5,-69.17157287525382 108.5,-70.0 108.5,-70.82842712474618 109.17157287525382,-71.5 110.0,-71.5" style="fill:none;stroke:black;stroke-width:1;fill-rule:evenodd;"/>
    <polygon
        points="120.0,-71.5 120.82842712474618,-71.5 121.5,-70.82842712474618 121.5,-70.0 121.5,-69.17157287525382 120.82842712474618,-68.5 120.0,-68.5 119.17157287525382,-68.5 118.5,-69.17157287525382 118.5,-70.0 118.5,-70.82842712474618 119.17157287525382,-71.5 120.0,-71.5" style="fill:none;stroke:black;stroke-width:1;fill-rule:evenodd;"/>
    <polygon
        points="130.0,-71.5 130.82842712474618,-71.5 131.5,-70.82842712474618 131.5,-70.0 131.5,-69.17157287525382 130.82842712474618,-68.5 130.0,-68.5 129.17157287525382,-68.5 128.5,-69.17157287525382 128.5,-70.0 128.5,-70.82842712474618 129.17157287525382,-71.5 130.0,-71.5" style="fill:none;stroke:black;stroke-width:1;fill-rule:evenodd;"/>
    <polygon
        points="140.0,-71.5 140.82842712474618,-71.5 141.5,-70.82842712474618 141.5,-70.0 141.5,-69.17157287525382 140.82842712474618,-68.5 140.0,-68.5 139.17157287525382,-68.5 138.5,-69.17157287525382 138.5,-70.0 138.5,-70.82842712474618 139.17157287525382,-71.5 140.0,-71.5" style="fill:none;stroke:black;stroke-width:1;fill-rule:evenodd;"/>
    <polygon
        points="150.0,-71.5 150.82842712474618,-71.5 151.5,-70.82842712474618 151.5,-70.0 151.5,-69.17157287525382 150.82842712474618,-68.5 150.0,-68.5 149.17157287525382,-68.5 148.5,-69.17157287525382 148.5,-70.0 148.5,-70.82842712474618 149.17157287525382,-71.5 150.0,-71.5" style="fill:none;stroke:black;stroke-width:1;fill-rule:evenodd;"/>
    <polygon
        points="160.0,-71.5 160.82842712474618,-71.5 161.5,-70.82842712474618 161.5,-70.0 161.5,-69.17157287525382 160.82842712474618,-68.5 160.0,-68.5 159.17157287525382,-68.5 158.5,-69.17157287525382 158.5,-70.0 158.5,-70.82842712474618 159.17157287525382,-71.5 160.0,-71.5" style="fill:none;stroke:black;stroke-width:1;fill-rule:evenodd;"/>
    <polygon
        points="170.0,-71.5 170.82842712474618,-71.5 171.5,-70.82842712474618 171.5,-70.0 171.5,-69.17157287525382 170.82842712474618,-68.5 170.0,-68.5 169.17157287525382,-68.5 168.5,-69.17157287525382 168.5,-70.0 168.5,-70.82842712474618 169.17157287525382,-71.5 170.0,-71.5" style="fill:none;stroke:black;stroke-width:1;fill-rule:evenodd;"/>
    <polygon
        points="180.0,-71.5 180.82842712474618,-71.5 181.5,-70.82842712474618 181.5,-70.0 181.5,-69.17157287525382 180.82842712474618,-68.5 180.0,-68.5 179.17157287525382,-68.5 178.5,-69.17157287525382 178.5,-70.0 178.5,-70.82842712474618 179.17157287525382,-71.5 180.0,-71.5" style="fill:none;stroke:black;stroke-width:1;fill-rule:evenodd;"/>
    <polygon
        points="190.0,-71.5 190.82842712474618,-71.5 191.5,-70.82842712474618 191.5,-70.0 191.5,-69.17157287525382 190.82842712474618,-68.5 190.0,-68.5 189.17157287525382,-68.5 188.5,-69.17157287525382 188.5,-70.0 188.5,-70.82842712474618 189.17157287525382,-71.5 190.0,-71.5" style="fill:none;stroke:black;stroke-width:1;fill-rule:evenodd;"/>
    <polygon
        points="200.0,-71.5 200.82842712474618,-71.5 201.5,-70.82842712474618 201.5,-70.0 201.5,-69.17157287525382 200.82842712474618,-68.5 200.0,-68.5 199.17157287525382,-68.5 198.5,-69.17157287525382 198.5,-70.0 198.5,-70.82842712474618 199.17157287525382,-71.5 200.0,-71.5" style="fill:none;stroke:black;stroke-width:1;fill-rule:evenodd;"/>
    <polygon
        points="210.0,-71.5 210.82842712474618,-71.5 211.5,-70.82842712474618 211.5,-70.0 211.5,-69.17157287525382 210.82842712474618,-68.5 210.0,-68.5 209.17157287525382,-68.5 208.5,-69.17157287525382 208.5,-70.0 208.5,-70.82842712474618 209.17157287525382,-71.5 210.0,-71.5" style="fill:none;stroke:black;stroke-width:1;fill-rule:evenodd;"/>
    <polygon
        points="220.0,-71.5 220.82842712474618,-71.5 221.5,-70.82842712474618 221.5,-70.0 221.5,-69.17157287525382 220.82842712474618,-68.5 220.0,-68.5 219.17157287525382,-68.5 218.5,-69.17157287525382 218.5,-70.0 218.5,-70.82842712474618 219.17157287525382,-71.5 220.0,-71.5" style="fill:none;stroke:black;stroke-width:1;fill-rule:evenodd;"/>
    <polygon
        points="230.0,-71.5 230.82842712474618,-71.5 231.5,-70.82842712474618 231.5,-70.0 231.5,-69.17157287525382 230.82842712474618,-68.5 230.0,-68.5 229.17157287525382,-68.5 228.5,-69.17157287525382 228.5,-70.0 228.5,-70.82842712474618 229.17157287525382,-71.5 230.0,-71.5" style="fill:none;stroke:black;stroke-width:1;fill-rule:evenodd;"/>
    <polygon
        points="240.0,-71.5 240.82842712474618,-71.5 241.5,-70.82842712474618 241.5,-70.0 241.5,-69.17157287525382 240.82842712474618,-68.5 240.0,-68.5 239.17157287525382,-68.5 238.5,-69.17157287525382 238.5,-70.0 238.5,-70.82842712474618 239.17157287525382,-71.5 240.0,-71.5" style="fill:none;stroke:black;stroke-width:1;fill-rule:evenodd;"/>
    <polygon
        points="250.0,-71.5 250.82842712474618,-71.5 251.5,-70.82842712474618 251.5,-70.0 251.5,-69.17157287525382 250.82842712474618,-68.5 250.0,-68.5 249.17157287525382,-68.5 248.5,-69.17157287525382 248.5,-70.0 248.5,-70.82842712474618 249.17157287525382,-71.5 250.0,-71.5" style="fill:none;stroke:black;stroke-width:1;fill-rule:evenodd;"/>
    <polygon
        points="260.0,-71.5 260.8284271247462,-71.5 261.5,-70.82842712474618 261.5,-70.0 261.5,-69.17157287525382 260.8284271247462,-68.5 260.0,-68.5 259.1715728752538,-68.5 258.5,-69.17157287525382 258.5,-70.0 258.5,-70.82842712474618 259.1715728752538,-71.5 260.0,-71.5" style="fill:none;stroke:black;stroke-width:1;fill-rule:evenodd;"/>
    <polygon
        points="270.0,-71.5 270.8284271247462,-71.5 271.5,-70.82842712474618 271.5,-70.0 271.5,-69.17157287525382 270.8284271247462,-68.5 270.0,-68.5 269.1715728752538,-68.5 268.5,-69.17157287525382 268.5,-70.0 268.5,-70.82842712474618 269.1715728752538,-71.5 270.0,-71.5" style="fill:none;stroke:black;stroke-width:1;fill-rule:evenodd;"/>
    <polygon
        points="280.0,-71.5 280.8284271247462,-71.5 281.5,-70.82842712474618 281.5,-70.0 281.5,-69.17157287525382 280.8284271247462,-68.5 280.0,-68.5 279.1715728752538,-68.5 278.5,-69.17157287525382 278.5,-70.0 278.5,-70.82842712474618 279.1715728752538,-71.5 280.0,-71.5" style="fill:none;stroke:black;stroke-width:1;fill-rule:evenodd;"/>
    <polygon
        points="290.0,-71.5 290.8284271247462,-71.5 291.5,-70.82842712474618 291.5,-70.0 291.5,-69.17157287525382 290.8284271247462,-68.5 290.0,-68.5 289.1715728752538,-68.5 288.5,-69.17157287525382 288.5,-70.0 288.5,-70.82842712474618 289.1715728752538,-71.5 290.0,-71.5" style="fill:none;stroke:black;stroke-width:1;fill-rule:evenodd;"/>
    <polygon
        points="300.0,-71.5 300.8284271247462,-71.5 301.5,-70.82842712474618 301.5,-70.0 301.5,-69.17157287525382 300.8284271247462,-68.5 300.0,-68.5 299.1715728752538,-68.5 298.5,-69.17157287525382 298.5,-70.0 298.5,-70.82842712474618 299.1715728752538,-71.5 300.0,-71.5" style="fill:none;stroke:black;stroke-width:1;fill-rule:evenodd;"/>
    <polygon
        points="310.0,-71.5 310.8284271247462,-71.5 311.5,-70.82842712474618 311.5,-70.0 311.5,-69.17157287525382 310.8284271247462,-68.5 310.0,-68.5 309.1715728752538,-68.5 308.5,-69.17157287525382 308.5,-70.0 308.5,-70.82842712474618 309.1715728752538,-71.5 310.0,-71.5" style="fill:none;stroke:black;stroke-width:1;fill-rule:evenodd;"/>
    <polygon
        points="320.0,-71.5 320.8284271247462,-71.5 321.5,-70.82842712474618 321.5,-70.0 321.5,-69.17157287525382 320.8284271247462,-68.5 320.0,-68.5 319.1715728752538,-68.5 318.5,-69.17157287525382 318.5,-70.0 318.5,-70.82842712474618 319.1715728752538,-71.5 320.0,-71.5" style="fill:none;stroke:black;stroke-width:1;fill-rule:evenodd;"/>
    <polygon
        points="330.0,-71.5 330.8284271247462,-71.5 331.5,-70.82842712474618 331.5,-70.0 331.5,-69.17157287525382 330.8284271247462,-68.5 330.0,-68.5 329.1715728752538,-68.5 328.5,-69.17157287525382 328.5,-70.0 328.5,-70.82842712474618 329.1715728752538,-71.5 330.0,-71.5" style="fill:none;stroke:black;stroke-width:1;fill-rule:evenodd;"/>
    <polygon
        points="340.0,-71.5 340.8284271247462,-71.5 341.5,-70.82842712474618 341.5,-70.0 341.5,-69.17157287525382 340.8284271247462,-68.5 340.0,-68.5 339.1715728752538,-68.5 338.5,-69.17157287525382 338.5,-70.0 338.5,-70.82842712474618 339.1715728752538,-71.5 340.0,-71.5" style="fill:none;stroke:black;stroke-width:1;fill-rule:evenodd;"/>
    <polygon
        points="350.0,-71.5 350.8284271247462,-71.5 351.5,-70.82842712474618 351.5,-70.0 351.5,-69.17157287525382 350.8284271247462,-68.5 350.0,-68.5 349.1715728752538,-68.5 348.5,-69.17157287525382 348.5,-70.0 348.5,-70.82842712474618 349.1715728752538,-71.5 350.0,-71.5" style="fill:none;stroke:black;stroke-width:1;fill-rule:evenodd;"/>
    <polygon
        points="360.0,-71.5 360.8284271247462,-71.5 361.5,-70.82842712474618 361.5,-70.0 361.5,-69.17157287525382 360.8284271247462,-68.5 360.0,-68.5 359.1715728752538,-68.5 358.5,-69.17157287525382 358.5,-70.0 358.5,-70.82842712474618 359.1715728752538,-71.5 360.0,-71.5" style="fill:none;stroke:black;stroke-width:1;fill-rule:evenodd;"/>
    <polygon
        points="370.0,-71.5 370.8284271247462,-71.5 371.5,-70.82842712474618 371.5,-70.0 371.5,-69.17157287525382 370.8284271247462,-68.5 370.0,-68.5 369.1715728752538,-68.5 368.5,-69.17157287525382 368.5,-70.0 368.5,-70.82842712474618 369.1715728752538,-71.5 370.0,-71.5" style="fill:none;stroke:black;stroke-width:1;fill-rule:evenodd;"/>
    <polygon
        points="380.0,-71.5 380.8284271247462,-71.5 381.5,-70.82842712474618 381.5,-70.0 381.5,-69.17157287525382 380.8284271247462,-68.5 380.0,-68.5 379.1715728752538,-68.5 378.5,-69.17157287525382 378.5,-70.0 378.5,-70.82842712474618 379.1715728752538,-71.5 380.0,-71.5" style="fill:none;stroke:black;stroke-width:1;fill-rule:evenodd;"/>
    <polygon
        points="390.0,-71.5 390.8284271247462,-71.5 391.5,-70.82842712474618 391.5,-70.0 391.5,-69.17157287525382 390.8284271247462,-68.5 390.0,-68.5 389.1715728752538,-68.5 388.5,-69.17157287525382 388.5,-70.0 388.5,-70.82842712474618 389.1715728752538,-71.5 390.0,-71.5" style="fill:none;stroke:black;stroke-width:1;fill-rule:evenodd;"/>
    <polygon
        points="400.0,-71.5 400.8284271247462,-71.5 401.5,-70.82842712474618 401.5,-70.0 401.5,-69.17157287525382 400.8284271247462,-68.5 400.0,-68.5 399.1715728752538,-68.5 398.5,-69.17157287525382 398.5,-70.0 398.5,-70.82842712474618 399.1715728752538,-71.5 400.0,-71.5" style="fill:none;stroke:black;stroke-width:1;fill-rule:evenodd;"/>
    <polygon
        points="410.0,-71.5 410.8284271247462,-71.5 411.5,-70.82842712474618 411.5,-70.0 411.5,-69.17157287525382 410.8284271247462,-68.5 410.0,-68.5 409.1715728752538,-68.5 408.5,-69.17157287525382 408.5,-70.0 408.5,-70.82842712474618 409.1715728752538,-71.5 410.0,-71.5" style="fill:none;stroke:black;stroke-width:1;fill-rule:evenodd;"/>
    <polygon
        points="420.0,-71.5 420.8284271247462,-71.5 421.5,-70.82842712474618 421.5,-70.0 421.5,-69.17157287525382 420.8284271247462,-68.5 420.0,-68.5 419.1715728752538,-68.5 418.5,-69.17157287525382 418.5,-70.0 418.5,-70.82842712474618 419.1715728752538,-71.5 420.0,-71.5" style="fill:none;stroke:black;stroke-width:1;fill-rule:evenodd;"/>
    <polygon
        points="330.0,-57.0 331.1045694996616,-57.0 332.0,-56.10456949966159 332.0,-55.0 332.0,-53.89543050033841 331.1045694996616,-53.0 330.0,-53.0 328.8954305003384,-53.0 328.0,-53.89543050033841 328.0,-55.0 328.0,-56.10456949966159 328.8954305003384,-57.0 330.0,-57.0" style="fill:none;stroke:black;stroke-width:1;fill-rule:evenodd;"/>
    <polygon
        points="420.0,-57.0 421.1045694996616,-57.0 422.0,-56.10456949966159 422.0,-55.0 422.0,-53.89543050033841 421.1045694996616,-53.0 420.0,-53.0 418.8954305003384,-53.0 418.0,-53.89543050033841 418.0,-55.0 418.0,-56.10456949966159 418.8954305003384,-57.0 420.0,-57.0" style="fill:none;stroke:black;stroke-width:1;fill-rule:evenodd;"/>
    <polygon
        points="-65.0,-54.0 -63.89543050033841,-54.0 -63.0,-53.10456949966159 -63.0,-52.0 -63.0,-50.89543050033841 -63.89543050033841,-50.0 -65.0,-50.0 -66.1045694996616,-50.0 -67.0,-50.89543050033841 -67.0,-52.0 -67.0,-53.10456949966159 -66.1045694996616,-54.0 -65.0,-54.0" style="fill:none;stroke:black;stroke-width:1;fill-rule:evenodd;"/>
    <polygon
        points="135.0,-54.0 136.10456949966158,-54.0 137.0,-53.10456949966159 137.0,-52.0 137.0,-50.89543050033841 136.10456949966158,-50.0 135.0,-50.0 133.89543050033842,-50.0 133.0,-50.89543050033841 133.0,-52.0 133.0,-53.10456949966159 133.89543050033842,-54.0 135.0,-54.0" style="fill:none;stroke:black;stroke-width:1;fill-rule:evenodd;"/>
    <polygon
        points="-370.0,-42.0 -368.8954305003384,-42.0 -368.0,-41.10456949966159 -368.0,-40.0 -368.0,-38.89543050033841 -368.8954305003384,-38.0 -370.0,-38.0 -371.1045694996616,-38.0 -372.0,-38.89543050033841 -372.0,-40.0 -372.0,-41.10456949966159 -371.1045694996616,-42.0 -370.0,-42.0" style="fill:none;stroke:black;stroke-width:1;fill-rule:evenodd;"/>
    <polygon
        points="-65.0,-42.0 -63.89543050033841,-42.0 -63.0,-41.10456949966159 -63.0,-40.0 -63.0,-38.89543050033841 -63.89543050033841,-38.0 -65.0,-38.0 -66.1045694996616,-38.0 -67.0,-38.89543050033841 -67.0,-40.0 -67.0,-41.10456949966159 -66.1045694996616,-42.0 -65.0,-42.0" style="fill:none;stroke:black;stroke-width:1;fill-rule:evenodd;"/>
    <polygon
        points="135.0,-42.0 136.10456949966158,-42.0 137.0,-41.10456949966159 137.0,-40.0 137.0,-38.89543050033841 136.10456949966158,-38.0 135.0,-38.0 133.89543050033842,-38.0 133.0,-38.89543050033841 133.0,-40.0 133.0,-41.10456949966159 133.89543050033842,-42.0 135.0,-42.0" style="fill:none;stroke:black;stroke-width:1;fill-rule:evenodd;"/>
    <polygon
        points="330.0,-42.0 331.1045694996616,-42.0 332.0,-41.10456949966159 332.0,-40.0 332.0,-38.89543050033841 331.1045694996616,-38.0 330.0,-38.0 328.8954305003384,-38.0 328.0,-38.89543050033841 328.0,-40.0 328.0,-41.10456949966159 328.8954305003384,-42.0 330.0,-42.0" style="fill:none;stroke:black;stroke-width:1;fill-rule:evenodd;"/>
    <polygon
        points="420.0,-42.0 421.1045694996616,-42.0 422.0,-41.10456949966159 422.0,-40.0 422.0,-38.89543050033841 421.1045694996616,-38.0 420.0,-38.0 418.8954305003384,-38.0 418.0,-38.89543050033841 418.0,-40.0 418.0,-41.10456949966159 418.8954305003384,-42.0 420.0,-42.0" style="fill:none;stroke:black;stroke-width:1;fill-rule:evenodd;"/>
    <polygon
        points="-485.0,-40.0 -483.8954305003384,-40.0 -483.0,-39.10456949966159 -483.0,-38.0 -483.0,-36.89543050033841 -483.8954305003384,-36.0 -485.0,-36.0 -486.1045694996616,-36.0 -487.0,-36.89543050033841 -487.0,-38.0 -487.0,-39.10456949966159 -486.1045694996616,-40.0 -485.0,-40.0" style="fill:none;stroke:black;stroke-width:1;fill-rule:evenodd;"/>
    <polygon
        points="485.0,-40.0 486.1045694996616,-40.0 487.0,-39.10456949966159 487.0,-38.0 487.0,-36.89543050033841 486.1045694996616,-36.0 485.0,-36.0 483.8954305003384,-36.0 483.0,-36.89543050033841 483.0,-38.0 483.0,-39.10456949966159 483.8954305003384,-40.0 485.0,-40.0" style="fill:none;stroke:black;stroke-width:1;fill-rule:evenodd;"/>
    <polygon
        points="-370.0,-27.0 -368.8954305003384,-27.0 -368.0,-26.104569499661586 -368.0,-25.0 -368.0,-23.895430500338414 -368.8954305003384,-23.0 -370.0,-23.0 -371.1045694996616,-23.0 -372.0,-23.895430500338414 -372.0,-25.0 -372.0,-26.104569499661586 -371.1045694996616,-27.0 -370.0,-27.0" style="fill:none;stroke:black;stroke-width:1;fill-rule:evenodd;"/>
    <polygon
        points="-65.0,-27.0 -63.89543050033841,-27.0 -63.0,-26.104569499661586 -63.0,-25.0 -63.0,-23.895430500338414 -63.89543050033841,-23.0 -65.0,-23.0 -66.1045694996616,-23.0 -67.0,-23.895430500338414 -67.0,-25.0 -67.0,-26.104569499661586 -66.1045694996616,-27.0 -65.0,-27.0" style="fill:none;stroke:black;stroke-width:1;fill-rule:evenodd;"/>
    <polygon
        points="135.0,-27.0 136.10456949966158,-27.0 137.0,-26.104569499661586 137.0,-25.0 137.0,-23.895430500338414 136.10456949966158,-23.0 135.0,-23.0 133.89543050033842,-23.0 133.0,-23.895430500338414 133.0,-25.0 133.0,-26.104569499661586 133.89543050033842,-27.0 135.0,-27.0" style="fill:none;stroke:black;stroke-width:1;fill-rule:evenodd;"/>
    <polygon
        points="330.0,-27.0 331.1045694996616,-27.0 332.0,-26.104569499661586 332.0,-25.0 332.0,-23.895430500338414 331.1045694996616,-23.0 330.0,-23.0 328.8954305003384,-23.0 328.0,-23.895430500338414 328.0,-25.0 328.0,-26.104569499661586 328.8954305003384,-27.0 330.0,-27.0" style="fill:none;stroke:black;stroke-width:1;fill-rule:evenodd;"/>
    <polygon
        points="420.0,-27.0 421.1045694996616,-27.0 422.0,-26.104569499661586 422.0,-25.0 422.0,-23.895430500338414 421.1045694996616,-23.0 420.0,-23.0 418.8954305003384,-23.0 418.0,-23.895430500338414 418.0,-25.0 418.0,-26.104569499661586 418.8954305003384,-27.0 420.0,-27.0" style="fill:none;stroke:black;stroke-width:1;fill-rule:evenodd;"/>
    <polygon
        points="-485.0,-25.0 -483.8954305003384,-25.0 -483.0,-24.104569499661586 -483.0,-23.0 -483.0,-21.895430500338414 -483.8954305003384,-21.0 -485.0,-21.0 -486.1045694996616,-21.0 -487.0,-21.895430500338414 -487.0,-23.0 -487.0,-24.104569499661586 -486.1045694996616,-25.0 -485.0,-25.0" style="fill:none;stroke:black;stroke-width:1;fill-rule:evenodd;"/>
    <polygon
        points="485.0,-25.0 486.1045694996616,-25.0 487.0,-24.104569499661586 487.0,-23.0 487.0,-21.895430500338414 486.1045694996616,-21.0 485.0,-21.0 483.8954305003384,-21.0 483.0,-21.895430500338414 483.0,-23.0 483.0,-24.104569499661586 483.8954305003384,-25.0 485.0,-25.0" style="fill:none;stroke:black;stroke-width:1;fill-rule:evenodd;"/>
    <polygon
        points="-287.5,-40.0 -283.35786437626905,-40.0 -280.0,-36.64213562373095 -280.0,-32.5 -280.0,-17.5 -280.0,-13.357864376269049 -283.35786437626905,-10.0 -287.5,-10.0 -352.5,-10.0 -356.64213562373095,-10.0 -360.0,-13.357864376269049 -360.0,-17.5 -360.0,-32.5 -360.0,-36.64213562373095 -356.64213562373095,-40.0 -352.5,-40.0" style="fill:none;stroke:black;stroke-width:1;fill-rule:evenodd;"/>
    <polygon
        points="-242.5,-40.0 -238.35786437626905,-40.0 -235.0,-36.64213562373095 -235.0,-32.5 -235.0,-17.5 -235.0,-13.357864376269049 -238.35786437626905,-10.0 -242.5,-10.0 -257.5,-10.0 -261.64213562373095,-10.0 -265.0,-13.357864376269049 -265.0,-17.5 -265.0,-32.5 -265.0,-36.64213562373095 -261.64213562373095,-40.0 -257.5,-40.0" style="fill:none;stroke:black;stroke-width:1;fill-rule:evenodd;"/>
    <polygon
        points="-370.0,-12.0 -368.8954305003384,-12.0 -368.0,-11.104569499661586 -368.0,-10.0 -368.0,-8.895430500338414 -368.8954305003384,-8.0 -370.0,-8.0 -371.1045694996616,-8.0 -372.0,-8.895430500338414 -372.0,-10.0 -372.0,-11.104569499661586 -371.1045694996616,-12.0 -370.0,-12.0" style="fill:none;stroke:black;stroke-width:1;fill-rule:evenodd;"/>
    <polygon
        points="-65.0,-12.0 -63.89543050033841,-12.0 -63.0,-11.104569499661586 -63.0,-10.0 -63.0,-8.895430500338414 -63.89543050033841,-8.0 -65.0,-8.0 -66.1045694996616,-8.0 -67.0,-8.895430500338414 -67.0,-10.0 -67.0,-11.104569499661586 -66.1045694996616,-12.0 -65.0,-12.0" style="fill:none;stroke:black;stroke-width:1;fill-rule:evenodd;"/>
    <polygon
        points="135.0,-12.0 136.10456949966158,-12.0 137.0,-11.104569499661586 137.0,-10.0 137.0,-8.895430500338414 136.10456949966158,-8.0 135.0,-8.0 133.89543050033842,-8.0 133.0,-8.895430500338414 133.0,-10.0 133.0,-11.104569499661586 133.89543050033842,-12.0 135.0,-12.0" style="fill:none;stroke:black;stroke-width:1;fill-rule:evenodd;"/>
    <polygon
        points="330.0,-12.0 331.1045694996616,-12.0 332.0,-11.104569499661586 332.0,-10.0 332.0,-8.895430500338414 331.1045694996616,-8.0 330.0,-8.0 328.8954305003384,-8.0 328.0,-8.895430500338414 328.0,-10.0 328.0,-11.104569499661586 328.8954305003384,-12.0 330.0,-12.0" style="fill:none;stroke:black;stroke-width:1;fill-rule:evenodd;"/>
    <polygon
        points="420.0,-12.0 421.1045694996616,-12.0 422.0,-11.104569499661586 422.0,-10.0 422.0,-8.895430500338414 421.1045694996616,-8.0 420.0,-8.0 418.8954305003384,-8.0 418.0,-8.895430500338414 418.0,-10.0 418.0,-11.104569499661586 418.8954305003384,-12.0 420.0,-12.0" style="fill:none;stroke:black;stroke-width:1;fill-rule:evenodd;"/>
    <polygon
        points="-485.0,-10.0 -483.8954305003384,-10.0 -483.0,-9.104569499661586 -483.0,-8.0 -483.0,-6.8954305003384135 -483.8954305003384,-6.0 -485.0,-6.0 -486.1045694996616,-6.0 -487.0,-6.8954305003384135 -487.0,-8.0 -487.0,-9.104569499661586 -486.1045694996616,-10.0 -485.0,-10.0" style="fill:none;stroke:black;stroke-width:1;fill-rule:evenodd;"/>
    <polygon
        points="485.0,-10.0 486.1045694996616,-10.0 487.0,-9.104569499661586 487.0,-8.0 487.0,-6.8954305003384135 486.1045694996616,-6.0 485.0,-6.0 483.8954305003384,-6.0 483.0,-6.8954305003384135 483.0,-8.0 483.0,-9.104569499661586 483.8954305003384,-10.0 485.0,-10.0" style="fill:none;stroke:black;stroke-width:1;fill-rule:evenodd;"/>
    <polygon
        points="-81.5,-40.0 -77.35786437626905,-40.0 -74.0,-36.64213562373095 -74.0,-32.5 -74.0,-7.5 -74.0,-3.35786437626905 -77.35786437626905,0.0 -81.5,0.0 -122.5,0.0 -126.64213562373095,0.0 -130.0,-3.35786437626905 -130.0,-7.5 -130.0,-32.5 -130.0,-36.64213562373095 -126.64213562373095,-40.0 -122.5,-40.0" style="fill:none;stroke:black;stroke-width:1;fill-rule:evenodd;"/>
    <polygon
        points="-370.0,3.0 -368.8954305003384,3.0 -368.0,3.8954305003384135 -368.0,5.0 -368.0,6.1045694996615865 -368.8954305003384,7.0 -370.0,7.0 -371.1045694996616,7.0 -372.0,6.1045694996615865 -372.0,5.0 -372.0,3.8954305003384135 -371.1045694996616,3.0 -370.0,3.0" style="fill:none;stroke:black;stroke-width:1;fill-rule:evenodd;"/>
    <polygon
        points="-65.0,3.0 -63.89543050033841,3.0 -63.0,3.8954305003384135 -63.0,5.0 -63.0,6.1045694996615865 -63.89543050033841,7.0 -65.0,7.0 -66.1045694996616,7.0 -67.0,6.1045694996615865 -67.0,5.0 -67.0,3.8954305003384135 -66.1045694996616,3.0 -65.0,3.0" style="fill:none;stroke:black;stroke-width:1;fill-rule:evenodd;"/>
    <polygon
        points="135.0,3.0 136.10456949966158,3.0 137.0,3.8954305003384135 137.0,5.0 137.0,6.1045694996615865 136.10456949966158,7.0 135.0,7.0 133.89543050033842,7.0 133.0,6.1045694996615865 133.0,5.0 133.0,3.8954305003384135 133.89543050033842,3.0 135.0,3.0" style="fill:none;stroke:black;stroke-width:1;fill-rule:evenodd;"/>
    <polygon
        points="330.0,3.0 331.1045694996616,3.0 332.0,3.8954305003384135 332.0,5.0 332.0,6.1045694996615865 331.1045694996616,7.0 330.0,7.0 328.8954305003384,7.0 328.0,6.1045694996615865 328.0,5.0 328.0,3.8954305003384135 328.8954305003384,3.0 330.0,3.0" style="fill:none;stroke:black;stroke-width:1;fill-rule:evenodd;"/>
    <polygon
        points="420.0,3.0 421.1045694996616,3.0 422.0,3.8954305003384135 422.0,5.0 422.0,6.1045694996615865 421.1045694996616,7.0 420.0,7.0 418.8954305003384,7.0 418.0,6.1045694996615865 418.0,5.0 418.0,3.8954305003384135 418.8954305003384,3.0 420.0,3.0" style="fill:none;stroke:black;stroke-width:1;fill-rule:evenodd;"/>
    <polygon
        points="-222.0,5.0 -220.89543050033842,5.0 -220.0,5.8954305003384135 -220.0,7.0 -220.0,8.104569499661586 -220.89543050033842,9.0 -222.0,9.0 -223.10456949966158,9.0 -224.0,8.104569499661586 -224.0,7.0 -224.0,5.8954305003384135 -223.10456949966158,5.0 -222.0,5.0" style="fill:none;stroke:black;stroke-width:1;fill-rule:evenodd;"/>
    <polygon
        points="-148.0,5.0 -146.89543050033842,5.0 -146.0,5.8954305003384135 -146.0,7.0 -146.0,8.104569499661586 -146.89543050033842,9.0 -148.0,9.0 -149.10456949966158,9.0 -150.0,8.104569499661586 -150.0,7.0 -150.0,5.8954305003384135 -149.10456949966158,5.0 -148.0,5.0" style="fill:none;stroke:black;stroke-width:1;fill-rule:evenodd;"/>
    <polygon
        points="-22.0,5.0 -20.895430500338414,5.0 -20.0,5.8954305003384135 -20.0,7.0 -20.0,8.104569499661586 -20.895430500338414,9.0 -22.0,9.0 -23.104569499661586,9.0 -24.0,8.104569499661586 -24.0,7.0 -24.0,5.8954305003384135 -23.104569499661586,5.0 -22.0,5.0" style="fill:none;stroke:black;stroke-width:1;fill-rule:evenodd;"/>
    <polygon
        points="52.0,5.0 53.10456949966159,5.0 54.0,5.8954305003384135 54.0,7.0 54.0,8.104569499661586 53.10456949966159,9.0 52.0,9.0 50.89543050033841,9.0 50.0,8.104569499661586 50.0,7.0 50.0,5.8954305003384135 50.89543050033841,5.0 52.0,5.0" style="fill:none;stroke:black;stroke-width:1;fill-rule:evenodd;"/>
    <polygon
        points="178.0,5.0 179.10456949966158,5.0 180.0,5.8954305003384135 180.0,7.0 180.0,8.104569499661586 179.10456949966158,9.0 178.0,9.0 176.89543050033842,9.0 176.0,8.104569499661586 176.0,7.0 176.0,5.8954305003384135 176.89543050033842,5.0 178.0,5.0" style="fill:none;stroke:black;stroke-width:1;fill-rule:evenodd;"/>
    <polygon
        points="252.0,5.0 253.10456949966158,5.0 254.0,5.8954305003384135 254.0,7.0 254.0,8.104569499661586 253.10456949966158,9.0 252.0,9.0 250.89543050033842,9.0 250.0,8.104569499661586 250.0,7.0 250.0,5.8954305003384135 250.89543050033842,5.0 252.0,5.0" style="fill:none;stroke:black;stroke-width:1;fill-rule:evenodd;"/>
    <polygon
        points="-101.0,12.0 -99.89543050033842,12.0 -99.0,12.895430500338414 -99.0,14.0 -99.0,15.104569499661586 -99.89543050033842,16.0 -101.0,16.0 -102.1045694996616,16.0 -103.0,15.104569499661586 -103.0,14.0 -103.0,12.895430500338414 -102.1045694996616,12.0 -101.0,12.0" style="fill:none;stroke:black;stroke-width:1;fill-rule:evenodd;"/>
    <polygon
        points="-89.0,12.0 -87.89543050033842,12.0 -87.0,12.895430500338414 -87.0,14.0 -87.0,15.104569499661586 -87.89543050033842,16.0 -89.0,16.0 -90.1045694996616,16.0 -91.0,15.104569499661586 -91.0,14.0 -91.0,12.895430500338414 -90.1045694996616,12.0 -89.0,12.0" style="fill:none;stroke:black;stroke-width:1;fill-rule:evenodd;"/>
    <polygon
        points="99.0,12.0 100.10456949966158,12.0 101.0,12.895430500338414 101.0,14.0 101.0,15.104569499661586 100.10456949966158,16.0 99.0,16.0 97.8954305003384,16.0 97.0,15.104569499661586 97.0,14.0 97.0,12.895430500338414 97.8954305003384,12.0 99.0,12.0" style="fill:none;stroke:black;stroke-width:1;fill-rule:evenodd;"/>
    <polygon
        points="111.0,12.0 112.10456949966158,12.0 113.0,12.895430500338414 113.0,14.0 113.0,15.104569499661586 112.10456949966158,16.0 111.0,16.0 109.8954305003384,16.0 109.0,15.104569499661586 109.0,14.0 109.0,12.895430500338414 109.8954305003384,12.0 111.0,12.0" style="fill:none;stroke:black;stroke-width:1;fill-rule:evenodd;"/>
    <polygon
        points="299.0,12.0 300.1045694996616,12.0 301.0,12.895430500338414 301.0,14.0 301.0,15.104569499661586 300.1045694996616,16.0 299.0,16.0 297.8954305003384,16.0 297.0,15.104569499661586 297.0,14.0 297.0,12.895430500338414 297.8954305003384,12.0 299.0,12.0" style="fill:none;stroke:black;stroke-width:1;fill-rule:evenodd;"/>
    <polygon
        points="311.0,12.0 312.1045694996616,12.0 313.0,12.895430500338414 313.0,14.0 313.0,15.104569499661586 312.1045694996616,16.0 311.0,16.0 309.8954305003384,16.0 309.0,15.104569499661586 309.0,14.0 309.0,12.895430500338414 309.8954305003384,12.0 311.0,12.0" style="fill:none;stroke:black;stroke-width:1;fill-rule:evenodd;"/>
    <polygon
        points="-230.0,16.0 -228.89543050033842,16.0 -228.0,16.895430500338414 -228.0,18.0 -228.0,19.104569499661586 -228.89543050033842,20.0 -230.0,20.0 -231.10456949966158,20.0 -232.0,19.104569499661586 -232.0,18.0 -232.0,16.895430500338414 -231.10456949966158,16.0 -230.0,16.0" style="fill:none;stroke:black;stroke-width:1;fill-rule:evenodd;"/>
    <polygon
        points="-140.0,16.0 -138.89543050033842,16.0 -138.0,16.895430500338414 -138.0,18.0 -138.0,19.104569499661586 -138.89543050033842,20.0 -140.0,20.0 -141.10456949966158,20.0 -142.0,19.104569499661586 -142.0,18.0 -142.0,16.895430500338414 -141.10456949966158,16.0 -140.0,16.0" style="fill:none;stroke:black;stroke-width:1;fill-rule:evenodd;"/>
    <polygon
        points="-30.0,16.0 -28.895430500338414,16.0 -28.0,16.895430500338414 -28.0,18.0 -28.0,19.104569499661586 -28.895430500338414,20.0 -30.0,20.0 -31.104569499661586,20.0 -32.0,19.104569499661586 -32.0,18.0 -32.0,16.895430500338414 -31.104569499661586,16.0 -30.0,16.0" style="fill:none;stroke:black;stroke-width:1;fill-rule:evenodd;"/>
    <polygon
        points="60.0,16.0 61.10456949966159,16.0 62.0,16.895430500338414 62.0,18.0 62.0,19.104569499661586 61.10456949966159,20.0 60.0,20.0 58.89543050033841,20.0 58.0,19.104569499661586 58.0,18.0 58.0,16.895430500338414 58.89543050033841,16.0 60.0,16.0" style="fill:none;stroke:black;stroke-width:1;fill-rule:evenodd;"/>
    <polygon
        points="170.0,16.0 171.10456949966158,16.0 172.0,16.895430500338414 172.0,18.0 172.0,19.104569499661586 171.10456949966158,20.0 170.0,20.0 168.89543050033842,20.0 168.0,19.104569499661586 168.0,18.0 168.0,16.895430500338414 168.89543050033842,16.0 170.0,16.0" style="fill:none;stroke:black;stroke-width:1;fill-rule:evenodd;"/>
    <polygon
        points="260.0,16.0 261.1045694996616,16.0 262.0,16.895430500338414 262.0,18.0 262.0,19.104569499661586 261.1045694996616,20.0 260.0,20.0 258.8954305003384,20.0 258.0,19.104569499661586 258.0,18.0 258.0,16.895430500338414 258.8954305003384,16.0 260.0,16.0" style="fill:none;stroke:black;stroke-width:1;fill-rule:evenodd;"/>
    <polygon
        points="-370.0,18.0 -368.8954305003384,18.0 -368.0,18.895430500338414 -368.0,20.0 -368.0,21.104569499661586 -368.8954305003384,22.0 -370.0,22.0 -371.1045694996616,22.0 -372.0,21.104569499661586 -372.0,20.0 -372.0,18.895430500338414 -371.1045694996616,18.0 -370.0,18.0" style="fill:none;stroke:black;stroke-width:1;fill-rule:evenodd;"/>
    <polygon
        points="-65.0,18.0 -63.89543050033841,18.0 -63.0,18.895430500338414 -63.0,20.0 -63.0,21.104569499661586 -63.89543050033841,22.0 -65.0,22.0 -66.1045694996616,22.0 -67.0,21.104569499661586 -67.0,20.0 -67.0,18.895430500338414 -66.1045694996616,18.0 -65.0,18.0" style="fill:none;stroke:black;stroke-width:1;fill-rule:evenodd;"/>
    <polygon
        points="135.0,18.0 136.10456949966158,18.0 137.0,18.895430500338414 137.0,20.0 137.0,21.104569499661586 136.10456949966158,22.0 135.0,22.0 133.89543050033842,22.0 133.0,21.104569499661586 133.0,20.0 133.0,18.895430500338414 133.89543050033842,18.0 135.0,18.0" style="fill:none;stroke:black;stroke-width:1;fill-rule:evenodd;"/>
    <polygon
        points="330.0,18.0 331.1045694996616,18.0 332.0,18.895430500338414 332.0,20.0 332.0,21.104569499661586 331.1045694996616,22.0 330.0,22.0 328.8954305003384,22.0 328.0,21.104569499661586 328.0,20.0 328.0,18.895430500338414 328.8954305003384,18.0 330.0,18.0" style="fill:none;stroke:black;stroke-width:1;fill-rule:evenodd;"/>
    <polygon
        points="420.0,18.0 421.1045694996616,18.0 422.0,18.895430500338414 422.0,20.0 422.0,21.104569499661586 421.1045694996616,22.0 420.0,22.0 418.8954305003384,22.0 418.0,21.104569499661586 418.0,20.0 418.0,18.895430500338414 418.8954305003384,18.0 420.0,18.0" style="fill:none;stroke:black;stroke-width:1;fill-rule:evenodd;"/>
    <polygon
        points="-95.0,16.0 -92.79086100067683,16.0 -91.0,17.790861000676827 -91.0,20.0 -91.0,22.209138999323173 -92.79086100067683,24.0 -95.0,24.0 -97.20913899932317,24.0 -99.0,22.209138999323173 -99.0,20.0 -99.0,17.790861000676827 -97.20913899932317,16.0 -95.0,16.0" style="fill:none;stroke:black;stroke-width:1;fill-rule:evenodd;"/>
    <polygon
        points="105.0,16.0 107.20913899932317,16.0 109.0,17.790861000676827 109.0,20.0 109.0,22.209138999323173 107.20913899932317,24.0 105.0,24.0 102.79086100067683,24.0 101.0,22.209138999323173 101.0,20.0 101.0,17.790861000676827 102.79086100067683,16.0 105.0,16.0" style="fill:none;stroke:black;stroke-width:1;fill-rule:evenodd;"/>
    <polygon
        points="305.0,16.0 307.20913899932316,16.0 309.0,17.790861000676827 309.0,20.0 309.0,22.209138999323173 307.20913899932316,24.0 305.0,24.0 302.79086100067684,24.0 301.0,22.209138999323173 301.0,20.0 301.0,17.790861000676827 302.79086100067684,16.0 305.0,16.0" style="fill:none;stroke:black;stroke-width:1;fill-rule:evenodd;"/>
    <polygon
        points="-101.0,24.0 -99.89543050033842,24.0 -99.0,24.895430500338414 -99.0,26.0 -99.0,27.104569499661586 -99.89543050033842,28.0 -101.0,28.0 -102.1045694996616,28.0 -103.0,27.104569499661586 -103.0,26.0 -103.0,24.895430500338414 -102.1045694996616,24.0 -101.0,24.0" style="fill:none;stroke:black;stroke-width:1;fill-rule:evenodd;"/>
    <polygon
        points="-89.0,24.0 -87.89543050033842,24.0 -87.0,24.895430500338414 -87.0,26.0 -87.0,27.104569499661586 -87.89543050033842,28.0 -89.0,28.0 -90.1045694996616,28.0 -91.0,27.104569499661586 -91.0,26.0 -91.0,24.895430500338414 -90.1045694996616,24.0 -89.0,24.0" style="fill:none;stroke:black;stroke-width:1;fill-rule:evenodd;"/>
    <polygon
        points="99.0,24.0 100.10456949966158,24.0 101.0,24.895430500338414 101.0,26.0 101.0,27.104569499661586 100.10456949966158,28.0 99.0,28.0 97.8954305003384,28.0 97.0,27.104569499661586 97.0,26.0 97.0,24.895430500338414 97.8954305003384,24.0 99.0,24.0" style="fill:none;stroke:black;stroke-width:1;fill-rule:evenodd;"/>
    <polygon
        points="111.0,24.0 112.10456949966158,24.0 113.0,24.895430500338414 113.0,26.0 113.0,27.104569499661586 112.10456949966158,28.0 111.0,28.0 109.8954305003384,28.0 109.0,27.104569499661586 109.0,26.0 109.0,24.895430500338414 109.8954305003384,24.0 111.0,24.0" style="fill:none;stroke:black;stroke-width:1;fill-rule:evenodd;"/>
    <polygon
        points="299.0,24.0 300.1045694996616,24.0 301.0,24.895430500338414 301.0,26.0 301.0,27.104569499661586 300.1045694996616,28.0 299.0,28.0 297.8954305003384,28.0 297.0,27.104569499661586 297.0,26.0 297.0,24.895430500338414 297.8954305003384,24.0 299.0,24.0" style="fill:none;stroke:black;stroke-width:1;fill-rule:evenodd;"/>
    <polygon
        points="311.0,24.0 312.1045694996616,24.0 313.0,24.895430500338414 313.0,26.0 313.0,27.104569499661586 312.1045694996616,28.0 311.0,28.0 309.8954305003384,28.0 309.0,27.104569499661586 309.0,26.0 309.0,24.895430500338414 309.8954305003384,24.0 311.0,24.0" style="fill:none;stroke:black;stroke-width:1;fill-rule:evenodd;"/>
    <polygon
        points="-222.0,27.0 -220.89543050033842,27.0 -220.0,27.895430500338414 -220.0,29.0 -220.0,30.104569499661586 -220.89543050033842,31.0 -222.0,31.0 -223.10456949966158,31.0 -224.0,30.104569499661586 -224.0,29.0 -224.0,27.895430500338414 -223.10456949966158,27.0 -222.0,27.0" style="fill:none;stroke:black;stroke-width:1;fill-rule:evenodd;"/>
    <polygon
        points="-148.0,27.0 -146.89543050033842,27.0 -146.0,27.895430500338414 -146.0,29.0 -146.0,30.104569499661586 -146.89543050033842,31.0 -148.0,31.0 -149.10456949966158,31.0 -150.0,30.104569499661586 -150.0,29.0 -150.0,27.895430500338414 -149.10456949966158,27.0 -148.0,27.0" style="fill:none;stroke:black;stroke-width:1;fill-rule:evenodd;"/>
    <polygon
        points="-22.0,27.0 -20.895430500338414,27.0 -20.0,27.895430500338414 -20.0,29.0 -20.0,30.104569499661586 -20.895430500338414,31.0 -22.0,31.0 -23.104569499661586,31.0 -24.0,30.104569499661586 -24.0,29.0 -24.0,27.895430500338414 -23.104569499661586,27.0 -22.0,27.0" style="fill:none;stroke:black;stroke-width:1;fill-rule:evenodd;"/>
    <polygon
        points="52.0,27.0 53.10456949966159,27.0 54.0,27.895430500338414 54.0,29.0 54.0,30.104569499661586 53.10456949966159,31.0 52.0,31.0 50.89543050033841,31.0 50.0,30.104569499661586 50.0,29.0 50.0,27.895430500338414 50.89543050033841,27.0 52.0,27.0" style="fill:none;stroke:black;stroke-width:1;fill-rule:evenodd;"/>
    <polygon
        points="178.0,27.0 179.10456949966158,27.0 180.0,27.895430500338414 180.0,29.0 180.0,30.104569499661586 179.10456949966158,31.0 178.0,31.0 176.89543050033842,31.0 176.0,30.104569499661586 176.0,29.0 176.0,27.895430500338414 176.89543050033842,27.0 178.0,27.0" style="fill:none;stroke:black;stroke-width:1;fill-rule:evenodd;"/>
    <polygon
        points="252.0,27.0 253.10456949966158,27.0 254.0,27.895430500338414 254.0,29.0 254.0,30.104569499661586 253.10456949966158,31.0 252.0,31.0 250.89543050033842,31.0 250.0,30.104569499661586 250.0,29.0 250.0,27.895430500338414 250.89543050033842,27.0 252.0,27.0" style="fill:none;stroke:black;stroke-width:1;fill-rule:evenodd;"/>
    <polygon
        points="-370.0,33.0 -368.8954305003384,33.0 -368.0,33.89543050033841 -368.0,35.0 -368.0,36.10456949966159 -368.8954305003384,37.0 -370.0,37.0 -371.1045694996616,37.0 -372.0,36.10456949966159 -372.0,35.0 -372.0,33.89543050033841 -371.1045694996616,33.0 -370.0,33.0" style="fill:none;stroke:black;stroke-width:1;fill-rule:evenodd;"/>
    <polygon
        points="-65.0,33.0 -63.89543050033841,33.0 -63.0,33.89543050033841 -63.0,35.0 -63.0,36.10456949966159 -63.89543050033841,37.0 -65.0,37.0 -66.1045694996616,37.0 -67.0,36.10456949966159 -67.0,35.0 -67.0,33.89543050033841 -66.1045694996616,33.0 -65.0,33.0" style="fill:none;stroke:black;stroke-width:1;fill-rule:evenodd;"/>
    <polygon
        points="135.0,33.0 136.10456949966158,33.0 137.0,33.89543050033841 137.0,35.0 137.0,36.10456949966159 136.10456949966158,37.0 135.0,37.0 133.89543050033842,37.0 133.0,36.10456949966159 133.0,35.0 133.0,33.89543050033841 133.89543050033842,33.0 135.0,33.0" style="fill:none;stroke:black;stroke-width:1;fill-rule:evenodd;"/>
    <polygon
        points="330.0,33.0 331.1045694996616,33.0 332.0,33.89543050033841 332.0,35.0 332.0,36.10456949966159 331.1045694996616,37.0 330.0,37.0 328.8954305003384,37.0 328.0,36.10456949966159 328.0,35.0 328.0,33.89543050033841 328.8954305003384,33.0 330.0,33.0" style="fill:none;stroke:black;stroke-width:1;fill-rule:evenodd;"/>
    <polygon
        points="420.0,33.0 421.1045694996616,33.0 422.0,33.89543050033841 422.0,35.0 422.0,36.10456949966159 421.1045694996616,37.0 420.0,37.0 418.8954305003384,37.0 418.0,36.10456949966159 418.0,35.0 418.0,33.89543050033841 418.8954305003384,33.0 420.0,33.0" style="fill:none;stroke:black;stroke-width:1;fill-rule:evenodd;"/>
    <polygon
        points="287.5,12.5 290.26142374915395,12.5 292.5,14.738576250846034 292.5,17.5 292.5,32.5 292.5,35.26142374915397 290.26142374915395,37.5 287.5,37.5 272.5,37.5 269.73857625084605,37.5 267.5,35.26142374915397 267.5,32.5 267.5,17.5 267.5,14.738576250846034 269.73857625084605,12.5 272.5,12.5" style="fill:none;stroke:black;stroke-width:1;fill-rule:evenodd;"/>
    <polygon
        points="-230.0,38.0 -228.89543050033842,38.0 -228.0,38.89543050033841 -228.0,40.0 -228.0,41.10456949966159 -228.89543050033842,42.0 -230.0,42.0 -231.10456949966158,42.0 -232.0,41.10456949966159 -232.0,40.0 -232.0,38.89543050033841 -231.10456949966158,38.0 -230.0,38.0" style="fill:none;stroke:black;stroke-width:1;fill-rule:evenodd;"/>
    <polygon
        points="-140.0,38.0 -138.89543050033842,38.0 -138.0,38.89543050033841 -138.0,40.0 -138.0,41.10456949966159 -138.89543050033842,42.0 -140.0,42.0 -141.10456949966158,42.0 -142.0,41.10456949966159 -142.0,40.0 -142.0,38.89543050033841 -141.10456949966158,38.0 -140.0,38.0" style="fill:none;stroke:black;stroke-width:1;fill-rule:evenodd;"/>
    <polygon
        points="-30.0,38.0 -28.895430500338414,38.0 -28.0,38.89543050033841 -28.0,40.0 -28.0,41.10456949966159 -28.895430500338414,42.0 -30.0,42.0 -31.104569499661586,42.0 -32.0,41.10456949966159 -32.0,40.0 -32.0,38.89543050033841 -31.104569499661586,38.0 -30.0,38.0" style="fill:none;stroke:black;stroke-width:1;fill-rule:evenodd;"/>
    <polygon
        points="60.0,38.0 61.10456949966159,38.0 62.0,38.89543050033841 62.0,40.0 62.0,41.10456949966159 61.10456949966159,42.0 60.0,42.0 58.89543050033841,42.0 58.0,41.10456949966159 58.0,40.0 58.0,38.89543050033841 58.89543050033841,38.0 60.0,38.0" style="fill:none;stroke:black;stroke-width:1;fill-rule:evenodd;"/>
    <polygon
        points="170.0,38.0 171.10456949966158,38.0 172.0,38.89543050033841 172.0,40.0 172.0,41.10456949966159 171.10456949966158,42.0 170.0,42.0 168.89543050033842,42.0 168.0,41.10456949966159 168.0,40.0 168.0,38.89543050033841 168.89543050033842,38.0 170.0,38.0" style="fill:none;stroke:black;stroke-width:1;fill-rule:evenodd;"/>
    <polygon
        points="260.0,38.0 261.1045694996616,38.0 262.0,38.89543050033841 262.0,40.0 262.0,41.10456949966159 261.1045694996616,42.0 260.0,42.0 258.8954305003384,42.0 258.0,41.10456949966159 258.0,40.0 258.0,38.89543050033841 258.8954305003384,38.0 260.0,38.0" style="fill:none;stroke:black;stroke-width:1;fill-rule:evenodd;"/>
    <polygon
        points="-370.0,48.0 -368.8954305003384,48.0 -368.0,48.89543050033841 -368.0,50.0 -368.0,51.10456949966159 -368.8954305003384,52.0 -370.0,52.0 -371.1045694996616,52.0 -372.0,51.10456949966159 -372.0,50.0 -372.0,48.89543050033841 -371.1045694996616,48.0 -370.0,48.0" style="fill:none;stroke:black;stroke-width:1;fill-rule:evenodd;"/>
    <polygon
        points="-65.0,48.0 -63.89543050033841,48.0 -63.0,48.89543050033841 -63.0,50.0 -63.0,51.10456949966159 -63.89543050033841,52.0 -65.0,52.0 -66.1045694996616,52.0 -67.0,51.10456949966159 -67.0,50.0 -67.0,48.89543050033841 -66.1045694996616,48.0 -65.0,48.0" style="fill:none;stroke:black;stroke-width:1;fill-rule:evenodd;"/>
    <polygon
        points="135.0,48.0 136.10456949966158,48.0 137.0,48.89543050033841 137.0,50.0 137.0,51.10456949966159 136.10456949966158,52.0 135.0,52.0 133.89543050033842,52.0 133.0,51.10456949966159 133.0,50.0 133.0,48.89543050033841 133.89543050033842,48.0 135.0,48.0" style="fill:none;stroke:black;stroke-width:1;fill-rule:evenodd;"/>
    <polygon
        points="330.0,48.0 331.1045694996616,48.0 332.0,48.89543050033841 332.0,50.0 332.0,51.10456949966159 331.1045694996616,52.0 330.0,52.0 328.8954305003384,52.0 328.0,51.10456949966159 328.0,50.0 328.0,48.89543050033841 328.8954305003384,48.0 330.0,48.0" style="fill:none;stroke:black;stroke-width:1;fill-rule:evenodd;"/>
    <polygon
        points="420.0,48.0 421.1045694996616,48.0 422.0,48.89543050033841 422.0,50.0 422.0,51.10456949966159 421.1045694996616,52.0 420.0,52.0 418.8954305003384,52.0 418.0,51.10456949966159 418.0,50.0 418.0,48.89543050033841 418.8954305003384,48.0 420.0,48.0" style="fill:none;stroke:black;stroke-width:1;fill-rule:evenodd;"/>
    <polygon
        points="-222.0,49.0 -220.89543050033842,49.0 -220.0,49.89543050033841 -220.0,51.0 -220.0,52.10456949966159 -220.89543050033842,53.0 -222.0,53.0 -223.10456949966158,53.0 -224.0,52.10456949966159 -224.0,51.0 -224.0,49.89543050033841 -223.10456949966158,49.0 -222.0,49.0" style="fill:none;stroke:black;stroke-width:1;fill-rule:evenodd;"/>
    <polygon
        points="-148.0,49.0 -146.89543050033842,49.0 -146.0,49.89543050033841 -146.0,51.0 -146.0,52.10456949966159 -146.89543050033842,53.0 -148.0,53.0 -149.10456949966158,53.0 -150.0,52.10456949966159 -150.0,51.0 -150.0,49.89543050033841 -149.10456949966158,49.0 -148.0,49.0" style="fill:none;stroke:black;stroke-width:1;fill-rule:evenodd;"/>
    <polygon
        points="-22.0,49.0 -20.895430500338414,49.0 -20.0,49.89543050033841 -20.0,51.0 -20.0,52.10456949966159 -20.895430500338414,53.0 -22.0,53.0 -23.104569499661586,53.0 -24.0,52.10456949966159 -24.0,51.0 -24.0,49.89543050033841 -23.104569499661586,49.0 -22.0,49.0" style="fill:none;stroke:black;stroke-width:1;fill-rule:evenodd;"/>
    <polygon
        points="52.0,49.0 53.10456949966159,49.0 54.0,49.89543050033841 54.0,51.0 54.0,52.10456949966159 53.10456949966159,53.0 52.0,53.0 50.89543050033841,53.0 50.0,52.10456949966159 50.0,51.0 50.0,49.89543050033841 50.89543050033841,49.0 52.0,49.0" style="fill:none;stroke:black;stroke-width:1;fill-rule:evenodd;"/>
    <polygon
        points="178.0,49.0 179.10456949966158,49.0 180.0,49.89543050033841 180.0,51.0 180.0,52.10456949966159 179.10456949966158,53.0 178.0,53.0 176.89543050033842,53.0 176.0,52.10456949966159 176.0,51.0 176.0,49.89543050033841 176.89543050033842,49.0 178.0,49.0" style="fill:none;stroke:black;stroke-width:1;fill-rule:evenodd;"/>
    <polygon
        points="252.0,49.0 253.10456949966158,49.0 254.0,49.89543050033841 254.0,51.0 254.0,52.10456949966159 253.10456949966158,53.0 252.0,53.0 250.89543050033842,53.0 250.0,52.10456949966159 250.0,51.0 250.0,49.89543050033841 250.89543050033842,49.0 252.0,49.0" style="fill:none;stroke:black;stroke-width:1;fill-rule:evenodd;"/>
    <polygon
        points="400.0,21.0 402.76142374915395,21.0 405.0,23.238576250846034 405.0,26.0 405.0,50.0 405.0,52.76142374915397 402.76142374915395,55.0 400.0,55.0 350.0,55.0 347.23857625084605,55.0 345.0,52.76142374915397 345.0,50.0 345.0,26.0 345.0,23.238576250846034 347.23857625084605,21.0 350.0,21.0" style="fill:none;stroke:black;stroke-width:1;fill-rule:evenodd;"/>
    <polygon
        points="-348.0,54.0 -346.8954305003384,54.0 -346.0,54.89543050033841 -346.0,56.0 -346.0,57.10456949966159 -346.8954305003384,58.0 -348.0,58.0 -349.1045694996616,58.0 -350.0,57.10456949966159 -350.0,56.0 -350.0,54.89543050033841 -349.1045694996616,54.0 -348.0,54.0" style="fill:none;stroke:black;stroke-width:1;fill-rule:evenodd;"/>
    <polygon
        points="-336.0,54.0 -334.8954305003384,54.0 -334.0,54.89543050033841 -334.0,56.0 -334.0,57.10456949966159 -334.8954305003384,58.0 -336.0,58.0 -337.1045694996616,58.0 -338.0,57.10456949966159 -338.0,56.0 -338.0,54.89543050033841 -337.1045694996616,54.0 -336.0,54.0" style="fill:none;stroke:black;stroke-width:1;fill-rule:evenodd;"/>
    <polygon
        points="-230.0,60.0 -228.89543050033842,60.0 -228.0,60.89543050033841 -228.0,62.0 -228.0,63.10456949966159 -228.89543050033842,64.0 -230.0,64.0 -231.10456949966158,64.0 -232.0,63.10456949966159 -232.0,62.0 -232.0,60.89543050033841 -231.10456949966158,60.0 -230.0,60.0" style="fill:none;stroke:black;stroke-width:1;fill-rule:evenodd;"/>
    <polygon
        points="-140.0,60.0 -138.89543050033842,60.0 -138.0,60.89543050033841 -138.0,62.0 -138.0,63.10456949966159 -138.89543050033842,64.0 -140.0,64.0 -141.10456949966158,64.0 -142.0,63.10456949966159 -142.0,62.0 -142.0,60.89543050033841 -141.10456949966158,60.0 -140.0,60.0" style="fill:none;stroke:black;stroke-width:1;fill-rule:evenodd;"/>
    <polygon
        points="-30.0,60.0 -28.895430500338414,60.0 -28.0,60.89543050033841 -28.0,62.0 -28.0,63.10456949966159 -28.895430500338414,64.0 -30.0,64.0 -31.104569499661586,64.0 -32.0,63.10456949966159 -32.0,62.0 -32.0,60.89543050033841 -31.104569499661586,60.0 -30.0,60.0" style="fill:none;stroke:black;stroke-width:1;fill-rule:evenodd;"/>
    <polygon
        points="60.0,60.0 61.10456949966159,60.0 62.0,60.89543050033841 62.0,62.0 62.0,63.10456949966159 61.10456949966159,64.0 60.0,64.0 58.89543050033841,64.0 58.0,63.10456949966159 58.0,62.0 58.0,60.89543050033841 58.89543050033841,60.0 60.0,60.0" style="fill:none;stroke:black;stroke-width:1;fill-rule:evenodd;"/>
    <polygon
        points="170.0,60.0 171.10456949966158,60.0 172.0,60.89543050033841 172.0,62.0 172.0,63.10456949966159 171.10456949966158,64.0 170.0,64.0 168.89543050033842,64.0 168.0,63.10456949966159 168.0,62.0 168.0,60.89543050033841 168.89543050033842,60.0 170.0,60.0" style="fill:none;stroke:black;stroke-width:1;fill-rule:evenodd;"/>
    <polygon
        points="260.0,60.0 261.1045694996616,60.0 262.0,60.89543050033841 262.0,62.0 262.0,63.10456949966159 261.1045694996616,64.0 260.0,64.0 258.8954305003384,64.0 258.0,63.10456949966159 258.0,62.0 258.0,60.89543050033841 258.8954305003384,60.0 260.0,60.0" style="fill:none;stroke:black;stroke-width:1;fill-rule:evenodd;"/>
    <polygon
        points="-342.0,58.0 -339.79086100067684,58.0 -338.0,59.79086100067683 -338.0,62.0 -338.0,64.20913899932317 -339.79086100067684,66.0 -342.0,66.0 -344.20913899932316,66.0 -346.0,64.20913899932317 -346.0,62.0 -346.0,59.79086100067683 -344.20913899932316,58.0 -342.0,58.0" style="fill:none;stroke:black;stroke-width:1;fill-rule:evenodd;"/>
    <polygon
        points="-370.0,63.0 -368.8954305003384,63.0 -368.0,63.89543050033841 -368.0,65.0 -368.0,66.10456949966158 -368.8954305003384,67.0 -370.0,67.0 -371.1045694996616,67.0 -372.0,66.10456949966158 -372.0,65.0 -372.0,63.89543050033841 -371.1045694996616,63.0 -370.0,63.0" style="fill:none;stroke:black;stroke-width:1;fill-rule:evenodd;"/>
    <polygon
        points="-65.0,63.0 -63.89543050033841,63.0 -63.0,63.89543050033841 -63.0,65.0 -63.0,66.10456949966158 -63.89543050033841,67.0 -65.0,67.0 -66.1045694996616,67.0 -67.0,66.10456949966158 -67.0,65.0 -67.0,63.89543050033841 -66.1045694996616,63.0 -65.0,63.0" style="fill:none;stroke:black;stroke-width:1;fill-rule:evenodd;"/>
    <polygon
        points="135.0,63.0 136.10456949966158,63.0 137.0,63.89543050033841 137.0,65.0 137.0,66.10456949966158 136.10456949966158,67.0 135.0,67.0 133.89543050033842,67.0 133.0,66.10456949966158 133.0,65.0 133.0,63.89543050033841 133.89543050033842,63.0 135.0,63.0" style="fill:none;stroke:black;stroke-width:1;fill-rule:evenodd;"/>
    <polygon
        points="330.0,63.0 331.1045694996616,63.0 332.0,63.89543050033841 332.0,65.0 332.0,66.10456949966158 331.1045694996616,67.0 330.0,67.0 328.8954305003384,67.0 328.0,66.10456949966158 328.0,65.0 328.0,63.89543050033841 328.8954305003384,63.0 330.0,63.0" style="fill:none;stroke:black;stroke-width:1;fill-rule:evenodd;"/>
    <polygon
        points="420.0,63.0 421.1045694996616,63.0 422.0,63.89543050033841 422.0,65.0 422.0,66.10456949966158 421.1045694996616,67.0 420.0,67.0 418.8954305003384,67.0 418.0,66.10456949966158 418.0,65.0 418.0,63.89543050033841 418.8954305003384,63.0 420.0,63.0" style="fill:none;stroke:black;stroke-width:1;fill-rule:evenodd;"/>
    <polygon
        points="-348.0,66.0 -346.8954305003384,66.0 -346.0,66.8954305003384 -346.0,68.0 -346.0,69.10456949966158 -346.8954305003384,70.0 -348.0,70.0 -349.1045694996616,70.0 -350.0,69.10456949966158 -350.0,68.0 -350.0,66.8954305003384 -349.1045694996616,66.0 -348.0,66.0" style="fill:none;stroke:black;stroke-width:1;fill-rule:evenodd;"/>
    <polygon
        points="-336.0,66.0 -334.8954305003384,66.0 -334.0,66.8954305003384 -334.0,68.0 -334.0,69.10456949966158 -334.8954305003384,70.0 -336.0,70.0 -337.1045694996616,70.0 -338.0,69.10456949966158 -338.0,68.0 -338.0,66.8954305003384 -337.1045694996616,66.0 -336.0,66.0" style="fill:none;stroke:black;stroke-width:1;fill-rule:evenodd;"/>
    <polygon
        points="-74.0,-75.0 -74.0,-61.25 -74.0,-57.79822031355754 -76.79822031355754,-55.0 -80.25,-55.0 -297.0,-55.0 -297.0,-53.375 -496.0,-53.375 -496.0,-0.18410455191016623 -403.4631015543985,16.132647355128583 -400.883752454338,16.58745619413535 -398.4669849405538,17.42257711711199 -396.26029880989853,18.57017338386285 -396.2602987702725,18.57017338386285 -386.7632193742926,22.1142414968769 -380.0,31.267303486457713 -380.0,42.0 -380.0,75.0 -328.5,75.0 -328.5,43.5 -328.5,36.596440627115086 -322.9035593728849,31.0 -316.0,31.0 -266.0,31.0 -259.0964406271151,31.0 -253.5,36.596440627115086 -253.5,43.5 -253.5,75.0 -215.0,75.0 -215.0,5.0 -215.0,4.447715250169207 -214.5522847498308,4.0 -214.0,4.0 -156.0,4.0 -155.4477152501692,4.0 -155.0,4.447715250169207 -155.0,5.0 -155.0,70.0 -120.0,70.0 -117.23857625084604,70.0 -115.0,72.23857625084604 -115.0,75.0 -15.0,75.0 -15.0,5.0 -15.0,4.447715250169207 -14.552284749830793,4.0 -14.0,4.0 44.0,4.0 44.5522847498308,4.0 45.0,4.447715250169207 45.0,5.0 45.0,70.0 80.0,70.0 82.76142374915396,70.0 85.0,72.23857625084604 85.0,75.0 185.0,75.0 185.0,5.0 185.0,4.447715250169207 185.4477152501692,4.0 186.0,4.0 244.0,4.0 244.5522847498308,4.0 245.0,4.447715250169207 245.0,5.0 245.0,70.0 280.0,70.0 282.76142374915395,70.0 285.0,72.23857625084604 285.0,75.0 444.0,75.0 444.0,27.0 444.0,13.192881254230166 455.19288125423014,2.0 469.0,2.0 496.0,2.0 496.0,-53.375 441.0,-53.375 441.0,-55.0 440.5,-55.0 433.5964406271151,-55.0 428.0,-60.596440627115086 428.0,-67.5 428.0,-75.0" style="fill:none;stroke:black;stroke-width:1;fill-rule:evenodd;"/>
</svg>
